<?xml version="1.0" encoding="UTF-8" standalone="no"?>
<!DOCTYPE svg PUBLIC "-//W3C//DTD SVG 1.1//EN" "http://www.w3.org/Graphics/SVG/1.1/DTD/svg11.dtd">
<svg xmlns="http://www.w3.org/2000/svg" version="1.1" viewBox="0.00 0.00 240.00 240.00">
<path fill="#f4511e" d="
  M 127.94 95.31
  Q 137.12 104.25 146.03 113.53
  Q 146.40 113.92 146.24 114.43
  C 145.59 116.55 144.82 118.77 145.02 120.95
  C 145.97 131.43 155.08 137.99 164.97 134.64
  C 183.52 128.36 174.05 99.21 154.16 106.72
  Q 153.57 106.95 153.12 106.50
  L 134.07 87.44
  Q 133.70 87.08 133.85 86.58
  C 137.93 73.26 127.11 61.28 113.92 66.80
  Q 113.57 66.95 113.29 66.68
  L 93.31 46.70
  A 0.35 0.35 0.0 0 1 93.32 46.21
  Q 100.70 39.02 107.98 31.62
  C 115.31 24.16 122.63 22.13 131.03 30.48
  Q 169.96 69.20 208.68 108.16
  C 216.54 116.07 217.32 123.13 209.25 131.23
  Q 172.63 168.00 135.85 204.60
  C 130.04 210.39 124.29 217.90 114.88 213.82
  Q 112.30 212.70 108.10 208.49
  Q 70.55 170.88 32.92 133.34
  Q 27.42 127.86 26.06 124.43
  C 22.69 115.91 28.32 111.22 34.77 104.70
  Q 60.13 79.05 85.76 53.32
  A 0.49 0.48 -44.6 0 1 86.45 53.32
  L 105.93 72.87
  Q 106.34 73.27 106.17 73.82
  Q 101.90 87.58 114.49 93.94
  Q 115.00 94.20 115.00 94.78
  L 115.00 145.82
  A 1.05 1.04 78.5 0 1 114.37 146.78
  C 95.97 154.61 107.41 181.51 125.68 174.43
  C 138.44 169.48 137.70 152.04 125.41 146.61
  Q 125.00 146.43 125.00 145.98
  L 125.00 95.25
  A 1.06 1.06 0.0 0 1 126.51 94.29
  Q 127.25 94.64 127.94 95.31
  Z"
/>
</svg>
