<?xml version="1.0" encoding="UTF-8" standalone="no"?>
<!DOCTYPE svg PUBLIC "-//W3C//DTD SVG 1.1//EN" "http://www.w3.org/Graphics/SVG/1.1/DTD/svg11.dtd">
<svg xmlns="http://www.w3.org/2000/svg" version="1.1" viewBox="0.00 0.00 500.00 500.00">
<g stroke-width="2.00" fill="none" stroke-linecap="butt">
<path stroke="#336865" vector-effect="non-scaling-stroke" d="
  M 277.88 241.35
  Q 260.49 217.17 243.14 192.96
  Q 242.80 192.50 242.23 192.50
  L 235.22 192.51
  Q 234.45 192.51 234.90 193.13
  L 273.27 246.67
  Q 273.56 247.07 273.27 247.48
  L 232.11 304.07
  A 0.42 0.42 0.0 0 0 232.45 304.74
  L 239.58 304.75
  Q 240.17 304.75 240.52 304.27
  L 277.54 253.17
  A 0.58 0.57 44.8 0 1 278.47 253.17
  L 315.40 304.35
  Q 315.69 304.75 316.18 304.75
  L 323.76 304.75
  A 0.35 0.35 0.0 0 0 324.04 304.20
  L 283.24 247.73
  Q 282.73 247.03 283.23 246.31
  Q 323.01 188.81 362.71 130.99
  A 0.08 0.08 0.0 0 0 362.59 130.90
  Q 318.77 184.75 278.30 241.35
  A 0.26 0.26 0.0 0 1 277.88 241.35"
/>
<path stroke="#336865" vector-effect="non-scaling-stroke" d="
  M 66.38 202.40
  A 0.26 0.26 0.0 0 1 66.86 202.25
  Q 98.29 248.09 129.67 293.93
  C 147.25 319.61 166.76 344.37 185.47 369.27
  Q 185.68 369.55 185.76 369.21
  Q 185.81 369.03 185.67 368.82
  Q 126.86 280.82 68.03 192.82
  Q 67.82 192.50 67.43 192.50
  L 59.50 192.50
  Q 59.00 192.50 59.00 193.00
  L 59.00 304.12
  Q 59.00 304.75 59.62 304.75
  L 65.44 304.75
  A 0.68 0.68 0.0 0 0 66.12 304.07
  L 66.38 202.40"
/>
<path stroke="#336865" vector-effect="non-scaling-stroke" d="
  M 160.32 243.25
  A 0.32 0.32 0.0 0 1 160.00 242.93
  L 160.00 199.07
  A 0.32 0.32 0.0 0 1 160.32 198.75
  L 227.68 198.75
  A 0.32 0.32 0.0 0 0 228.00 198.43
  L 228.00 192.82
  A 0.32 0.32 0.0 0 0 227.68 192.50
  L 153.07 192.50
  A 0.32 0.32 0.0 0 0 152.75 192.82
  L 152.75 304.43
  A 0.32 0.32 0.0 0 0 153.07 304.75
  L 228.68 304.75
  A 0.32 0.32 0.0 0 0 229.00 304.43
  L 229.00 298.82
  A 0.32 0.32 0.0 0 0 228.68 298.50
  L 160.32 298.50
  A 0.32 0.32 0.0 0 1 160.00 298.18
  L 160.00 249.82
  A 0.32 0.32 0.0 0 1 160.32 249.50
  L 223.68 249.50
  A 0.32 0.32 0.0 0 0 224.00 249.18
  L 224.00 243.57
  A 0.32 0.32 0.0 0 0 223.68 243.25
  L 160.32 243.25"
/>
<path stroke="#336865" vector-effect="non-scaling-stroke" d="
  M 365.93 198.75
  A 0.32 0.32 0.0 0 1 366.25 199.07
  L 366.25 304.43
  A 0.32 0.32 0.0 0 0 366.57 304.75
  L 372.93 304.75
  A 0.32 0.32 0.0 0 0 373.25 304.43
  L 373.25 199.07
  A 0.32 0.32 0.0 0 1 373.57 198.75
  L 412.43 198.75
  A 0.32 0.32 0.0 0 0 412.75 198.43
  L 412.75 192.82
  A 0.32 0.32 0.0 0 0 412.43 192.50
  L 327.32 192.50
  A 0.32 0.32 0.0 0 0 327.00 192.82
  L 327.00 198.43
  A 0.32 0.32 0.0 0 0 327.32 198.75
  L 365.93 198.75"
/>
<path stroke="#336865" vector-effect="non-scaling-stroke" d="
  M 443.03 291.64
  Q 441.87 289.09 438.75 290.14
  Q 438.26 290.31 438.33 290.82
  C 439.37 298.37 452.19 299.44 455.85 293.77
  C 458.68 289.37 456.50 284.22 451.29 283.10
  C 448.03 282.40 443.02 281.78 442.98 278.27
  Q 442.97 277.76 443.30 277.38
  C 445.50 274.89 451.52 274.13 452.53 278.43
  Q 452.66 279.00 453.24 279.00
  L 456.25 279.00
  Q 456.82 279.00 456.71 278.45
  C 454.70 268.41 437.81 270.15 438.93 279.75
  C 439.64 285.80 446.32 285.85 450.80 287.46
  C 456.79 289.62 449.55 296.46 443.72 292.46
  A 2.07 2.00 5.9 0 1 443.03 291.64"
/>
<path stroke="#336865" vector-effect="non-scaling-stroke" d="
  M 418.58 290.77
  C 418.81 297.93 428.68 299.30 432.15 294.47
  C 434.71 290.91 433.49 277.52 433.50 272.77
  Q 433.50 272.25 432.99 272.25
  L 430.02 272.25
  Q 429.51 272.25 429.51 272.76
  C 429.50 276.25 430.37 290.24 428.65 292.45
  C 427.11 294.42 423.12 293.74 422.58 290.75
  Q 422.49 290.25 421.98 290.25
  L 419.08 290.25
  Q 418.56 290.25 418.58 290.77"
/>
<path stroke="#336865" vector-effect="non-scaling-stroke" d="
  M 414.50 294.39
  A 2.60 2.60 0.0 0 0 411.90 291.79
  A 2.60 2.60 0.0 0 0 409.30 294.39
  A 2.60 2.60 0.0 0 0 411.90 296.99
  A 2.60 2.60 0.0 0 0 414.50 294.39"
/>
</g>
<path fill="#65d0ca" d="
  M 239.34 0.00
  L 261.05 0.00
  C 391.16 7.12 493.75 108.44 500.00 239.33
  L 500.00 260.84
  Q 494.13 360.11 425.03 428.64
  C 380.93 472.39 322.71 496.71 260.43 500.00
  L 239.22 500.00
  C 109.12 493.50 6.42 391.39 0.00 260.92
  L 0.00 239.19
  C 6.92 108.82 108.39 6.39 239.34 0.00
  Z
  M 277.88 241.35
  Q 260.49 217.17 243.14 192.96
  Q 242.80 192.50 242.23 192.50
  L 235.22 192.51
  Q 234.45 192.51 234.90 193.13
  L 273.27 246.67
  Q 273.56 247.07 273.27 247.48
  L 232.11 304.07
  A 0.42 0.42 0.0 0 0 232.45 304.74
  L 239.58 304.75
  Q 240.17 304.75 240.52 304.27
  L 277.54 253.17
  A 0.58 0.57 44.8 0 1 278.47 253.17
  L 315.40 304.35
  Q 315.69 304.75 316.18 304.75
  L 323.76 304.75
  A 0.35 0.35 0.0 0 0 324.04 304.20
  L 283.24 247.73
  Q 282.73 247.03 283.23 246.31
  Q 323.01 188.81 362.71 130.99
  A 0.08 0.08 0.0 0 0 362.59 130.90
  Q 318.77 184.75 278.30 241.35
  A 0.26 0.26 0.0 0 1 277.88 241.35
  Z
  M 66.38 202.40
  A 0.26 0.26 0.0 0 1 66.86 202.25
  Q 98.29 248.09 129.67 293.93
  C 147.25 319.61 166.76 344.37 185.47 369.27
  Q 185.68 369.55 185.76 369.21
  Q 185.81 369.03 185.67 368.82
  Q 126.86 280.82 68.03 192.82
  Q 67.82 192.50 67.43 192.50
  L 59.50 192.50
  Q 59.00 192.50 59.00 193.00
  L 59.00 304.12
  Q 59.00 304.75 59.62 304.75
  L 65.44 304.75
  A 0.68 0.68 0.0 0 0 66.12 304.07
  L 66.38 202.40
  Z
  M 160.32 243.25
  A 0.32 0.32 0.0 0 1 160.00 242.93
  L 160.00 199.07
  A 0.32 0.32 0.0 0 1 160.32 198.75
  L 227.68 198.75
  A 0.32 0.32 0.0 0 0 228.00 198.43
  L 228.00 192.82
  A 0.32 0.32 0.0 0 0 227.68 192.50
  L 153.07 192.50
  A 0.32 0.32 0.0 0 0 152.75 192.82
  L 152.75 304.43
  A 0.32 0.32 0.0 0 0 153.07 304.75
  L 228.68 304.75
  A 0.32 0.32 0.0 0 0 229.00 304.43
  L 229.00 298.82
  A 0.32 0.32 0.0 0 0 228.68 298.50
  L 160.32 298.50
  A 0.32 0.32 0.0 0 1 160.00 298.18
  L 160.00 249.82
  A 0.32 0.32 0.0 0 1 160.32 249.50
  L 223.68 249.50
  A 0.32 0.32 0.0 0 0 224.00 249.18
  L 224.00 243.57
  A 0.32 0.32 0.0 0 0 223.68 243.25
  L 160.32 243.25
  Z
  M 365.93 198.75
  A 0.32 0.32 0.0 0 1 366.25 199.07
  L 366.25 304.43
  A 0.32 0.32 0.0 0 0 366.57 304.75
  L 372.93 304.75
  A 0.32 0.32 0.0 0 0 373.25 304.43
  L 373.25 199.07
  A 0.32 0.32 0.0 0 1 373.57 198.75
  L 412.43 198.75
  A 0.32 0.32 0.0 0 0 412.75 198.43
  L 412.75 192.82
  A 0.32 0.32 0.0 0 0 412.43 192.50
  L 327.32 192.50
  A 0.32 0.32 0.0 0 0 327.00 192.82
  L 327.00 198.43
  A 0.32 0.32 0.0 0 0 327.32 198.75
  L 365.93 198.75
  Z
  M 443.03 291.64
  Q 441.87 289.09 438.75 290.14
  Q 438.26 290.31 438.33 290.82
  C 439.37 298.37 452.19 299.44 455.85 293.77
  C 458.68 289.37 456.50 284.22 451.29 283.10
  C 448.03 282.40 443.02 281.78 442.98 278.27
  Q 442.97 277.76 443.30 277.38
  C 445.50 274.89 451.52 274.13 452.53 278.43
  Q 452.66 279.00 453.24 279.00
  L 456.25 279.00
  Q 456.82 279.00 456.71 278.45
  C 454.70 268.41 437.81 270.15 438.93 279.75
  C 439.64 285.80 446.32 285.85 450.80 287.46
  C 456.79 289.62 449.55 296.46 443.72 292.46
  A 2.07 2.00 5.9 0 1 443.03 291.64
  Z
  M 418.58 290.77
  C 418.81 297.93 428.68 299.30 432.15 294.47
  C 434.71 290.91 433.49 277.52 433.50 272.77
  Q 433.50 272.25 432.99 272.25
  L 430.02 272.25
  Q 429.51 272.25 429.51 272.76
  C 429.50 276.25 430.37 290.24 428.65 292.45
  C 427.11 294.42 423.12 293.74 422.58 290.75
  Q 422.49 290.25 421.98 290.25
  L 419.08 290.25
  Q 418.56 290.25 418.58 290.77
  Z
  M 414.50 294.39
  A 2.60 2.60 0.0 0 0 411.90 291.79
  A 2.60 2.60 0.0 0 0 409.30 294.39
  A 2.60 2.60 0.0 0 0 411.90 296.99
  A 2.60 2.60 0.0 0 0 414.50 294.39
  Z"
/>
<path fill="#000000" d="
  M 277.88 241.35
  A 0.26 0.26 0.0 0 0 278.30 241.35
  Q 318.77 184.75 362.59 130.90
  A 0.08 0.08 0.0 0 1 362.71 130.99
  Q 323.01 188.81 283.23 246.31
  Q 282.73 247.03 283.24 247.73
  L 324.04 304.20
  A 0.35 0.35 0.0 0 1 323.76 304.75
  L 316.18 304.75
  Q 315.69 304.75 315.40 304.35
  L 278.47 253.17
  A 0.58 0.57 44.8 0 0 277.54 253.17
  L 240.52 304.27
  Q 240.17 304.75 239.58 304.75
  L 232.45 304.74
  A 0.42 0.42 0.0 0 1 232.11 304.07
  L 273.27 247.48
  Q 273.56 247.07 273.27 246.67
  L 234.90 193.13
  Q 234.45 192.51 235.22 192.51
  L 242.23 192.50
  Q 242.80 192.50 243.14 192.96
  Q 260.49 217.17 277.88 241.35
  Z"
/>
<path fill="#000000" d="
  M 66.38 202.40
  L 66.12 304.07
  A 0.68 0.68 0.0 0 1 65.44 304.75
  L 59.62 304.75
  Q 59.00 304.75 59.00 304.12
  L 59.00 193.00
  Q 59.00 192.50 59.50 192.50
  L 67.43 192.50
  Q 67.82 192.50 68.03 192.82
  Q 126.86 280.82 185.67 368.82
  Q 185.81 369.03 185.76 369.21
  Q 185.68 369.55 185.47 369.27
  C 166.76 344.37 147.25 319.61 129.67 293.93
  Q 98.29 248.09 66.86 202.25
  A 0.26 0.26 0.0 0 0 66.38 202.40
  Z"
/>
<path fill="#000000" d="
  M 160.32 243.25
  L 223.68 243.25
  A 0.32 0.32 0.0 0 1 224.00 243.57
  L 224.00 249.18
  A 0.32 0.32 0.0 0 1 223.68 249.50
  L 160.32 249.50
  A 0.32 0.32 0.0 0 0 160.00 249.82
  L 160.00 298.18
  A 0.32 0.32 0.0 0 0 160.32 298.50
  L 228.68 298.50
  A 0.32 0.32 0.0 0 1 229.00 298.82
  L 229.00 304.43
  A 0.32 0.32 0.0 0 1 228.68 304.75
  L 153.07 304.75
  A 0.32 0.32 0.0 0 1 152.75 304.43
  L 152.75 192.82
  A 0.32 0.32 0.0 0 1 153.07 192.50
  L 227.68 192.50
  A 0.32 0.32 0.0 0 1 228.00 192.82
  L 228.00 198.43
  A 0.32 0.32 0.0 0 1 227.68 198.75
  L 160.32 198.75
  A 0.32 0.32 0.0 0 0 160.00 199.07
  L 160.00 242.93
  A 0.32 0.32 0.0 0 0 160.32 243.25
  Z"
/>
<path fill="#000000" d="
  M 365.93 198.75
  L 327.32 198.75
  A 0.32 0.32 0.0 0 1 327.00 198.43
  L 327.00 192.82
  A 0.32 0.32 0.0 0 1 327.32 192.50
  L 412.43 192.50
  A 0.32 0.32 0.0 0 1 412.75 192.82
  L 412.75 198.43
  A 0.32 0.32 0.0 0 1 412.43 198.75
  L 373.57 198.75
  A 0.32 0.32 0.0 0 0 373.25 199.07
  L 373.25 304.43
  A 0.32 0.32 0.0 0 1 372.93 304.75
  L 366.57 304.75
  A 0.32 0.32 0.0 0 1 366.25 304.43
  L 366.25 199.07
  A 0.32 0.32 0.0 0 0 365.93 198.75
  Z"
/>
<path fill="#000000" d="
  M 443.72 292.46
  C 449.55 296.46 456.79 289.62 450.80 287.46
  C 446.32 285.85 439.64 285.80 438.93 279.75
  C 437.81 270.15 454.70 268.41 456.71 278.45
  Q 456.82 279.00 456.25 279.00
  L 453.24 279.00
  Q 452.66 279.00 452.53 278.43
  C 451.52 274.13 445.50 274.89 443.30 277.38
  Q 442.97 277.76 442.98 278.27
  C 443.02 281.78 448.03 282.40 451.29 283.10
  C 456.50 284.22 458.68 289.37 455.85 293.77
  C 452.19 299.44 439.37 298.37 438.33 290.82
  Q 438.26 290.31 438.75 290.14
  Q 441.87 289.09 443.03 291.64
  A 2.07 2.00 5.9 0 0 443.72 292.46
  Z"
/>
<path fill="#000000" d="
  M 432.15 294.47
  C 428.68 299.30 418.81 297.93 418.58 290.77
  Q 418.56 290.25 419.08 290.25
  L 421.98 290.25
  Q 422.49 290.25 422.58 290.75
  C 423.12 293.74 427.11 294.42 428.65 292.45
  C 430.37 290.24 429.50 276.25 429.51 272.76
  Q 429.51 272.25 430.02 272.25
  L 432.99 272.25
  Q 433.50 272.25 433.50 272.77
  C 433.49 277.52 434.71 290.91 432.15 294.47
  Z"
/>
<circle fill="#000000" cx="411.90" cy="294.39" r="2.60"/>
</svg>
