<?xml version="1.0" encoding="UTF-8" standalone="no"?>
<!DOCTYPE svg PUBLIC "-//W3C//DTD SVG 1.1//EN" "http://www.w3.org/Graphics/SVG/1.1/DTD/svg11.dtd">
<svg xmlns="http://www.w3.org/2000/svg" version="1.1" viewBox="0.00 0.00 240.00 240.00">
<path fill="#7e57c2" d="
  M 86.00 150.61
  C 95.16 148.22 104.36 154.61 104.89 164.00
  C 106.11 185.35 72.65 185.16 75.18 162.21
  Q 75.23 161.71 74.92 161.31
  C 51.36 130.78 48.87 87.14 66.55 53.30
  C 80.55 26.51 110.11 10.27 138.61 26.75
  C 158.65 38.33 169.76 61.37 173.48 83.34
  A 0.29 0.29 0.0 0 1 173.08 83.66
  L 157.38 77.49
  Q 156.92 77.31 156.79 76.84
  C 150.87 55.15 132.68 28.76 106.41 36.27
  C 91.41 40.55 80.69 55.20 75.51 69.76
  C 66.17 95.99 68.46 127.37 85.20 150.33
  Q 85.50 150.74 86.00 150.61
  Z"
/>
<path fill="#7e57c2" d="
  M 118.71 100.84
  C 116.09 107.14 109.12 110.91 102.60 109.76
  C 89.74 107.48 85.44 91.01 96.10 82.97
  C 102.29 78.31 110.97 79.33 116.17 85.22
  Q 116.50 85.59 116.99 85.54
  C 153.78 82.09 190.05 102.07 210.68 131.53
  C 221.07 146.37 227.79 165.62 223.56 183.68
  C 217.35 210.15 191.31 221.52 166.24 219.74
  Q 149.07 218.53 133.34 211.61
  A 0.17 0.16 37.2 0 1 133.30 211.33
  L 146.38 200.93
  Q 146.71 200.67 147.12 200.79
  C 167.64 207.26 198.89 208.37 207.98 183.51
  C 212.61 170.83 208.54 155.28 201.28 143.98
  C 184.07 117.20 152.06 97.89 119.49 100.28
  Q 118.93 100.32 118.71 100.84
  Z"
/>
<path fill="#7e57c2" d="
  M 147.75 153.49
  C 136.99 136.52 160.87 120.53 172.47 136.75
  C 179.01 145.89 172.53 157.63 162.19 159.66
  Q 161.70 159.75 161.47 160.20
  C 144.99 192.55 112.66 216.18 76.00 219.49
  Q 56.10 221.28 39.98 213.27
  C 20.11 203.39 11.55 181.79 16.47 160.22
  Q 22.33 134.49 43.04 115.69
  Q 43.21 115.54 43.25 115.77
  L 46.65 132.80
  Q 46.75 133.32 46.40 133.71
  C 31.99 149.89 21.35 178.37 39.61 194.99
  C 50.15 204.59 65.81 206.43 79.76 204.03
  C 108.60 199.07 134.19 180.67 147.79 154.45
  A 0.96 0.95 42.8 0 0 147.75 153.49
  Z"
/>
</svg>
