<?xml version="1.0" encoding="UTF-8" standalone="no"?>
<!DOCTYPE svg PUBLIC "-//W3C//DTD SVG 1.1//EN" "http://www.w3.org/Graphics/SVG/1.1/DTD/svg11.dtd">
<svg xmlns="http://www.w3.org/2000/svg" version="1.1" viewBox="0.00 0.00 1280.00 960.00">
<path fill="#cd6799" d="
  M 0.00 397.19
  L 0.00 387.69
  C 5.64 324.39 44.31 269.15 86.94 224.07
  C 122.54 186.42 166.01 153.25 210.00 125.99
  Q 308.64 64.87 418.45 27.58
  C 486.22 4.57 560.67 -5.34 632.00 3.52
  C 683.03 9.86 738.66 27.84 774.02 67.39
  C 809.98 107.61 812.51 166.25 797.04 215.28
  C 768.08 307.00 689.13 380.18 599.85 412.47
  C 534.70 436.04 459.31 449.35 390.36 436.78
  C 358.95 431.05 324.49 413.86 305.51 387.33
  C 300.96 380.98 286.59 357.06 300.98 353.49
  Q 301.46 353.37 301.93 353.55
  Q 305.12 354.82 307.57 357.43
  C 311.90 362.03 317.76 368.21 323.36 372.24
  C 356.36 396.04 399.75 401.28 439.07 397.42
  C 485.74 392.83 531.86 380.03 574.32 360.10
  C 639.17 329.68 706.48 274.49 730.45 204.49
  C 740.63 174.77 741.78 136.51 716.94 113.04
  C 696.53 93.76 664.08 84.15 636.50 80.51
  Q 599.31 75.60 561.93 78.90
  C 452.45 88.55 350.20 135.13 258.34 192.86
  C 189.47 236.15 99.91 306.18 95.80 396.06
  C 92.69 464.21 149.95 511.60 197.76 548.48
  C 231.84 574.77 266.75 600.65 296.48 631.95
  Q 296.83 632.32 297.27 632.08
  Q 359.77 597.91 422.25 563.68
  Q 424.26 562.57 425.65 560.69
  Q 453.83 522.24 494.55 499.04
  C 513.52 488.23 543.89 478.45 562.89 493.85
  C 582.99 510.12 580.95 546.62 576.23 568.86
  Q 575.95 570.20 576.61 569.00
  L 577.18 567.95
  Q 577.43 567.49 577.85 567.18
  C 584.29 562.29 588.78 559.14 596.73 559.97
  C 606.70 561.01 617.93 566.49 619.98 577.30
  Q 620.64 580.78 618.62 588.28
  C 608.02 627.50 597.30 666.71 588.90 706.47
  Q 585.17 724.15 586.29 742.99
  Q 586.48 746.33 587.65 748.96
  A 0.56 0.55 55.5 0 0 588.55 749.13
  Q 592.71 744.92 595.96 738.70
  Q 612.35 707.34 623.22 683.52
  Q 663.69 594.85 702.54 505.46
  Q 706.64 496.04 708.73 490.46
  C 713.41 477.95 716.13 465.69 719.49 453.25
  C 720.67 448.90 721.68 447.11 725.90 445.04
  C 738.40 438.94 795.25 430.64 799.12 450.02
  Q 799.60 452.45 798.28 456.29
  C 788.54 484.53 781.23 507.33 784.03 535.71
  C 785.26 548.22 786.60 560.61 791.29 571.98
  Q 797.17 586.25 804.28 599.78
  Q 804.53 600.26 804.81 599.80
  Q 832.21 554.86 856.80 508.31
  C 867.52 488.01 878.48 467.99 883.55 446.28
  Q 887.44 429.65 892.91 413.47
  C 894.09 409.99 896.07 408.37 899.23 406.97
  C 913.94 400.45 960.37 393.89 971.21 409.78
  C 972.44 411.59 972.53 414.72 971.70 416.98
  C 962.33 442.65 953.13 471.44 956.97 498.99
  C 958.12 507.25 958.89 516.54 960.90 523.91
  C 965.99 542.51 976.43 561.06 985.52 578.37
  A 0.25 0.24 -27.1 0 0 985.84 578.47
  Q 1059.99 543.02 1141.74 554.73
  C 1210.21 564.55 1281.45 617.42 1279.02 693.53
  C 1278.22 718.59 1267.35 740.02 1247.69 755.95
  C 1238.49 763.41 1223.38 773.58 1211.31 772.44
  C 1205.69 771.90 1206.77 764.45 1210.63 762.08
  C 1241.63 743.02 1260.89 716.67 1248.95 678.65
  C 1234.36 632.17 1187.16 607.86 1142.34 599.31
  C 1095.03 590.29 1044.37 592.40 999.59 610.44
  A 0.61 0.61 0.0 0 0 999.25 611.24
  C 1008.77 634.76 1014.57 663.49 1004.34 687.57
  C 992.27 715.98 962.91 739.12 935.64 751.89
  C 927.84 755.54 918.31 758.86 909.56 762.06
  C 894.15 767.69 875.25 768.45 865.04 752.83
  C 851.75 732.49 866.34 694.89 877.63 676.35
  Q 900.28 639.12 934.26 611.81
  Q 934.67 611.48 934.44 611.00
  C 926.27 593.85 917.52 577.93 911.81 559.05
  Q 904.38 534.47 899.73 509.15
  A 0.32 0.32 0.0 0 0 899.13 509.07
  Q 865.64 576.73 822.92 638.97
  A 1.03 1.03 0.0 0 0 822.83 639.98
  C 842.84 683.67 845.64 732.10 808.36 767.09
  C 795.11 779.53 777.83 788.59 760.66 795.58
  C 742.44 802.99 681.35 819.97 672.43 792.00
  C 667.54 776.64 685.71 757.43 694.78 746.52
  C 719.05 717.32 744.22 688.45 765.86 657.92
  A 0.98 0.97 -40.8 0 0 765.94 656.92
  C 754.17 633.41 742.59 610.74 735.58 584.30
  Q 730.66 565.70 727.35 546.91
  A 0.29 0.29 0.0 0 0 726.80 546.85
  C 707.89 594.71 687.41 642.56 664.17 688.35
  Q 640.20 735.59 614.09 781.69
  C 604.89 797.94 584.84 824.79 563.67 825.27
  C 537.02 825.87 529.53 793.77 528.58 773.67
  Q 527.38 748.50 531.32 722.70
  A 0.17 0.16 -30.3 0 0 531.00 722.62
  Q 514.65 763.26 494.59 802.12
  C 484.99 820.71 473.05 840.41 450.07 842.53
  C 435.36 843.90 421.47 840.86 411.56 829.18
  C 385.78 798.82 375.45 750.91 376.67 711.99
  Q 376.99 701.97 380.50 677.25
  Q 384.31 650.51 393.25 625.17
  A 0.33 0.32 85.7 0 0 392.79 624.77
  Q 356.82 644.35 321.72 665.43
  Q 321.32 665.67 321.52 666.08
  C 341.12 706.31 341.59 757.25 331.43 799.84
  C 317.51 858.21 278.97 906.85 226.56 935.55
  C 183.87 958.92 132.57 966.47 86.49 952.78
  C 73.47 948.91 61.58 935.04 55.17 923.61
  C 29.93 878.55 42.39 822.09 73.40 783.67
  C 88.39 765.09 106.25 749.38 126.70 733.99
  C 165.82 704.55 207.10 681.19 250.52 658.82
  A 0.67 0.67 0.0 0 0 250.64 657.70
  Q 232.81 643.01 213.62 629.66
  C 156.52 589.95 95.96 551.29 49.61 498.65
  C 24.71 470.37 3.85 435.39 0.00 397.19
  Z
  M 527.27 538.00
  C 507.58 546.30 493.44 562.96 482.20 581.45
  Q 469.58 602.20 461.42 620.57
  Q 440.36 667.93 441.88 719.95
  C 442.20 730.69 444.39 757.03 453.72 764.03
  C 466.85 773.88 488.36 719.12 492.67 708.11
  C 510.73 662.03 528.84 616.59 541.74 568.70
  C 543.29 562.93 547.39 545.79 544.69 540.26
  C 541.70 534.14 532.07 535.97 527.27 538.00
  Z
  M 904.60 725.14
  A 0.30 0.29 61.6 0 0 904.93 725.24
  C 929.88 716.79 950.15 698.97 955.28 671.76
  Q 958.89 652.59 953.35 635.73
  Q 953.16 635.17 952.71 635.55
  Q 924.31 660.05 910.39 694.54
  C 907.48 701.74 899.87 718.68 904.60 725.14
  Z
  M 121.41 865.39
  C 126.91 897.35 168.05 888.37 187.51 880.27
  C 217.27 867.88 241.90 846.72 260.10 820.08
  C 287.83 779.47 294.41 733.09 281.71 685.11
  A 0.40 0.39 -22.3 0 0 281.13 684.87
  C 241.96 707.56 204.67 732.09 170.50 761.87
  C 142.79 786.01 114.71 826.46 121.41 865.39
  Z
  M 721.33 767.74
  C 725.81 768.70 731.19 765.87 734.87 763.58
  C 759.76 748.05 784.25 724.60 783.95 692.86
  Q 783.94 691.50 783.13 692.59
  C 764.21 717.95 747.54 736.75 721.66 765.16
  Q 720.93 765.96 720.71 766.69
  A 0.83 0.83 0.0 0 0 721.33 767.74
  Z"
/>
</svg>
