<?xml version="1.0" encoding="UTF-8" standalone="no"?>
<!DOCTYPE svg PUBLIC "-//W3C//DTD SVG 1.1//EN" "http://www.w3.org/Graphics/SVG/1.1/DTD/svg11.dtd">
<svg xmlns="http://www.w3.org/2000/svg" version="1.1" viewBox="0.00 0.00 240.00 240.00">
<g stroke-width="2.00" fill="none" stroke-linecap="butt">
<path stroke="#00b4d2" vector-effect="non-scaling-stroke" d="
  M 170.79 69.58
  Q 172.90 73.63 176.60 76.56
  A 0.34 0.34 0.0 0 1 176.22 77.12
  L 175.95 76.96
  Q 175.74 76.83 175.54 76.97
  C 172.73 78.87 169.23 77.79 166.05 78.59
  C 163.25 79.31 160.64 78.98 157.89 79.92
  C 156.13 80.53 154.70 79.78 152.75 80.41
  C 149.72 81.41 146.82 80.73 143.72 81.65
  C 140.95 82.47 138.49 81.95 135.67 83.06
  A 2.10 2.06 37.2 0 1 134.63 83.19
  Q 131.45 82.77 128.49 84.14
  A 1.52 1.46 -52.4 0 1 127.62 84.27
  Q 122.38 83.55 117.98 86.50
  Q 117.57 86.78 117.24 86.40
  Q 116.36 85.34 115.54 85.18"
/>
<path stroke="#00a6c3" vector-effect="non-scaling-stroke" d="
  M 110.90 141.73
  Q 112.10 144.69 116.13 147.98
  A 0.47 0.47 0.0 0 1 115.81 148.82
  Q 111.65 148.61 107.23 149.68
  C 105.28 150.16 103.57 149.86 101.63 150.39
  C 98.67 151.21 95.61 150.92 92.84 151.47
  Q 88.01 152.41 83.09 152.88
  C 80.72 153.11 78.31 153.83 75.78 154.01
  C 70.51 154.39 65.71 155.37 60.66 156.05
  Q 60.00 156.14 60.00 155.48
  L 60.00 154.51
  Q 60.00 153.95 59.46 154.07
  Q 57.31 154.57 55.38 157.09"
/>
</g>
<path fill="#00bad8" d="
  M 170.79 69.58
  Q 172.90 73.63 176.60 76.56
  A 0.34 0.34 0.0 0 1 176.22 77.12
  L 175.95 76.96
  Q 175.74 76.83 175.54 76.97
  C 172.73 78.87 169.23 77.79 166.05 78.59
  C 163.25 79.31 160.64 78.98 157.89 79.92
  C 156.13 80.53 154.70 79.78 152.75 80.41
  C 149.72 81.41 146.82 80.73 143.72 81.65
  C 140.95 82.47 138.49 81.95 135.67 83.06
  A 2.10 2.06 37.2 0 1 134.63 83.19
  Q 131.45 82.77 128.49 84.14
  A 1.52 1.46 -52.4 0 1 127.62 84.27
  Q 122.38 83.55 117.98 86.50
  Q 117.57 86.78 117.24 86.40
  Q 116.36 85.34 115.54 85.18
  Q 95.70 70.13 74.53 82.14
  C 72.54 83.26 67.47 88.40 65.33 87.91
  C 63.54 87.50 63.29 85.90 63.91 84.30
  Q 75.83 53.29 109.24 48.86
  Q 146.30 43.94 170.79 69.58
  Z"
/>
<path fill="#00aecc" d="
  M 170.79 69.58
  Q 177.42 76.45 184.27 82.30
  C 196.69 92.93 212.25 94.08 226.22 85.34
  C 228.32 84.02 230.59 82.04 232.72 80.34
  Q 233.12 80.03 233.62 80.01
  C 236.47 79.91 236.80 81.91 235.93 84.13
  C 224.71 113.03 198.38 122.86 169.26 119.18
  C 145.14 116.14 133.24 102.63 115.54 85.18
  Q 116.36 85.34 117.24 86.40
  Q 117.57 86.78 117.98 86.50
  Q 122.38 83.55 127.62 84.27
  A 1.52 1.46 -52.4 0 0 128.49 84.14
  Q 131.45 82.77 134.63 83.19
  A 2.10 2.06 37.2 0 0 135.67 83.06
  C 138.49 81.95 140.95 82.47 143.72 81.65
  C 146.82 80.73 149.72 81.41 152.75 80.41
  C 154.70 79.78 156.13 80.53 157.89 79.92
  C 160.64 78.98 163.25 79.31 166.05 78.59
  C 169.23 77.79 172.73 78.87 175.54 76.97
  Q 175.74 76.83 175.95 76.96
  L 176.22 77.12
  A 0.34 0.34 0.0 0 0 176.60 76.56
  Q 172.90 73.63 170.79 69.58
  Z"
/>
<path fill="#00aecc" d="
  M 110.90 141.73
  Q 112.10 144.69 116.13 147.98
  A 0.47 0.47 0.0 0 1 115.81 148.82
  Q 111.65 148.61 107.23 149.68
  C 105.28 150.16 103.57 149.86 101.63 150.39
  C 98.67 151.21 95.61 150.92 92.84 151.47
  Q 88.01 152.41 83.09 152.88
  C 80.72 153.11 78.31 153.83 75.78 154.01
  C 70.51 154.39 65.71 155.37 60.66 156.05
  Q 60.00 156.14 60.00 155.48
  L 60.00 154.51
  Q 60.00 153.95 59.46 154.07
  Q 57.31 154.57 55.38 157.09
  C 39.30 144.76 22.95 146.84 7.92 159.11
  C 6.75 160.07 5.66 160.41 4.42 159.47
  A 2.21 2.21 0.0 0 1 3.67 156.96
  C 12.79 131.63 34.62 119.38 61.25 119.99
  C 80.72 120.43 97.48 127.23 110.90 141.73
  Z"
/>
<path fill="#009dba" d="
  M 110.90 141.73
  C 117.57 148.65 125.99 157.52 134.80 160.85
  C 148.99 166.20 161.33 161.99 172.64 152.35
  Q 173.02 152.03 173.52 152.00
  C 176.31 151.84 176.87 153.59 176.01 155.89
  C 166.18 182.24 142.53 193.34 115.48 191.99
  Q 90.33 190.73 72.35 173.40
  Q 63.71 165.07 55.38 157.09
  Q 57.31 154.57 59.46 154.07
  Q 60.00 153.95 60.00 154.51
  L 60.00 155.48
  Q 60.00 156.14 60.66 156.05
  C 65.71 155.37 70.51 154.39 75.78 154.01
  C 78.31 153.83 80.72 153.11 83.09 152.88
  Q 88.01 152.41 92.84 151.47
  C 95.61 150.92 98.67 151.21 101.63 150.39
  C 103.57 149.86 105.28 150.16 107.23 149.68
  Q 111.65 148.61 115.81 148.82
  A 0.47 0.47 0.0 0 0 116.13 147.98
  Q 112.10 144.69 110.90 141.73
  Z"
/>
</svg>
