<?xml version="1.0" encoding="UTF-8" standalone="no"?>
<!DOCTYPE svg PUBLIC "-//W3C//DTD SVG 1.1//EN" "http://www.w3.org/Graphics/SVG/1.1/DTD/svg11.dtd">
<svg xmlns="http://www.w3.org/2000/svg" version="1.1" viewBox="0.00 0.00 240.00 240.00">
<g stroke-width="2.00" fill="none" stroke-linecap="butt">
<path stroke="#78b3d6" vector-effect="non-scaling-stroke" d="
  M 119.84 65.02
  L 74.52 65.03
  Q 74.02 65.03 74.06 65.53
  L 75.46 84.53
  A 0.49 0.49 0.0 0 0 75.95 84.99
  L 119.84 84.99"
/>
<path stroke="#81bbde" vector-effect="non-scaling-stroke" d="
  M 119.84 84.99
  Q 120.56 85.08 120.02 85.01"
/>
<path stroke="#0389d1" vector-effect="non-scaling-stroke" d="
  M 120.02 85.01
  L 119.84 105.02"
/>
<path stroke="#78b3d6" vector-effect="non-scaling-stroke" d="
  M 119.84 105.02
  L 97.50 105.04
  Q 97.00 105.05 97.03 105.54
  L 97.99 124.46
  A 0.51 0.51 0.0 0 0 98.50 124.95
  L 119.87 124.96"
/>
<path stroke="#81bbde" vector-effect="non-scaling-stroke" d="
  M 119.87 124.96
  Q 120.04 125.00 120.06 125.04"
/>
<path stroke="#0389d1" vector-effect="non-scaling-stroke" d="
  M 120.06 125.04
  L 120.00 152.40
  Q 120.00 152.88 119.84 153.34
  Q 119.70 153.75 119.69 154.36"
/>
<path stroke="#78b3d6" vector-effect="non-scaling-stroke" d="
  M 119.69 154.36
  L 100.03 147.69
  Q 99.53 147.53 99.51 147.01
  L 98.97 135.47
  Q 98.95 135.00 98.47 135.00
  L 79.52 135.00
  Q 79.03 135.00 79.06 135.48
  L 80.51 161.99
  A 0.69 0.68 8.1 0 0 80.98 162.61
  L 119.80 175.34"
/>
<path stroke="#81bbde" vector-effect="non-scaling-stroke" d="
  M 119.80 175.34
  Q 119.64 174.92 120.05 175.48"
/>
<path stroke="#0389d1" vector-effect="non-scaling-stroke" d="
  M 120.05 175.48
  L 120.07 198.77
  Q 120.07 199.48 120.76 199.29
  L 175.23 183.75
  A 1.13 1.12 84.7 0 0 176.04 182.77
  L 188.45 40.40
  A 0.37 0.37 0.0 0 0 188.08 40.00
  L 120.74 40.00
  A 0.80 0.80 0.0 0 0 119.94 40.79
  L 119.84 65.02"
/>
<path stroke="#81cdf2" vector-effect="non-scaling-stroke" d="
  M 120.05 175.48
  L 159.02 162.63
  Q 159.47 162.49 159.50 162.01
  L 165.43 65.49
  Q 165.46 65.02 164.99 65.02
  L 119.84 65.02"
/>
<path stroke="#f7f7f7" vector-effect="non-scaling-stroke" d="
  M 119.84 65.02
  L 119.84 84.99"
/>
<path stroke="#f7f7f7" vector-effect="non-scaling-stroke" d="
  M 119.80 175.34
  L 119.90 154.52"
/>
<path stroke="#81cdf2" vector-effect="non-scaling-stroke" d="
  M 119.90 154.52
  L 140.02 147.64
  Q 140.48 147.48 140.52 146.99
  L 141.92 125.53
  A 0.44 0.44 0.0 0 0 141.48 125.05
  L 120.06 125.04"
/>
<path stroke="#f7f7f7" vector-effect="non-scaling-stroke" d="
  M 119.87 124.96
  L 119.84 105.02"
/>
<path stroke="#81cdf2" vector-effect="non-scaling-stroke" d="
  M 119.84 105.02
  L 142.05 105.00
  Q 142.99 105.00 143.06 104.05
  L 144.45 85.50
  A 0.46 0.45 2.3 0 0 143.99 85.01
  L 120.02 85.01"
/>
<path stroke="#79c5ea" vector-effect="non-scaling-stroke" d="
  M 119.90 154.52
  L 119.69 154.36"
/>
</g>
<path fill="#0277bd" d="
  M 49.97 194.75
  L 35.03 25.34
  A 0.31 0.31 0.0 0 1 35.34 25.00
  L 204.65 25.00
  A 0.31 0.31 0.0 0 1 204.96 25.34
  L 190.01 194.83
  A 0.31 0.31 0.0 0 1 189.79 195.10
  L 120.19 214.98
  A 0.31 0.31 0.0 0 1 120.01 214.98
  L 50.19 195.02
  A 0.31 0.31 0.0 0 1 49.97 194.75
  Z
  M 119.84 65.02
  L 74.52 65.03
  Q 74.02 65.03 74.06 65.53
  L 75.46 84.53
  A 0.49 0.49 0.0 0 0 75.95 84.99
  L 119.84 84.99
  Q 120.56 85.08 120.02 85.01
  L 119.84 105.02
  L 97.50 105.04
  Q 97.00 105.05 97.03 105.54
  L 97.99 124.46
  A 0.51 0.51 0.0 0 0 98.50 124.95
  L 119.87 124.96
  Q 120.04 125.00 120.06 125.04
  L 120.00 152.40
  Q 120.00 152.88 119.84 153.34
  Q 119.70 153.75 119.69 154.36
  L 100.03 147.69
  Q 99.53 147.53 99.51 147.01
  L 98.97 135.47
  Q 98.95 135.00 98.47 135.00
  L 79.52 135.00
  Q 79.03 135.00 79.06 135.48
  L 80.51 161.99
  A 0.69 0.68 8.1 0 0 80.98 162.61
  L 119.80 175.34
  Q 119.64 174.92 120.05 175.48
  L 120.07 198.77
  Q 120.07 199.48 120.76 199.29
  L 175.23 183.75
  A 1.13 1.12 84.7 0 0 176.04 182.77
  L 188.45 40.40
  A 0.37 0.37 0.0 0 0 188.08 40.00
  L 120.74 40.00
  A 0.80 0.80 0.0 0 0 119.94 40.79
  L 119.84 65.02
  Z"
/>
<path fill="#039be5" d="
  M 120.05 175.48
  L 159.02 162.63
  Q 159.47 162.49 159.50 162.01
  L 165.43 65.49
  Q 165.46 65.02 164.99 65.02
  L 119.84 65.02
  L 119.94 40.79
  A 0.80 0.80 0.0 0 1 120.74 40.00
  L 188.08 40.00
  A 0.37 0.37 0.0 0 1 188.45 40.40
  L 176.04 182.77
  A 1.13 1.12 84.7 0 1 175.23 183.75
  L 120.76 199.29
  Q 120.07 199.48 120.07 198.77
  L 120.05 175.48
  Z"
/>
<path fill="#eeeeee" d="
  M 119.84 65.02
  L 119.84 84.99
  L 75.95 84.99
  A 0.49 0.49 0.0 0 1 75.46 84.53
  L 74.06 65.53
  Q 74.02 65.03 74.52 65.03
  L 119.84 65.02
  Z"
/>
<path fill="#ffffff" d="
  M 119.84 65.02
  L 164.99 65.02
  Q 165.46 65.02 165.43 65.49
  L 159.50 162.01
  Q 159.47 162.49 159.02 162.63
  L 120.05 175.48
  Q 119.64 174.92 119.80 175.34
  L 119.90 154.52
  L 140.02 147.64
  Q 140.48 147.48 140.52 146.99
  L 141.92 125.53
  A 0.44 0.44 0.0 0 0 141.48 125.05
  L 120.06 125.04
  Q 120.04 125.00 119.87 124.96
  L 119.84 105.02
  L 142.05 105.00
  Q 142.99 105.00 143.06 104.05
  L 144.45 85.50
  A 0.46 0.45 2.3 0 0 143.99 85.01
  L 120.02 85.01
  Q 120.56 85.08 119.84 84.99
  L 119.84 65.02
  Z"
/>
<path fill="#039be5" d="
  M 120.02 85.01
  L 143.99 85.01
  A 0.46 0.45 2.3 0 1 144.45 85.50
  L 143.06 104.05
  Q 142.99 105.00 142.05 105.00
  L 119.84 105.02
  L 120.02 85.01
  Z"
/>
<path fill="#eeeeee" d="
  M 119.84 105.02
  L 119.87 124.96
  L 98.50 124.95
  A 0.51 0.51 0.0 0 1 97.99 124.46
  L 97.03 105.54
  Q 97.00 105.05 97.50 105.04
  L 119.84 105.02
  Z"
/>
<path fill="#039be5" d="
  M 120.06 125.04
  L 141.48 125.05
  A 0.44 0.44 0.0 0 1 141.92 125.53
  L 140.52 146.99
  Q 140.48 147.48 140.02 147.64
  L 119.90 154.52
  L 119.69 154.36
  Q 119.70 153.75 119.84 153.34
  Q 120.00 152.88 120.00 152.40
  L 120.06 125.04
  Z"
/>
<path fill="#eeeeee" d="
  M 119.69 154.36
  L 119.90 154.52
  L 119.80 175.34
  L 80.98 162.61
  A 0.69 0.68 8.1 0 1 80.51 161.99
  L 79.06 135.48
  Q 79.03 135.00 79.52 135.00
  L 98.47 135.00
  Q 98.95 135.00 98.97 135.47
  L 99.51 147.01
  Q 99.53 147.53 100.03 147.69
  L 119.69 154.36
  Z"
/>
</svg>
