<?xml version="1.0" encoding="UTF-8" standalone="no"?>
<!DOCTYPE svg PUBLIC "-//W3C//DTD SVG 1.1//EN" "http://www.w3.org/Graphics/SVG/1.1/DTD/svg11.dtd">
<svg xmlns="http://www.w3.org/2000/svg" version="1.1" viewBox="0.00 0.00 240.00 240.00">
<g stroke-width="2.00" fill="none" stroke-linecap="butt">
<path stroke="#f35d2e" vector-effect="non-scaling-stroke" d="
  M 125.03 15.01
  L 125.00 85.03"
/>
<path stroke="#b14c8c" vector-effect="non-scaling-stroke" d="
  M 125.00 85.03
  L 86.07 85.04"
/>
<path stroke="#94939d" vector-effect="non-scaling-stroke" d="
  M 163.48 84.94
  L 154.88 85.20"
/>
<path stroke="#7184b5" vector-effect="non-scaling-stroke" d="
  M 125.02 155.07
  L 87.40 154.99"
/>
<path stroke="#5382fb" vector-effect="non-scaling-stroke" d="
  M 125.23 123.70
  L 125.23 115.96"
/>
</g>
<path fill="#e64a19" d="
  M 125.03 15.01
  L 125.00 85.03
  L 86.07 85.04
  Q 68.64 81.88 60.58 68.93
  C 47.96 48.65 58.15 22.21 81.26 16.22
  Q 85.83 15.04 95.95 15.01
  Q 110.67 14.98 125.03 15.01
  Z"
/>
<path fill="#ff7043" d="
  M 125.03 15.01
  Q 142.65 15.00 159.76 14.99
  C 193.07 14.97 208.08 57.93 180.85 77.99
  Q 173.47 83.42 163.48 84.94
  L 154.88 85.20
  L 125.00 85.03
  L 125.03 15.01
  Z"
/>
<path fill="#29b6f6" d="
  M 163.48 84.94
  Q 182.47 88.27 190.52 103.17
  C 206.30 132.35 177.02 164.88 146.40 152.10
  C 136.98 148.17 127.97 138.90 126.16 128.05
  Q 125.80 125.89 125.23 123.70
  L 125.23 115.96
  Q 129.50 90.93 154.88 85.20
  L 163.48 84.94
  Z"
/>
<path fill="#7c4dff" d="
  M 125.00 85.03
  L 125.23 115.96
  L 125.23 123.70
  L 125.02 155.07
  L 87.40 154.99
  Q 75.58 153.54 67.42 146.64
  C 50.45 132.30 51.05 105.40 69.05 92.09
  Q 76.26 86.76 86.07 85.04
  L 125.00 85.03
  Z"
/>
<path fill="#66bb6a" d="
  M 87.40 154.99
  L 125.02 155.07
  Q 125.00 172.51 124.93 189.50
  C 124.84 216.37 96.46 233.99 72.54 220.20
  C 42.62 202.95 53.21 159.06 87.40 154.99
  Z"
/>
</svg>
