<?xml version="1.0" encoding="UTF-8" standalone="no"?>
<!DOCTYPE svg PUBLIC "-//W3C//DTD SVG 1.1//EN" "http://www.w3.org/Graphics/SVG/1.1/DTD/svg11.dtd">
<svg xmlns="http://www.w3.org/2000/svg" version="1.1" viewBox="0.00 0.00 512.00 512.00">
<path fill="#000000" d="
  M 512.00 259.08
  L 512.00 264.55
  Q 511.44 285.26 508.98 301.99
  C 495.50 393.82 428.88 473.01 341.77 503.44
  Q 334.73 505.89 330.95 505.64
  C 321.82 505.04 319.70 497.75 319.72 489.58
  Q 319.82 455.82 319.65 422.06
  C 319.56 404.91 315.78 388.02 302.92 375.85
  A 0.48 0.48 0.0 0 1 303.20 375.02
  C 329.12 372.28 352.89 366.38 375.30 351.56
  C 411.14 327.87 421.08 281.62 418.86 241.46
  C 417.60 218.71 409.09 197.91 393.60 181.14
  A 1.73 1.72 34.4 0 1 393.26 179.36
  C 401.61 157.65 399.27 134.51 390.35 112.79
  Q 390.17 112.35 389.71 112.23
  C 381.17 110.09 371.28 112.91 363.06 116.10
  Q 340.60 124.80 320.52 138.35
  A 1.15 1.14 -54.3 0 1 319.57 138.51
  Q 256.01 121.52 192.45 138.51
  Q 191.95 138.64 191.51 138.35
  Q 169.22 123.21 143.70 114.51
  C 136.45 112.04 128.83 110.80 121.89 112.19
  Q 121.40 112.29 121.22 112.75
  C 112.75 134.74 110.29 157.46 118.91 179.88
  Q 119.10 180.37 118.75 180.75
  Q 94.76 206.91 93.01 241.00
  C 91.28 274.82 98.43 315.40 122.70 340.20
  C 144.95 362.94 177.71 371.73 208.30 375.03
  Q 209.39 375.15 208.63 375.95
  Q 195.54 389.56 193.41 408.47
  A 1.66 1.64 81.5 0 1 192.44 409.79
  Q 177.35 416.39 160.50 416.36
  C 144.65 416.33 130.74 406.71 122.33 393.72
  Q 116.78 385.15 115.16 383.08
  C 106.58 372.15 93.01 362.80 78.75 362.10
  C 58.83 361.11 72.22 374.37 78.66 378.25
  C 91.46 385.98 99.72 399.93 105.41 413.38
  Q 109.11 422.14 110.80 424.71
  C 118.07 435.74 129.89 442.70 143.00 445.26
  Q 167.11 449.96 191.44 445.47
  A 0.71 0.70 -5.5 0 1 192.28 446.15
  Q 192.57 468.85 192.54 491.78
  C 192.54 498.99 189.00 505.02 181.44 505.66
  Q 177.37 506.00 168.37 502.79
  C 74.58 469.26 7.65 381.10 0.97 281.73
  Q 0.41 273.35 0.00 264.93
  L 0.00 259.19
  Q 0.40 253.10 0.72 247.02
  C 5.49 155.98 58.90 75.80 139.44 34.19
  C 204.91 0.36 285.13 -2.70 352.94 25.05
  C 448.29 64.06 510.42 156.22 512.00 259.08
  Z"
/>
</svg>
