<?xml version="1.0" encoding="UTF-8" standalone="no"?>
<!DOCTYPE svg PUBLIC "-//W3C//DTD SVG 1.1//EN" "http://www.w3.org/Graphics/SVG/1.1/DTD/svg11.dtd">
<svg xmlns="http://www.w3.org/2000/svg" version="1.1" viewBox="0.00 0.00 958.00 960.00">
<g stroke-width="2.00" fill="none" stroke-linecap="butt">
<path stroke="#808080" vector-effect="non-scaling-stroke" d="
  M 958.00 958.98
  L 0.00 958.94"
/>
<path stroke="#808080" vector-effect="non-scaling-stroke" d="
  M 169.65 433.32
  C 183.13 553.29 263.99 654.60 377.62 694.46
  C 386.38 697.53 396.44 696.39 400.28 687.50
  Q 401.80 684.01 401.71 674.22
  Q 401.48 648.53 401.18 622.69
  Q 401.18 622.13 400.62 622.24
  C 361.64 630.25 311.89 626.34 295.56 582.20
  Q 289.85 566.78 277.78 552.44
  Q 271.38 544.84 267.70 542.55
  C 264.85 540.78 242.93 527.46 252.06 522.55
  C 264.35 515.94 282.52 523.23 292.65 530.88
  C 301.31 537.42 306.51 543.77 312.74 553.72
  C 333.41 586.75 367.33 594.55 402.36 578.18
  Q 402.82 577.97 402.90 577.47
  C 405.44 561.46 410.49 548.01 421.95 536.25
  Q 422.40 535.79 421.76 535.73
  C 389.16 532.40 354.25 524.01 328.26 502.97
  C 292.09 473.68 280.91 428.66 280.70 383.82
  C 280.55 351.03 290.34 322.16 312.26 297.43
  Q 312.59 297.05 312.43 296.57
  C 303.06 269.81 305.12 240.62 315.52 214.53
  A 1.65 1.65 0.0 0 1 316.93 213.49
  C 345.96 211.18 377.31 230.33 400.87 245.82
  A 1.12 1.09 53.0 0 0 401.76 245.96
  Q 479.19 225.50 556.59 246.03
  Q 557.11 246.17 557.54 245.86
  C 579.37 230.47 614.32 210.34 641.68 213.63
  A 1.10 1.09 82.6 0 1 642.56 214.31
  C 652.87 240.70 655.24 269.37 645.66 296.45
  Q 645.49 296.94 645.83 297.32
  Q 677.38 332.61 677.52 380.52
  C 677.65 426.94 666.73 473.96 628.34 503.90
  C 602.43 524.10 567.41 532.44 535.53 535.76
  Q 535.01 535.81 535.39 536.18
  C 550.50 550.62 556.06 571.13 556.18 591.50
  Q 556.43 634.62 555.73 677.75
  C 555.48 693.08 566.26 699.30 579.83 694.51
  C 702.44 651.25 783.43 540.35 789.72 410.74
  C 797.31 254.40 685.41 113.97 530.92 88.18
  C 324.96 53.80 146.43 226.75 169.65 433.32"
/>
<path stroke="#808080" vector-effect="non-scaling-stroke" d="
  M 328.75 830.50
  L 328.75 850.70
  Q 328.75 851.09 328.36 851.17
  Q 318.40 853.28 310.71 851.51
  C 292.28 847.27 291.80 819.64 294.35 804.96
  C 298.66 780.12 322.78 779.85 341.69 786.02
  A 1.50 1.50 0.0 0 0 343.61 784.95
  L 347.61 768.12
  A 1.63 1.62 -68.7 0 0 346.83 766.33
  C 336.98 760.75 319.85 760.23 309.07 761.60
  C 287.45 764.34 275.55 777.30 271.60 798.32
  C 266.33 826.41 269.39 865.85 304.59 872.64
  C 320.37 875.68 337.22 874.31 351.22 866.09
  A 1.59 1.58 -15.2 0 0 352.01 864.72
  L 351.99 810.74
  A 1.25 1.24 0.0 0 0 350.74 809.50
  L 314.13 809.50
  Q 313.50 809.50 313.50 810.13
  L 313.50 828.72
  A 1.28 1.28 0.0 0 0 314.78 830.00
  L 328.25 830.00
  Q 328.75 830.00 328.75 830.50"
/>
<path stroke="#808080" vector-effect="non-scaling-stroke" d="
  M 508.25 826.75
  L 508.25 870.35
  A 1.66 1.65 0.0 0 0 509.91 872.00
  L 530.02 872.00
  A 1.33 1.33 0.0 0 0 531.35 870.67
  L 531.34 766.38
  A 1.30 1.30 0.0 0 0 530.05 765.08
  Q 520.06 764.95 510.49 764.86
  Q 508.22 764.84 508.23 767.07
  Q 508.25 785.74 508.25 804.49
  Q 508.25 805.00 507.74 805.00
  L 478.00 805.00
  A 0.50 0.50 0.0 0 1 477.50 804.50
  L 477.50 766.96
  Q 477.50 764.98 475.52 764.99
  L 455.47 765.05
  Q 454.49 765.05 454.49 766.03
  L 454.49 870.75
  A 1.26 1.25 0.0 0 0 455.75 872.00
  L 476.00 872.00
  A 1.50 1.50 0.0 0 0 477.50 870.50
  L 477.50 826.75
  Q 477.50 826.25 478.00 826.25
  L 507.75 826.25
  Q 508.25 826.25 508.25 826.75"
/>
<path stroke="#808080" vector-effect="non-scaling-stroke" d="
  M 636.37 866.75
  Q 649.45 875.87 665.54 873.72
  C 683.16 871.37 686.69 854.55 687.64 839.92
  C 688.83 821.67 686.17 798.55 662.84 796.95
  Q 652.04 796.22 642.06 801.36
  Q 641.51 801.65 641.51 801.02
  L 641.49 766.78
  Q 641.49 765.06 639.77 765.05
  Q 629.40 764.96 620.23 765.07
  Q 618.27 765.09 618.27 767.50
  Q 618.23 818.94 618.26 870.28
  A 1.72 1.72 0.0 0 0 619.98 872.00
  L 633.77 872.00
  A 1.66 1.65 -86.2 0 0 635.41 870.56
  L 635.87 866.97
  Q 635.94 866.45 636.37 866.75"
/>
<path stroke="#808080" vector-effect="non-scaling-stroke" d="
  M 387.69 780.36
  A 12.83 12.83 0.0 0 0 374.86 767.53
  A 12.83 12.83 0.0 0 0 362.03 780.36
  A 12.83 12.83 0.0 0 0 374.86 793.19
  A 12.83 12.83 0.0 0 0 387.69 780.36"
/>
<path stroke="#808080" vector-effect="non-scaling-stroke" d="
  M 394.44 818.24
  L 404.98 818.25
  A 0.55 0.55 0.0 0 1 405.53 818.80
  Q 405.41 835.08 405.60 851.29
  C 405.86 873.14 427.41 877.10 444.00 871.93
  Q 445.01 871.61 445.01 870.56
  L 444.97 856.53
  A 1.78 1.78 0.0 0 0 442.96 854.77
  C 436.33 855.63 427.97 855.37 428.05 846.24
  Q 428.16 832.55 428.33 818.79
  Q 428.33 818.32 428.80 818.32
  L 443.51 818.22
  Q 444.74 818.21 444.74 816.99
  L 444.72 800.52
  A 1.52 1.51 90.0 0 0 443.21 799.00
  L 428.75 799.00
  A 0.50 0.50 0.0 0 1 428.25 798.50
  L 428.25 778.85
  Q 428.25 778.26 427.66 778.26
  L 406.38 778.24
  A 0.88 0.88 0.0 0 0 405.50 779.12
  L 405.50 799.08
  Q 405.50 799.66 404.93 799.80
  L 394.71 802.26
  Q 393.50 802.55 393.50 803.79
  L 393.50 817.31
  A 0.94 0.93 -0.0 0 0 394.44 818.24"
/>
<path stroke="#808080" vector-effect="non-scaling-stroke" d="
  M 386.25 801.15
  A 2.16 2.16 0.0 0 0 384.09 798.99
  L 365.17 798.99
  A 2.16 2.16 0.0 0 0 363.01 801.15
  L 363.01 869.81
  A 2.16 2.16 0.0 0 0 365.17 871.97
  L 384.09 871.97
  A 2.16 2.16 0.0 0 0 386.25 869.81
  L 386.25 801.15"
/>
<path stroke="#808080" vector-effect="non-scaling-stroke" d="
  M 591.68 867.73
  L 592.58 871.52
  A 0.62 0.61 83.5 0 0 593.18 872.00
  L 606.47 872.00
  A 1.78 1.78 0.0 0 0 608.25 870.22
  L 608.25 800.90
  Q 608.25 799.25 606.59 799.25
  L 586.75 799.25
  Q 585.26 799.25 585.26 800.74
  L 585.25 851.02
  A 0.82 0.78 -16.5 0 1 584.86 851.70
  C 580.15 854.63 569.38 857.75 565.76 851.88
  Q 564.57 849.94 564.50 844.92
  Q 564.16 822.43 564.26 800.52
  A 1.26 1.26 0.0 0 0 563.00 799.25
  L 542.10 799.25
  A 1.10 1.09 -89.7 0 0 541.01 800.34
  Q 540.96 824.13 541.03 848.25
  C 541.06 859.95 544.93 870.25 557.28 872.99
  Q 574.85 876.88 590.94 867.42
  A 0.50 0.50 0.0 0 1 591.68 867.73"
/>
<path stroke="#808080" vector-effect="non-scaling-stroke" d="
  M 641.44 852.00
  Q 647.42 855.23 654.05 855.08
  C 662.88 854.87 663.88 848.99 664.65 841.30
  C 666.18 825.87 662.67 807.88 641.61 818.97
  A 0.62 0.61 76.7 0 0 641.28 819.52
  L 641.19 851.59
  A 0.49 0.46 15.6 0 0 641.44 852.00"
/>
</g>
<path fill="#000000" d="
  M 0.00 0.00
  L 958.00 0.00
  L 958.00 958.98
  L 0.00 958.94
  L 0.00 0.00
  Z
  M 169.65 433.32
  C 183.13 553.29 263.99 654.60 377.62 694.46
  C 386.38 697.53 396.44 696.39 400.28 687.50
  Q 401.80 684.01 401.71 674.22
  Q 401.48 648.53 401.18 622.69
  Q 401.18 622.13 400.62 622.24
  C 361.64 630.25 311.89 626.34 295.56 582.20
  Q 289.85 566.78 277.78 552.44
  Q 271.38 544.84 267.70 542.55
  C 264.85 540.78 242.93 527.46 252.06 522.55
  C 264.35 515.94 282.52 523.23 292.65 530.88
  C 301.31 537.42 306.51 543.77 312.74 553.72
  C 333.41 586.75 367.33 594.55 402.36 578.18
  Q 402.82 577.97 402.90 577.47
  C 405.44 561.46 410.49 548.01 421.95 536.25
  Q 422.40 535.79 421.76 535.73
  C 389.16 532.40 354.25 524.01 328.26 502.97
  C 292.09 473.68 280.91 428.66 280.70 383.82
  C 280.55 351.03 290.34 322.16 312.26 297.43
  Q 312.59 297.05 312.43 296.57
  C 303.06 269.81 305.12 240.62 315.52 214.53
  A 1.65 1.65 0.0 0 1 316.93 213.49
  C 345.96 211.18 377.31 230.33 400.87 245.82
  A 1.12 1.09 53.0 0 0 401.76 245.96
  Q 479.19 225.50 556.59 246.03
  Q 557.11 246.17 557.54 245.86
  C 579.37 230.47 614.32 210.34 641.68 213.63
  A 1.10 1.09 82.6 0 1 642.56 214.31
  C 652.87 240.70 655.24 269.37 645.66 296.45
  Q 645.49 296.94 645.83 297.32
  Q 677.38 332.61 677.52 380.52
  C 677.65 426.94 666.73 473.96 628.34 503.90
  C 602.43 524.10 567.41 532.44 535.53 535.76
  Q 535.01 535.81 535.39 536.18
  C 550.50 550.62 556.06 571.13 556.18 591.50
  Q 556.43 634.62 555.73 677.75
  C 555.48 693.08 566.26 699.30 579.83 694.51
  C 702.44 651.25 783.43 540.35 789.72 410.74
  C 797.31 254.40 685.41 113.97 530.92 88.18
  C 324.96 53.80 146.43 226.75 169.65 433.32
  Z
  M 328.75 830.50
  L 328.75 850.70
  Q 328.75 851.09 328.36 851.17
  Q 318.40 853.28 310.71 851.51
  C 292.28 847.27 291.80 819.64 294.35 804.96
  C 298.66 780.12 322.78 779.85 341.69 786.02
  A 1.50 1.50 0.0 0 0 343.61 784.95
  L 347.61 768.12
  A 1.63 1.62 -68.7 0 0 346.83 766.33
  C 336.98 760.75 319.85 760.23 309.07 761.60
  C 287.45 764.34 275.55 777.30 271.60 798.32
  C 266.33 826.41 269.39 865.85 304.59 872.64
  C 320.37 875.68 337.22 874.31 351.22 866.09
  A 1.59 1.58 -15.2 0 0 352.01 864.72
  L 351.99 810.74
  A 1.25 1.24 0.0 0 0 350.74 809.50
  L 314.13 809.50
  Q 313.50 809.50 313.50 810.13
  L 313.50 828.72
  A 1.28 1.28 0.0 0 0 314.78 830.00
  L 328.25 830.00
  Q 328.75 830.00 328.75 830.50
  Z
  M 508.25 826.75
  L 508.25 870.35
  A 1.66 1.65 0.0 0 0 509.91 872.00
  L 530.02 872.00
  A 1.33 1.33 0.0 0 0 531.35 870.67
  L 531.34 766.38
  A 1.30 1.30 0.0 0 0 530.05 765.08
  Q 520.06 764.95 510.49 764.86
  Q 508.22 764.84 508.23 767.07
  Q 508.25 785.74 508.25 804.49
  Q 508.25 805.00 507.74 805.00
  L 478.00 805.00
  A 0.50 0.50 0.0 0 1 477.50 804.50
  L 477.50 766.96
  Q 477.50 764.98 475.52 764.99
  L 455.47 765.05
  Q 454.49 765.05 454.49 766.03
  L 454.49 870.75
  A 1.26 1.25 0.0 0 0 455.75 872.00
  L 476.00 872.00
  A 1.50 1.50 0.0 0 0 477.50 870.50
  L 477.50 826.75
  Q 477.50 826.25 478.00 826.25
  L 507.75 826.25
  Q 508.25 826.25 508.25 826.75
  Z
  M 636.37 866.75
  Q 649.45 875.87 665.54 873.72
  C 683.16 871.37 686.69 854.55 687.64 839.92
  C 688.83 821.67 686.17 798.55 662.84 796.95
  Q 652.04 796.22 642.06 801.36
  Q 641.51 801.65 641.51 801.02
  L 641.49 766.78
  Q 641.49 765.06 639.77 765.05
  Q 629.40 764.96 620.23 765.07
  Q 618.27 765.09 618.27 767.50
  Q 618.23 818.94 618.26 870.28
  A 1.72 1.72 0.0 0 0 619.98 872.00
  L 633.77 872.00
  A 1.66 1.65 -86.2 0 0 635.41 870.56
  L 635.87 866.97
  Q 635.94 866.45 636.37 866.75
  Z
  M 387.69 780.36
  A 12.83 12.83 0.0 0 0 374.86 767.53
  A 12.83 12.83 0.0 0 0 362.03 780.36
  A 12.83 12.83 0.0 0 0 374.86 793.19
  A 12.83 12.83 0.0 0 0 387.69 780.36
  Z
  M 394.44 818.24
  L 404.98 818.25
  A 0.55 0.55 0.0 0 1 405.53 818.80
  Q 405.41 835.08 405.60 851.29
  C 405.86 873.14 427.41 877.10 444.00 871.93
  Q 445.01 871.61 445.01 870.56
  L 444.97 856.53
  A 1.78 1.78 0.0 0 0 442.96 854.77
  C 436.33 855.63 427.97 855.37 428.05 846.24
  Q 428.16 832.55 428.33 818.79
  Q 428.33 818.32 428.80 818.32
  L 443.51 818.22
  Q 444.74 818.21 444.74 816.99
  L 444.72 800.52
  A 1.52 1.51 90.0 0 0 443.21 799.00
  L 428.75 799.00
  A 0.50 0.50 0.0 0 1 428.25 798.50
  L 428.25 778.85
  Q 428.25 778.26 427.66 778.26
  L 406.38 778.24
  A 0.88 0.88 0.0 0 0 405.50 779.12
  L 405.50 799.08
  Q 405.50 799.66 404.93 799.80
  L 394.71 802.26
  Q 393.50 802.55 393.50 803.79
  L 393.50 817.31
  A 0.94 0.93 -0.0 0 0 394.44 818.24
  Z
  M 386.25 801.15
  A 2.16 2.16 0.0 0 0 384.09 798.99
  L 365.17 798.99
  A 2.16 2.16 0.0 0 0 363.01 801.15
  L 363.01 869.81
  A 2.16 2.16 0.0 0 0 365.17 871.97
  L 384.09 871.97
  A 2.16 2.16 0.0 0 0 386.25 869.81
  L 386.25 801.15
  Z
  M 591.68 867.73
  L 592.58 871.52
  A 0.62 0.61 83.5 0 0 593.18 872.00
  L 606.47 872.00
  A 1.78 1.78 0.0 0 0 608.25 870.22
  L 608.25 800.90
  Q 608.25 799.25 606.59 799.25
  L 586.75 799.25
  Q 585.26 799.25 585.26 800.74
  L 585.25 851.02
  A 0.82 0.78 -16.5 0 1 584.86 851.70
  C 580.15 854.63 569.38 857.75 565.76 851.88
  Q 564.57 849.94 564.50 844.92
  Q 564.16 822.43 564.26 800.52
  A 1.26 1.26 0.0 0 0 563.00 799.25
  L 542.10 799.25
  A 1.10 1.09 -89.7 0 0 541.01 800.34
  Q 540.96 824.13 541.03 848.25
  C 541.06 859.95 544.93 870.25 557.28 872.99
  Q 574.85 876.88 590.94 867.42
  A 0.50 0.50 0.0 0 1 591.68 867.73
  Z"
/>
<path fill="#ffffff" d="
  M 377.62 694.46
  C 263.99 654.60 183.13 553.29 169.65 433.32
  C 146.43 226.75 324.96 53.80 530.92 88.18
  C 685.41 113.97 797.31 254.40 789.72 410.74
  C 783.43 540.35 702.44 651.25 579.83 694.51
  C 566.26 699.30 555.48 693.08 555.73 677.75
  Q 556.43 634.62 556.18 591.50
  C 556.06 571.13 550.50 550.62 535.39 536.18
  Q 535.01 535.81 535.53 535.76
  C 567.41 532.44 602.43 524.10 628.34 503.90
  C 666.73 473.96 677.65 426.94 677.52 380.52
  Q 677.38 332.61 645.83 297.32
  Q 645.49 296.94 645.66 296.45
  C 655.24 269.37 652.87 240.70 642.56 214.31
  A 1.10 1.09 82.6 0 0 641.68 213.63
  C 614.32 210.34 579.37 230.47 557.54 245.86
  Q 557.11 246.17 556.59 246.03
  Q 479.19 225.50 401.76 245.96
  A 1.12 1.09 53.0 0 1 400.87 245.82
  C 377.31 230.33 345.96 211.18 316.93 213.49
  A 1.65 1.65 0.0 0 0 315.52 214.53
  C 305.12 240.62 303.06 269.81 312.43 296.57
  Q 312.59 297.05 312.26 297.43
  C 290.34 322.16 280.55 351.03 280.70 383.82
  C 280.91 428.66 292.09 473.68 328.26 502.97
  C 354.25 524.01 389.16 532.40 421.76 535.73
  Q 422.40 535.79 421.95 536.25
  C 410.49 548.01 405.44 561.46 402.90 577.47
  Q 402.82 577.97 402.36 578.18
  C 367.33 594.55 333.41 586.75 312.74 553.72
  C 306.51 543.77 301.31 537.42 292.65 530.88
  C 282.52 523.23 264.35 515.94 252.06 522.55
  C 242.93 527.46 264.85 540.78 267.70 542.55
  Q 271.38 544.84 277.78 552.44
  Q 289.85 566.78 295.56 582.20
  C 311.89 626.34 361.64 630.25 400.62 622.24
  Q 401.18 622.13 401.18 622.69
  Q 401.48 648.53 401.71 674.22
  Q 401.80 684.01 400.28 687.50
  C 396.44 696.39 386.38 697.53 377.62 694.46
  Z"
/>
<path fill="#ffffff" d="
  M 328.25 830.00
  L 314.78 830.00
  A 1.28 1.28 0.0 0 1 313.50 828.72
  L 313.50 810.13
  Q 313.50 809.50 314.13 809.50
  L 350.74 809.50
  A 1.25 1.24 -0.0 0 1 351.99 810.74
  L 352.01 864.72
  A 1.59 1.58 -15.2 0 1 351.22 866.09
  C 337.22 874.31 320.37 875.68 304.59 872.64
  C 269.39 865.85 266.33 826.41 271.60 798.32
  C 275.55 777.30 287.45 764.34 309.07 761.60
  C 319.85 760.23 336.98 760.75 346.83 766.33
  A 1.63 1.62 -68.7 0 1 347.61 768.12
  L 343.61 784.95
  A 1.50 1.50 0.0 0 1 341.69 786.02
  C 322.78 779.85 298.66 780.12 294.35 804.96
  C 291.80 819.64 292.28 847.27 310.71 851.51
  Q 318.40 853.28 328.36 851.17
  Q 328.75 851.09 328.75 850.70
  L 328.75 830.50
  Q 328.75 830.00 328.25 830.00
  Z"
/>
<path fill="#ffffff" d="
  M 507.75 826.25
  L 478.00 826.25
  Q 477.50 826.25 477.50 826.75
  L 477.50 870.50
  A 1.50 1.50 0.0 0 1 476.00 872.00
  L 455.75 872.00
  A 1.26 1.25 -0.0 0 1 454.49 870.75
  L 454.49 766.03
  Q 454.49 765.05 455.47 765.05
  L 475.52 764.99
  Q 477.50 764.98 477.50 766.96
  L 477.50 804.50
  A 0.50 0.50 0.0 0 0 478.00 805.00
  L 507.74 805.00
  Q 508.25 805.00 508.25 804.49
  Q 508.25 785.74 508.23 767.07
  Q 508.22 764.84 510.49 764.86
  Q 520.06 764.95 530.05 765.08
  A 1.30 1.30 0.0 0 1 531.34 766.38
  L 531.35 870.67
  A 1.33 1.33 0.0 0 1 530.02 872.00
  L 509.91 872.00
  A 1.66 1.65 0.0 0 1 508.25 870.35
  L 508.25 826.75
  Q 508.25 826.25 507.75 826.25
  Z"
/>
<path fill="#ffffff" d="
  M 635.87 866.97
  L 635.41 870.56
  A 1.66 1.65 -86.2 0 1 633.77 872.00
  L 619.98 872.00
  A 1.72 1.72 0.0 0 1 618.26 870.28
  Q 618.23 818.94 618.27 767.50
  Q 618.27 765.09 620.23 765.07
  Q 629.40 764.96 639.77 765.05
  Q 641.49 765.06 641.49 766.78
  L 641.51 801.02
  Q 641.51 801.65 642.06 801.36
  Q 652.04 796.22 662.84 796.95
  C 686.17 798.55 688.83 821.67 687.64 839.92
  C 686.69 854.55 683.16 871.37 665.54 873.72
  Q 649.45 875.87 636.37 866.75
  Q 635.94 866.45 635.87 866.97
  Z
  M 641.44 852.00
  Q 647.42 855.23 654.05 855.08
  C 662.88 854.87 663.88 848.99 664.65 841.30
  C 666.18 825.87 662.67 807.88 641.61 818.97
  A 0.62 0.61 76.7 0 0 641.28 819.52
  L 641.19 851.59
  A 0.49 0.46 15.6 0 0 641.44 852.00
  Z"
/>
<circle fill="#ffffff" cx="374.86" cy="780.36" r="12.83"/>
<path fill="#ffffff" d="
  M 394.44 818.24
  A 0.94 0.93 -0.0 0 1 393.50 817.31
  L 393.50 803.79
  Q 393.50 802.55 394.71 802.26
  L 404.93 799.80
  Q 405.50 799.66 405.50 799.08
  L 405.50 779.12
  A 0.88 0.88 0.0 0 1 406.38 778.24
  L 427.66 778.26
  Q 428.25 778.26 428.25 778.85
  L 428.25 798.50
  A 0.50 0.50 0.0 0 0 428.75 799.00
  L 443.21 799.00
  A 1.52 1.51 90.0 0 1 444.72 800.52
  L 444.74 816.99
  Q 444.74 818.21 443.51 818.22
  L 428.80 818.32
  Q 428.33 818.32 428.33 818.79
  Q 428.16 832.55 428.05 846.24
  C 427.97 855.37 436.33 855.63 442.96 854.77
  A 1.78 1.78 0.0 0 1 444.97 856.53
  L 445.01 870.56
  Q 445.01 871.61 444.00 871.93
  C 427.41 877.10 405.86 873.14 405.60 851.29
  Q 405.41 835.08 405.53 818.80
  A 0.55 0.55 0.0 0 0 404.98 818.25
  L 394.44 818.24
  Z"
/>
<rect fill="#ffffff" x="363.01" y="798.99" width="23.24" height="72.98" rx="2.16"/>
<path fill="#ffffff" d="
  M 590.94 867.42
  Q 574.85 876.88 557.28 872.99
  C 544.93 870.25 541.06 859.95 541.03 848.25
  Q 540.96 824.13 541.01 800.34
  A 1.10 1.09 -89.7 0 1 542.10 799.25
  L 563.00 799.25
  A 1.26 1.26 0.0 0 1 564.26 800.52
  Q 564.16 822.43 564.50 844.92
  Q 564.57 849.94 565.76 851.88
  C 569.38 857.75 580.15 854.63 584.86 851.70
  A 0.82 0.78 -16.5 0 0 585.25 851.02
  L 585.26 800.74
  Q 585.26 799.25 586.75 799.25
  L 606.59 799.25
  Q 608.25 799.25 608.25 800.90
  L 608.25 870.22
  A 1.78 1.78 0.0 0 1 606.47 872.00
  L 593.18 872.00
  A 0.62 0.61 83.5 0 1 592.58 871.52
  L 591.68 867.73
  A 0.50 0.50 0.0 0 0 590.94 867.42
  Z"
/>
<path fill="#000000" d="
  M 641.44 852.00
  A 0.49 0.46 15.6 0 1 641.19 851.59
  L 641.28 819.52
  A 0.62 0.61 76.7 0 1 641.61 818.97
  C 662.67 807.88 666.18 825.87 664.65 841.30
  C 663.88 848.99 662.88 854.87 654.05 855.08
  Q 647.42 855.23 641.44 852.00
  Z"
/>
<path fill="#ffffff" d="
  M 958.00 958.98
  L 958.00 960.00
  L 0.00 960.00
  L 0.00 958.94
  L 958.00 958.98
  Z"
/>
</svg>
