<?xml version="1.0" encoding="UTF-8" standalone="no"?>
<!DOCTYPE svg PUBLIC "-//W3C//DTD SVG 1.1//EN" "http://www.w3.org/Graphics/SVG/1.1/DTD/svg11.dtd">
<svg xmlns="http://www.w3.org/2000/svg" version="1.1" viewBox="0.00 0.00 240.00 240.00">
<g stroke-width="2.00" fill="none" stroke-linecap="butt">
<path stroke="#806b01" vector-effect="non-scaling-stroke" d="
  M 99.31 172.94
  Q 93.43 171.74 90.13 165.58
  Q 89.86 165.07 89.38 165.37
  L 77.18 172.87
  Q 76.71 173.16 76.98 173.64
  Q 84.75 187.86 99.36 189.62
  C 113.55 191.32 125.76 183.96 126.50 168.73
  Q 127.18 154.91 126.59 110.42
  Q 126.58 110.00 126.17 110.00
  L 110.51 110.00
  Q 109.99 110.00 109.99 110.52
  Q 110.03 135.21 109.96 159.92
  C 109.94 167.62 109.24 174.97 99.31 172.94"
/>
<path stroke="#806b01" vector-effect="non-scaling-stroke" d="
  M 173.01 167.91
  C 172.63 177.12 159.29 177.34 154.33 172.91
  Q 150.53 169.51 148.03 165.20
  A 0.53 0.53 0.0 0 0 147.28 165.03
  L 135.59 172.78
  Q 135.15 173.06 135.39 173.53
  Q 141.56 185.87 154.74 188.99
  C 172.77 193.25 194.10 183.97 189.25 161.73
  C 186.20 147.74 170.62 143.71 159.56 138.22
  C 151.29 134.12 153.92 123.11 163.63 124.18
  Q 169.37 124.82 172.38 130.44
  A 0.51 0.50 59.6 0 0 173.09 130.63
  L 184.41 123.40
  Q 185.10 122.96 184.70 122.25
  C 174.58 104.11 141.89 105.82 138.89 128.82
  C 135.21 156.99 173.60 153.73 173.01 167.91"
/>
</g>
<path fill="#ffd600" d="
  M 210.00 209.57
  A 0.43 0.43 0.0 0 1 209.57 210.00
  L 30.43 210.00
  A 0.43 0.43 0.0 0 1 30.00 209.57
  L 30.00 30.43
  A 0.43 0.43 0.0 0 1 30.43 30.00
  L 209.57 30.00
  A 0.43 0.43 0.0 0 1 210.00 30.43
  L 210.00 209.57
  Z
  M 99.31 172.94
  Q 93.43 171.74 90.13 165.58
  Q 89.86 165.07 89.38 165.37
  L 77.18 172.87
  Q 76.71 173.16 76.98 173.64
  Q 84.75 187.86 99.36 189.62
  C 113.55 191.32 125.76 183.96 126.50 168.73
  Q 127.18 154.91 126.59 110.42
  Q 126.58 110.00 126.17 110.00
  L 110.51 110.00
  Q 109.99 110.00 109.99 110.52
  Q 110.03 135.21 109.96 159.92
  C 109.94 167.62 109.24 174.97 99.31 172.94
  Z
  M 173.01 167.91
  C 172.63 177.12 159.29 177.34 154.33 172.91
  Q 150.53 169.51 148.03 165.20
  A 0.53 0.53 0.0 0 0 147.28 165.03
  L 135.59 172.78
  Q 135.15 173.06 135.39 173.53
  Q 141.56 185.87 154.74 188.99
  C 172.77 193.25 194.10 183.97 189.25 161.73
  C 186.20 147.74 170.62 143.71 159.56 138.22
  C 151.29 134.12 153.92 123.11 163.63 124.18
  Q 169.37 124.82 172.38 130.44
  A 0.51 0.50 59.6 0 0 173.09 130.63
  L 184.41 123.40
  Q 185.10 122.96 184.70 122.25
  C 174.58 104.11 141.89 105.82 138.89 128.82
  C 135.21 156.99 173.60 153.73 173.01 167.91
  Z"
/>
<path fill="#000001" d="
  M 99.31 172.94
  C 109.24 174.97 109.94 167.62 109.96 159.92
  Q 110.03 135.21 109.99 110.52
  Q 109.99 110.00 110.51 110.00
  L 126.17 110.00
  Q 126.58 110.00 126.59 110.42
  Q 127.18 154.91 126.50 168.73
  C 125.76 183.96 113.55 191.32 99.36 189.62
  Q 84.75 187.86 76.98 173.64
  Q 76.71 173.16 77.18 172.87
  L 89.38 165.37
  Q 89.86 165.07 90.13 165.58
  Q 93.43 171.74 99.31 172.94
  Z"
/>
<path fill="#000001" d="
  M 154.33 172.91
  C 159.29 177.34 172.63 177.12 173.01 167.91
  C 173.60 153.73 135.21 156.99 138.89 128.82
  C 141.89 105.82 174.58 104.11 184.70 122.25
  Q 185.10 122.96 184.41 123.40
  L 173.09 130.63
  A 0.51 0.50 59.6 0 1 172.38 130.44
  Q 169.37 124.82 163.63 124.18
  C 153.92 123.11 151.29 134.12 159.56 138.22
  C 170.62 143.71 186.20 147.74 189.25 161.73
  C 194.10 183.97 172.77 193.25 154.74 188.99
  Q 141.56 185.87 135.39 173.53
  Q 135.15 173.06 135.59 172.78
  L 147.28 165.03
  A 0.53 0.53 0.0 0 1 148.03 165.20
  Q 150.53 169.51 154.33 172.91
  Z"
/>
</svg>
