<?xml version="1.0" encoding="UTF-8" standalone="no"?>
<!DOCTYPE svg PUBLIC "-//W3C//DTD SVG 1.1//EN" "http://www.w3.org/Graphics/SVG/1.1/DTD/svg11.dtd">
<svg xmlns="http://www.w3.org/2000/svg" version="1.1" viewBox="0.00 0.00 300.00 181.00">
<path fill="#000000" d="
  M 164.57 83.68
  A 0.65 0.64 45.1 0 0 165.62 83.69
  Q 195.49 42.20 227.65 2.45
  A 0.12 0.11 82.3 0 1 227.83 2.59
  L 168.83 87.90
  A 0.73 0.73 0.0 0 0 168.84 88.75
  L 199.49 131.12
  Q 199.94 131.75 199.16 131.75
  L 194.16 131.75
  Q 193.60 131.75 193.27 131.29
  Q 179.37 112.12 165.53 92.90
  A 0.54 0.53 -44.8 0 0 164.66 92.90
  L 136.84 131.26
  Q 136.48 131.76 135.88 131.75
  L 130.97 131.74
  Q 130.23 131.74 130.67 131.14
  L 161.55 88.78
  Q 161.86 88.35 161.55 87.92
  L 132.77 47.89
  A 0.41 0.40 -17.8 0 1 133.10 47.25
  L 137.85 47.25
  A 1.17 1.16 71.8 0 1 138.79 47.73
  L 164.57 83.68
  Z"
/>
<path fill="#000000" d="
  M 0.00 131.48
  L 0.00 47.63
  Q 3.10 46.74 6.18 47.43
  A 1.30 1.30 0.0 0 1 6.97 47.96
  C 14.40 59.09 95.06 179.46 95.00 179.56
  Q 94.87 179.79 94.71 179.58
  C 81.07 161.29 66.85 143.22 53.92 124.43
  Q 29.90 89.56 5.94 54.51
  A 0.24 0.24 0.0 0 0 5.50 54.64
  L 5.18 131.10
  A 0.58 0.57 -88.1 0 1 4.58 131.67
  L 0.00 131.48
  Z"
/>
<path fill="#000000" d="
  M 76.00 90.81
  L 76.00 126.67
  A 0.58 0.58 0.0 0 0 76.58 127.25
  L 127.42 127.25
  A 0.58 0.58 0.0 0 1 128.00 127.83
  L 128.00 131.17
  A 0.58 0.58 0.0 0 1 127.42 131.75
  L 71.33 131.75
  A 0.58 0.58 0.0 0 1 70.75 131.17
  L 70.75 47.83
  A 0.58 0.58 0.0 0 1 71.33 47.25
  L 126.87 47.25
  A 0.58 0.58 0.0 0 1 127.45 47.82
  L 127.52 51.21
  A 0.58 0.58 0.0 0 1 126.94 51.80
  L 76.58 51.77
  A 0.58 0.58 0.0 0 0 76.00 52.35
  L 76.00 84.94
  A 0.58 0.58 0.0 0 0 76.58 85.52
  L 123.75 85.49
  A 0.58 0.58 0.0 0 1 124.33 86.09
  L 124.22 89.68
  A 0.58 0.58 0.0 0 1 123.64 90.24
  L 76.58 90.23
  A 0.58 0.58 0.0 0 0 76.00 90.81
  Z"
/>
<path fill="#000000" d="
  M 201.98 51.12
  L 202.05 47.86
  A 0.62 0.62 0.0 0 1 202.67 47.25
  L 266.02 47.25
  A 0.62 0.62 0.0 0 1 266.64 47.88
  L 266.57 51.14
  A 0.62 0.62 0.0 0 1 265.95 51.75
  L 237.62 51.75
  A 0.62 0.62 0.0 0 0 237.00 52.37
  L 237.00 131.14
  A 0.62 0.62 0.0 0 1 236.38 131.76
  L 232.36 131.74
  A 0.62 0.62 0.0 0 1 231.74 131.12
  L 231.75 52.37
  A 0.62 0.62 0.0 0 0 231.13 51.75
  L 202.60 51.75
  A 0.62 0.62 0.0 0 1 201.98 51.12
  Z"
/>
<path fill="#000000" d="
  M 300.00 119.32
  L 300.00 121.77
  C 297.55 128.10 288.56 127.28 285.83 121.65
  A 0.54 0.54 0.0 0 1 286.26 120.88
  L 287.80 120.71
  A 0.98 0.97 -19.9 0 1 288.73 121.14
  C 290.61 123.97 297.38 124.75 296.99 120.56
  A 2.32 2.31 -85.1 0 0 295.30 118.54
  C 292.55 117.80 286.80 117.11 286.55 113.13
  C 286.06 105.60 297.29 105.14 299.48 110.89
  A 1.25 1.25 0.0 0 1 297.38 112.18
  C 295.27 109.86 292.15 107.77 289.80 111.19
  A 1.97 1.97 0.0 0 0 290.88 114.20
  C 294.21 115.16 298.62 115.42 300.00 119.32
  Z"
/>
<path fill="#000000" d="
  M 279.91 107.50
  L 281.91 107.50
  Q 282.44 107.50 282.45 108.03
  C 282.56 111.82 283.48 121.62 280.86 124.45
  C 278.35 127.14 271.03 126.36 271.23 121.84
  A 1.37 1.37 0.0 0 1 273.85 121.34
  C 275.63 125.36 279.50 123.40 279.51 119.37
  Q 279.53 113.65 279.47 107.94
  Q 279.47 107.50 279.91 107.50
  Z"
/>
<circle fill="#000000" cx="266.06" cy="123.99" r="1.86"/>
</svg>
