<?xml version="1.0" encoding="UTF-8" standalone="no"?>
<!DOCTYPE svg PUBLIC "-//W3C//DTD SVG 1.1//EN" "http://www.w3.org/Graphics/SVG/1.1/DTD/svg11.dtd">
<svg xmlns="http://www.w3.org/2000/svg" version="1.1" viewBox="0.00 0.00 600.00 600.00">
<g stroke-width="2.00" fill="none" stroke-linecap="butt">
<path stroke="#808080" vector-effect="non-scaling-stroke" d="
  M 214.56 409.81
  C 223.61 401.99 231.20 395.34 238.54 387.23
  C 240.15 385.44 242.50 384.25 244.13 382.06
  C 246.73 378.59 250.63 376.24 253.64 373.00
  C 255.22 371.31 257.27 370.13 258.69 368.69
  C 275.72 351.55 288.75 340.06 302.09 326.49
  C 302.95 325.62 304.24 324.93 305.07 323.85
  Q 306.49 322.01 306.93 321.60
  Q 318.92 310.47 330.66 299.09
  C 331.85 297.94 333.62 297.02 334.77 295.50
  Q 336.61 293.05 337.30 292.45
  Q 338.71 291.22 340.15 290.02
  C 343.15 287.51 345.71 284.52 348.78 282.02
  C 350.35 280.74 351.55 278.88 353.14 277.45
  C 361.55 269.86 369.15 261.39 377.66 253.81
  C 383.40 248.69 389.37 242.85 394.57 237.26
  C 400.35 231.03 407.99 224.43 412.89 219.71
  Q 417.31 215.44 421.77 211.22
  C 423.42 209.65 425.03 207.36 427.01 205.69
  C 430.76 202.53 434.00 198.51 437.43 196.18
  Q 438.72 195.30 439.20 194.62
  C 440.90 192.22 443.63 190.72 445.54 188.82
  Q 462.26 172.15 479.46 155.96
  C 484.34 151.37 489.76 146.75 487.03 140.65
  C 484.74 135.53 479.89 135.05 474.75 134.25
  C 473.21 134.01 470.72 132.04 468.66 131.50
  Q 459.75 129.17 450.81 126.99
  C 447.75 126.25 445.17 124.55 442.03 123.85
  C 431.87 121.59 421.91 118.15 412.02 115.48
  C 373.75 105.11 335.28 93.49 297.00 82.25
  Q 286.78 79.24 276.36 76.94
  C 274.33 76.49 272.98 74.95 270.70 74.44
  C 256.24 71.24 241.92 66.40 224.32 61.90
  C 222.22 61.36 220.09 59.86 217.82 59.26
  Q 209.30 57.02 200.75 54.92
  C 198.26 54.31 195.88 52.94 193.25 52.24
  Q 169.20 45.85 145.35 38.68
  C 138.36 36.58 130.79 34.85 123.50 32.82
  C 116.02 30.75 110.88 36.24 112.42 43.79
  Q 114.67 54.83 117.01 65.87
  C 117.70 69.17 119.61 72.19 120.19 75.06
  Q 122.12 84.70 124.04 94.34
  C 124.78 98.12 126.61 101.41 127.39 105.22
  Q 128.94 112.91 130.72 120.54
  C 131.75 124.99 134.19 132.35 135.48 139.00
  C 137.09 147.26 141.23 160.01 143.42 170.72
  C 144.53 176.16 145.52 181.81 147.14 187.11
  C 149.56 195.06 151.15 202.98 152.87 211.08
  C 153.57 214.40 155.48 218.09 156.02 220.74
  Q 158.37 232.39 160.52 240.43
  C 163.46 251.38 165.04 258.07 166.84 267.11
  C 167.69 271.42 169.64 275.79 170.68 280.32
  Q 172.54 288.45 174.20 296.63
  C 174.77 299.39 176.21 302.18 176.81 305.19
  Q 178.95 315.78 181.77 326.20
  C 184.89 337.75 186.88 346.63 188.95 357.01
  C 189.77 361.12 191.68 364.73 192.55 368.85
  C 194.23 376.87 196.00 384.74 198.10 392.65
  Q 199.21 396.82 200.49 403.49
  C 201.68 409.72 208.75 414.84 214.56 409.81"
/>
<path stroke="#808080" vector-effect="non-scaling-stroke" d="
  M 169.78 475.98
  Q 170.76 465.11 168.93 454.36
  C 167.35 445.03 154.25 443.30 149.74 451.30
  Q 147.86 454.64 147.91 457.75
  C 148.42 486.52 147.47 506.51 148.33 530.86
  Q 148.35 531.36 147.86 531.26
  L 147.35 531.16
  Q 146.79 531.05 146.81 530.47
  C 147.21 521.13 135.09 523.27 129.41 522.92
  Q 128.89 522.89 128.73 522.40
  Q 127.76 519.41 127.75 516.24
  Q 127.72 504.30 127.76 492.22
  Q 127.76 491.68 128.30 491.77
  C 132.57 492.53 140.36 492.43 143.26 488.57
  C 145.54 485.53 147.91 483.38 146.12 479.18
  C 142.64 471.00 135.35 473.26 128.29 473.24
  Q 127.77 473.24 127.76 472.72
  C 127.67 467.67 129.61 461.81 122.23 461.10
  C 113.15 460.23 115.30 465.55 109.55 468.06
  A 1.98 1.88 -82.0 0 0 108.78 468.67
  Q 106.49 471.75 103.88 474.52
  C 102.75 475.72 100.91 476.17 99.90 477.91
  C 98.38 480.51 96.65 483.09 97.53 486.17
  Q 99.26 492.20 106.40 492.08
  A 0.55 0.54 -0.5 0 1 106.96 492.62
  Q 106.92 508.69 107.51 524.74
  C 108.45 550.39 148.08 544.62 146.88 533.82
  A 0.78 0.78 0.0 0 1 148.41 533.51
  Q 151.82 545.31 163.68 541.12
  A 1.74 1.74 0.0 0 0 164.56 540.42
  Q 165.57 538.81 167.22 537.89
  Q 167.70 537.62 167.93 537.12
  Q 169.93 532.90 169.97 526.74
  Q 170.04 515.48 169.99 504.18
  Q 169.97 498.96 171.02 496.94
  C 173.91 491.42 182.69 491.14 187.89 492.44
  Q 188.36 492.55 188.54 493.00
  Q 191.25 499.69 191.25 505.25
  Q 191.24 519.59 191.27 533.94
  C 191.30 546.03 212.00 545.04 212.00 531.00
  Q 212.00 514.42 212.00 497.85
  C 212.00 491.79 210.24 488.18 207.08 482.89
  C 200.59 472.01 189.45 470.93 178.25 472.49
  Q 173.56 473.14 169.93 476.07
  Q 169.76 476.21 169.78 475.98"
/>
<path stroke="#808080" vector-effect="non-scaling-stroke" d="
  M 444.7030 458.8375
  A 9.92 9.92 0.0 0 0 434.9225 448.7799
  L 432.2227 448.7422
  A 9.92 9.92 0.0 0 0 422.1652 458.5227
  L 422.1370 460.5425
  A 9.92 9.92 0.0 0 0 431.9175 470.6001
  L 434.6173 470.6378
  A 9.92 9.92 0.0 0 0 444.6748 460.8573
  L 444.7030 458.8375"
/>
<path stroke="#808080" vector-effect="non-scaling-stroke" d="
  M 346.06 516.00
  Q 362.78 516.08 379.50 515.78
  Q 381.08 515.76 383.77 514.47
  C 395.35 508.91 385.56 482.77 377.42 477.82
  Q 358.23 466.14 338.26 475.97
  Q 337.23 476.48 336.14 477.56
  C 334.45 479.23 332.55 480.24 331.20 482.01
  C 324.91 490.19 323.77 497.58 323.07 508.77
  C 322.59 516.41 327.27 528.40 333.22 533.86
  C 342.50 542.36 355.83 544.84 367.92 542.30
  C 373.37 541.16 378.92 538.19 384.25 535.70
  Q 384.71 535.49 384.97 535.06
  C 391.03 524.95 382.52 514.38 371.46 520.35
  C 364.50 524.10 354.48 524.84 349.26 518.67
  Q 348.89 518.24 348.35 518.12
  Q 346.75 517.76 345.83 516.41
  Q 345.55 515.99 346.06 516.00"
/>
<path stroke="#808080" vector-effect="non-scaling-stroke" d="
  M 259.89 490.81
  C 256.75 502.18 255.86 512.70 260.06 523.83
  C 261.36 527.26 265.47 532.83 268.31 534.94
  Q 284.48 546.94 304.24 541.71
  C 308.83 540.50 313.50 537.83 318.22 535.83
  Q 318.68 535.64 318.94 535.21
  C 322.48 529.45 321.65 520.82 314.23 519.00
  Q 309.39 517.81 305.08 520.55
  C 299.83 523.89 291.63 523.46 285.79 522.21
  Q 285.32 522.11 285.16 521.65
  C 284.28 518.98 281.75 518.64 279.91 516.67
  A 0.41 0.41 0.0 0 1 280.21 515.98
  Q 295.96 516.05 311.69 515.95
  Q 315.57 515.93 320.19 513.46
  A 1.33 1.31 87.1 0 0 320.81 512.76
  Q 322.46 508.40 322.80 503.82
  C 323.16 498.75 320.83 489.62 318.30 485.73
  C 308.28 470.32 288.20 468.48 272.63 475.49
  C 270.20 476.59 266.42 480.57 264.91 482.76
  A 0.61 0.61 0.0 0 1 263.80 482.34
  C 265.40 468.79 247.75 471.08 240.60 474.66
  C 239.63 475.15 238.94 475.01 237.91 475.00
  A 1.81 1.71 -26.8 0 1 237.00 474.73
  C 229.54 469.98 218.89 472.26 218.96 482.75
  Q 219.11 505.56 219.25 528.37
  Q 219.28 533.94 220.65 536.76
  C 224.12 543.94 233.36 543.82 237.98 537.96
  Q 240.91 534.25 240.93 529.01
  Q 240.97 515.31 241.02 501.62
  C 241.04 494.66 244.66 492.93 251.24 492.16
  Q 255.42 491.67 259.45 490.39
  Q 260.06 490.19 259.89 490.81"
/>
<path stroke="#808080" vector-effect="non-scaling-stroke" d="
  M 469.74 493.83
  C 470.92 489.26 486.60 492.30 490.20 492.70
  C 497.94 493.57 503.80 489.16 502.11 481.20
  C 499.79 470.27 475.30 471.34 466.94 472.74
  C 450.62 475.47 445.54 492.23 452.13 505.97
  C 453.23 508.27 458.90 512.67 461.32 513.40
  Q 467.72 515.35 474.26 516.84
  C 477.24 517.52 479.57 519.24 482.48 520.13
  A 1.16 1.16 0.0 0 1 482.42 522.36
  Q 472.97 524.70 465.01 520.83
  C 461.82 519.28 458.18 518.23 455.31 519.09
  C 448.99 520.98 446.96 532.26 452.95 535.98
  C 466.66 544.52 483.47 546.32 496.99 536.50
  C 506.92 529.28 506.33 511.08 496.23 504.24
  C 488.36 498.90 479.71 497.46 470.65 495.34
  A 1.23 1.23 0.0 0 1 469.74 493.83"
/>
<path stroke="#808080" vector-effect="non-scaling-stroke" d="
  M 422.79 549.95
  C 418.12 550.18 411.68 549.87 409.13 554.53
  C 405.98 560.28 409.42 566.53 415.77 568.20
  Q 426.06 570.90 434.87 566.45
  C 442.14 562.78 443.74 556.61 443.75 549.00
  Q 443.76 519.34 443.74 489.68
  C 443.74 483.44 445.46 477.99 439.21 474.17
  C 433.65 470.78 427.45 472.93 423.58 477.76
  A 1.50 1.47 -26.0 0 0 423.25 478.69
  L 423.25 549.47
  Q 423.25 549.93 422.79 549.95"
/>
<path stroke="#808080" vector-effect="non-scaling-stroke" d="
  M 391.53 534.27
  C 392.91 536.08 395.44 539.80 396.69 540.58
  C 405.24 545.86 415.93 539.05 415.54 529.25
  C 415.13 518.96 400.85 513.66 394.11 522.31
  C 391.08 526.21 387.81 529.38 391.53 534.27"
/>
<path stroke="#808080" vector-effect="non-scaling-stroke" d="
  M 149.08 113.49
  L 192.24 72.00
  A 1.00 1.00 0.0 0 0 191.76 70.31
  Q 186.60 69.15 181.34 67.73
  C 174.30 65.84 165.88 62.76 157.89 60.82
  C 149.78 58.84 141.58 55.65 133.10 53.90
  Q 132.05 53.68 132.81 54.44
  L 133.16 54.78
  Q 133.55 55.17 133.63 55.71
  C 134.97 64.53 138.25 73.76 139.93 81.34
  Q 143.53 97.58 148.01 113.20
  A 0.65 0.64 -29.8 0 0 149.08 113.49"
/>
<path stroke="#808080" vector-effect="non-scaling-stroke" d="
  M 246.49 130.79
  C 258.23 120.27 269.75 109.07 280.55 97.58
  A 0.60 0.59 29.4 0 0 280.27 96.61
  C 275.39 95.25 270.87 92.94 266.14 91.84
  C 252.65 88.70 241.39 84.35 228.78 81.35
  Q 225.63 80.60 223.11 78.50
  A 0.35 0.35 0.0 0 0 222.55 78.88
  C 223.78 82.77 225.29 86.47 226.14 90.47
  C 229.37 105.51 234.32 121.81 237.21 138.99
  Q 237.30 139.55 237.76 139.21
  C 241.07 136.78 243.82 133.19 246.49 130.79"
/>
<path stroke="#808080" vector-effect="non-scaling-stroke" d="
  M 204.95 84.81
  C 193.97 94.73 185.00 104.90 174.09 114.03
  Q 166.96 120.01 164.88 122.88
  Q 162.47 126.22 159.63 127.00
  A 0.25 0.25 0.0 0 0 159.64 127.48
  Q 160.17 127.62 160.53 127.35
  A 1.13 1.13 0.0 0 1 161.43 127.17
  C 174.36 130.18 186.81 134.43 199.66 137.65
  C 205.45 139.10 211.94 141.77 218.51 143.12
  A 1.24 1.23 -83.1 0 0 219.99 141.95
  C 220.14 137.70 217.64 133.62 216.72 129.41
  C 214.96 121.28 213.48 113.94 210.96 105.31
  Q 208.09 95.50 206.35 85.30
  Q 206.09 83.78 204.95 84.81"
/>
<path stroke="#808080" vector-effect="non-scaling-stroke" d="
  M 327.80 164.44
  C 339.41 152.44 351.61 141.26 363.60 129.75
  C 365.27 128.15 367.72 125.04 370.43 123.11
  A 0.63 0.63 0.0 0 0 370.24 122.00
  L 314.11 105.52
  A 1.00 0.99 -85.4 0 0 312.85 106.60
  C 314.13 117.21 317.81 126.87 319.90 137.14
  Q 322.72 150.95 327.21 164.31
  Q 327.39 164.85 327.80 164.44"
/>
<path stroke="#808080" vector-effect="non-scaling-stroke" d="
  M 253.04 152.38
  Q 265.72 157.05 278.90 160.04
  C 281.52 160.64 283.88 162.22 286.76 162.96
  C 295.33 165.16 303.89 166.42 307.97 168.80
  A 0.77 0.77 0.0 0 0 309.12 167.97
  C 307.38 159.99 304.59 152.03 303.11 144.91
  Q 301.38 136.58 299.50 128.27
  C 298.32 123.06 295.84 116.67 294.81 110.54
  Q 294.72 110.00 294.31 110.36
  C 287.56 116.38 280.98 122.56 274.31 128.73
  C 270.24 132.49 266.56 136.89 262.47 140.58
  C 258.12 144.49 255.14 148.79 249.84 151.91
  A 0.22 0.19 -65.1 0 0 249.96 152.30
  C 251.26 151.94 251.75 151.90 253.04 152.38"
/>
<path stroke="#808080" vector-effect="non-scaling-stroke" d="
  M 415.74 192.65
  Q 415.38 193.24 415.59 193.90
  Q 415.81 194.56 416.00 193.89
  L 416.93 190.70
  Q 417.09 190.15 417.56 189.84
  Q 419.81 188.35 421.69 186.45
  C 433.73 174.27 448.09 161.68 460.68 148.64
  Q 461.12 148.19 460.50 148.05
  Q 453.51 146.50 446.83 143.99
  C 439.09 141.09 431.41 139.78 422.96 136.95
  Q 412.37 133.39 401.29 131.65
  Q 400.82 131.57 400.94 132.03
  C 402.08 136.69 404.22 141.11 405.14 145.48
  Q 406.53 152.07 407.92 158.64
  Q 408.93 163.38 411.38 171.64
  Q 414.31 181.49 415.93 191.70
  Q 416.01 192.21 415.74 192.65"
/>
<path stroke="#808080" vector-effect="non-scaling-stroke" d="
  M 397.60 194.84
  A 0.26 0.26 0.0 0 0 397.91 194.53
  Q 395.60 183.59 393.25 172.50
  C 392.50 168.99 390.74 165.32 389.97 161.73
  C 388.31 153.91 387.14 143.63 383.80 136.49
  A 0.82 0.82 0.0 0 0 382.32 136.47
  C 381.25 138.64 378.84 139.76 377.48 141.09
  C 365.14 153.20 352.94 165.71 339.93 177.06
  A 0.96 0.96 0.0 0 0 340.44 178.74
  C 348.65 179.87 356.70 183.38 363.57 185.16
  C 371.34 187.17 377.99 188.80 386.46 191.72
  Q 391.91 193.60 397.60 194.84"
/>
<path stroke="#808080" vector-effect="non-scaling-stroke" d="
  M 212.06 160.19
  C 207.74 157.88 202.25 156.86 198.72 155.82
  C 194.72 154.64 190.55 153.79 186.74 152.61
  Q 174.36 148.77 161.74 145.76
  C 159.29 145.18 157.26 144.02 155.17 142.72
  Q 154.52 142.32 154.71 143.06
  L 170.04 203.29
  Q 170.18 203.83 170.65 203.53
  C 174.27 201.25 177.13 197.61 179.44 195.39
  Q 188.29 186.88 197.45 178.68
  C 198.93 177.35 200.12 175.48 201.81 174.08
  C 205.84 170.75 209.16 166.74 213.14 163.33
  Q 214.35 162.30 213.31 161.09
  Q 212.51 160.15 212.06 160.19"
/>
<path stroke="#808080" vector-effect="non-scaling-stroke" d="
  M 255.55 171.98
  Q 251.27 170.49 247.01 169.89
  A 0.60 0.59 88.9 0 0 246.34 170.59
  Q 248.73 183.91 252.35 197.10
  Q 254.60 205.31 255.77 210.89
  C 256.94 216.49 257.62 223.72 260.01 228.85
  Q 260.27 229.39 260.65 228.94
  C 263.88 225.16 268.19 221.79 271.17 218.76
  Q 280.58 209.20 290.27 199.93
  C 291.36 198.89 292.34 197.29 293.45 196.45
  Q 297.66 193.26 301.24 189.36
  C 302.18 188.34 303.46 187.91 304.36 187.01
  Q 305.18 186.18 304.04 185.93
  Q 294.47 183.81 285.34 180.83
  C 275.39 177.57 265.38 175.38 255.55 171.98"
/>
<path stroke="#808080" vector-effect="non-scaling-stroke" d="
  M 184.70 217.82
  Q 188.70 219.67 192.99 220.81
  Q 215.04 226.68 236.91 233.19
  C 238.54 233.67 240.18 234.71 241.94 235.09
  A 0.96 0.96 0.0 0 0 243.09 233.98
  C 242.02 228.15 239.62 222.05 238.50 217.28
  C 236.70 209.60 235.36 202.67 232.92 194.45
  Q 230.18 185.25 229.09 176.02
  A 1.09 1.08 71.9 0 0 227.48 175.20
  C 223.98 177.18 221.67 180.55 219.17 182.60
  Q 211.57 188.88 204.61 195.87
  C 198.09 202.42 191.57 209.76 184.42 215.54
  A 1.35 1.35 0.0 0 0 184.70 217.82"
/>
<path stroke="#808080" vector-effect="non-scaling-stroke" d="
  M 349.91 255.19
  A 0.75 0.74 68.7 0 1 350.25 254.40
  Q 354.61 251.69 357.94 247.97
  C 359.71 245.99 361.83 244.53 363.65 242.54
  Q 365.83 240.15 367.79 238.39
  C 370.20 236.25 372.16 233.53 374.40 231.54
  Q 384.40 222.64 393.87 213.54
  A 0.82 0.82 0.0 0 0 393.45 212.14
  C 387.05 210.97 380.62 208.06 375.03 206.65
  C 363.20 203.67 350.57 199.22 339.97 196.80
  C 338.05 196.37 336.23 195.38 334.23 194.79
  A 0.38 0.37 79.5 0 0 333.83 195.38
  Q 334.24 195.91 334.51 196.55
  Q 334.68 196.96 334.75 197.39
  C 336.31 206.15 339.53 215.43 341.19 223.06
  Q 342.81 230.52 344.52 237.96
  C 345.76 243.34 348.55 249.56 349.14 256.16
  A 0.32 0.32 0.0 0 0 349.76 256.26
  Q 350.01 255.67 349.91 255.19"
/>
<path stroke="#808080" vector-effect="non-scaling-stroke" d="
  M 315.35 200.46
  Q 314.45 201.26 313.93 202.39
  Q 313.72 202.85 313.29 203.13
  Q 309.83 205.44 307.19 208.61
  C 304.50 211.82 299.98 216.06 297.26 218.52
  Q 284.54 230.02 271.88 242.76
  A 0.56 0.55 -60.8 0 0 272.14 243.69
  C 277.36 244.92 282.26 245.97 287.57 247.79
  Q 297.15 251.07 307.10 253.03
  C 309.82 253.57 312.02 255.27 314.70 255.93
  Q 322.51 257.88 329.34 259.77
  Q 331.55 260.38 331.08 258.13
  Q 329.64 251.37 328.48 245.20
  C 327.89 242.08 325.97 239.04 325.47 236.55
  Q 323.41 226.43 321.24 216.32
  C 320.03 210.71 317.26 205.74 316.98 199.34
  Q 316.96 198.84 316.52 199.08
  Q 316.07 199.33 315.83 199.84
  Q 315.65 200.20 315.35 200.46"
/>
<path stroke="#808080" vector-effect="non-scaling-stroke" d="
  M 196.40 290.18
  C 206.28 282.10 215.11 272.16 224.32 263.27
  C 227.17 260.52 232.82 256.00 236.55 251.69
  Q 236.93 251.25 236.36 251.11
  Q 227.02 248.93 217.78 246.39
  C 215.70 245.82 213.71 244.76 211.79 244.25
  Q 204.61 242.33 197.45 240.33
  C 192.56 238.97 185.23 236.27 178.76 234.74
  Q 177.94 234.54 177.97 235.38
  Q 178.07 238.81 179.20 242.52
  Q 183.11 255.28 185.82 268.35
  C 187.49 276.38 190.60 284.64 191.97 293.22
  Q 192.05 293.72 192.52 293.54
  C 194.34 292.88 195.42 290.98 196.40 290.18"
/>
<path stroke="#808080" vector-effect="non-scaling-stroke" d="
  M 326.45 277.77
  C 319.96 276.44 313.31 273.21 307.30 271.68
  C 301.47 270.20 296.06 268.98 290.05 266.95
  Q 280.74 263.80 271.06 261.95
  C 267.82 261.34 269.19 264.09 269.46 265.58
  C 271.56 277.14 275.22 288.43 277.54 299.62
  C 278.36 303.60 280.30 315.99 282.88 318.56
  Q 283.29 318.97 283.72 318.59
  C 296.72 307.18 308.70 294.66 321.34 282.84
  Q 323.69 280.65 326.63 278.66
  A 0.49 0.49 0.0 0 0 326.45 277.77"
/>
<path stroke="#808080" vector-effect="non-scaling-stroke" d="
  M 250.27 264.49
  A 0.33 0.33 0.0 0 0 249.72 264.34
  L 206.43 305.99
  A 0.33 0.33 0.0 0 0 206.57 306.54
  L 264.59 323.51
  A 0.33 0.33 0.0 0 0 265.00 323.12
  L 250.27 264.49"
/>
<path stroke="#808080" vector-effect="non-scaling-stroke" d="
  M 225.57 374.77
  C 237.37 364.53 247.62 352.29 259.65 342.49
  A 0.82 0.82 0.0 0 0 259.43 341.09
  C 248.06 336.66 236.36 334.11 224.67 330.37
  C 216.26 327.69 207.49 326.57 199.49 322.78
  Q 198.64 322.38 198.92 323.27
  Q 203.88 339.11 207.04 354.29
  C 209.07 364.00 212.62 373.27 213.91 383.51
  Q 213.98 384.06 214.53 383.98
  C 217.99 383.45 222.95 377.05 225.57 374.77"
/>
<path stroke="#808080" vector-effect="non-scaling-stroke" d="
  M 362.68 497.29
  Q 364.83 497.37 367.07 496.89
  Q 367.32 496.84 367.15 496.65
  C 362.81 491.64 358.36 489.36 352.03 491.65
  C 350.30 492.27 348.43 493.87 346.37 494.74
  A 1.16 1.16 0.0 0 0 346.82 496.96
  Q 354.34 496.99 362.68 497.29"
/>
<path stroke="#808080" vector-effect="non-scaling-stroke" d="
  M 301.70 497.03
  A 0.07 0.07 0.0 0 0 301.74 496.90
  C 299.59 495.52 298.90 493.41 296.77 492.39
  C 291.23 489.75 283.97 490.19 280.00 495.56
  A 0.90 0.89 -71.5 0 0 280.71 496.99
  L 301.70 497.03"
/>
</g>
<path fill="#000000" d="
  M 0.00 0.00
  L 600.00 0.00
  L 600.00 600.00
  L 0.00 600.00
  L 0.00 0.00
  Z
  M 214.56 409.81
  C 223.61 401.99 231.20 395.34 238.54 387.23
  C 240.15 385.44 242.50 384.25 244.13 382.06
  C 246.73 378.59 250.63 376.24 253.64 373.00
  C 255.22 371.31 257.27 370.13 258.69 368.69
  C 275.72 351.55 288.75 340.06 302.09 326.49
  C 302.95 325.62 304.24 324.93 305.07 323.85
  Q 306.49 322.01 306.93 321.60
  Q 318.92 310.47 330.66 299.09
  C 331.85 297.94 333.62 297.02 334.77 295.50
  Q 336.61 293.05 337.30 292.45
  Q 338.71 291.22 340.15 290.02
  C 343.15 287.51 345.71 284.52 348.78 282.02
  C 350.35 280.74 351.55 278.88 353.14 277.45
  C 361.55 269.86 369.15 261.39 377.66 253.81
  C 383.40 248.69 389.37 242.85 394.57 237.26
  C 400.35 231.03 407.99 224.43 412.89 219.71
  Q 417.31 215.44 421.77 211.22
  C 423.42 209.65 425.03 207.36 427.01 205.69
  C 430.76 202.53 434.00 198.51 437.43 196.18
  Q 438.72 195.30 439.20 194.62
  C 440.90 192.22 443.63 190.72 445.54 188.82
  Q 462.26 172.15 479.46 155.96
  C 484.34 151.37 489.76 146.75 487.03 140.65
  C 484.74 135.53 479.89 135.05 474.75 134.25
  C 473.21 134.01 470.72 132.04 468.66 131.50
  Q 459.75 129.17 450.81 126.99
  C 447.75 126.25 445.17 124.55 442.03 123.85
  C 431.87 121.59 421.91 118.15 412.02 115.48
  C 373.75 105.11 335.28 93.49 297.00 82.25
  Q 286.78 79.24 276.36 76.94
  C 274.33 76.49 272.98 74.95 270.70 74.44
  C 256.24 71.24 241.92 66.40 224.32 61.90
  C 222.22 61.36 220.09 59.86 217.82 59.26
  Q 209.30 57.02 200.75 54.92
  C 198.26 54.31 195.88 52.94 193.25 52.24
  Q 169.20 45.85 145.35 38.68
  C 138.36 36.58 130.79 34.85 123.50 32.82
  C 116.02 30.75 110.88 36.24 112.42 43.79
  Q 114.67 54.83 117.01 65.87
  C 117.70 69.17 119.61 72.19 120.19 75.06
  Q 122.12 84.70 124.04 94.34
  C 124.78 98.12 126.61 101.41 127.39 105.22
  Q 128.94 112.91 130.72 120.54
  C 131.75 124.99 134.19 132.35 135.48 139.00
  C 137.09 147.26 141.23 160.01 143.42 170.72
  C 144.53 176.16 145.52 181.81 147.14 187.11
  C 149.56 195.06 151.15 202.98 152.87 211.08
  C 153.57 214.40 155.48 218.09 156.02 220.74
  Q 158.37 232.39 160.52 240.43
  C 163.46 251.38 165.04 258.07 166.84 267.11
  C 167.69 271.42 169.64 275.79 170.68 280.32
  Q 172.54 288.45 174.20 296.63
  C 174.77 299.39 176.21 302.18 176.81 305.19
  Q 178.95 315.78 181.77 326.20
  C 184.89 337.75 186.88 346.63 188.95 357.01
  C 189.77 361.12 191.68 364.73 192.55 368.85
  C 194.23 376.87 196.00 384.74 198.10 392.65
  Q 199.21 396.82 200.49 403.49
  C 201.68 409.72 208.75 414.84 214.56 409.81
  Z
  M 169.78 475.98
  Q 170.76 465.11 168.93 454.36
  C 167.35 445.03 154.25 443.30 149.74 451.30
  Q 147.86 454.64 147.91 457.75
  C 148.42 486.52 147.47 506.51 148.33 530.86
  Q 148.35 531.36 147.86 531.26
  L 147.35 531.16
  Q 146.79 531.05 146.81 530.47
  C 147.21 521.13 135.09 523.27 129.41 522.92
  Q 128.89 522.89 128.73 522.40
  Q 127.76 519.41 127.75 516.24
  Q 127.72 504.30 127.76 492.22
  Q 127.76 491.68 128.30 491.77
  C 132.57 492.53 140.36 492.43 143.26 488.57
  C 145.54 485.53 147.91 483.38 146.12 479.18
  C 142.64 471.00 135.35 473.26 128.29 473.24
  Q 127.77 473.24 127.76 472.72
  C 127.67 467.67 129.61 461.81 122.23 461.10
  C 113.15 460.23 115.30 465.55 109.55 468.06
  A 1.98 1.88 -82.0 0 0 108.78 468.67
  Q 106.49 471.75 103.88 474.52
  C 102.75 475.72 100.91 476.17 99.90 477.91
  C 98.38 480.51 96.65 483.09 97.53 486.17
  Q 99.26 492.20 106.40 492.08
  A 0.55 0.54 -0.5 0 1 106.96 492.62
  Q 106.92 508.69 107.51 524.74
  C 108.45 550.39 148.08 544.62 146.88 533.82
  A 0.78 0.78 0.0 0 1 148.41 533.51
  Q 151.82 545.31 163.68 541.12
  A 1.74 1.74 0.0 0 0 164.56 540.42
  Q 165.57 538.81 167.22 537.89
  Q 167.70 537.62 167.93 537.12
  Q 169.93 532.90 169.97 526.74
  Q 170.04 515.48 169.99 504.18
  Q 169.97 498.96 171.02 496.94
  C 173.91 491.42 182.69 491.14 187.89 492.44
  Q 188.36 492.55 188.54 493.00
  Q 191.25 499.69 191.25 505.25
  Q 191.24 519.59 191.27 533.94
  C 191.30 546.03 212.00 545.04 212.00 531.00
  Q 212.00 514.42 212.00 497.85
  C 212.00 491.79 210.24 488.18 207.08 482.89
  C 200.59 472.01 189.45 470.93 178.25 472.49
  Q 173.56 473.14 169.93 476.07
  Q 169.76 476.21 169.78 475.98
  Z
  M 444.7030 458.8375
  A 9.92 9.92 0.0 0 0 434.9225 448.7799
  L 432.2227 448.7422
  A 9.92 9.92 0.0 0 0 422.1652 458.5227
  L 422.1370 460.5425
  A 9.92 9.92 0.0 0 0 431.9175 470.6001
  L 434.6173 470.6378
  A 9.92 9.92 0.0 0 0 444.6748 460.8573
  L 444.7030 458.8375
  Z
  M 346.06 516.00
  Q 362.78 516.08 379.50 515.78
  Q 381.08 515.76 383.77 514.47
  C 395.35 508.91 385.56 482.77 377.42 477.82
  Q 358.23 466.14 338.26 475.97
  Q 337.23 476.48 336.14 477.56
  C 334.45 479.23 332.55 480.24 331.20 482.01
  C 324.91 490.19 323.77 497.58 323.07 508.77
  C 322.59 516.41 327.27 528.40 333.22 533.86
  C 342.50 542.36 355.83 544.84 367.92 542.30
  C 373.37 541.16 378.92 538.19 384.25 535.70
  Q 384.71 535.49 384.97 535.06
  C 391.03 524.95 382.52 514.38 371.46 520.35
  C 364.50 524.10 354.48 524.84 349.26 518.67
  Q 348.89 518.24 348.35 518.12
  Q 346.75 517.76 345.83 516.41
  Q 345.55 515.99 346.06 516.00
  Z
  M 259.89 490.81
  C 256.75 502.18 255.86 512.70 260.06 523.83
  C 261.36 527.26 265.47 532.83 268.31 534.94
  Q 284.48 546.94 304.24 541.71
  C 308.83 540.50 313.50 537.83 318.22 535.83
  Q 318.68 535.64 318.94 535.21
  C 322.48 529.45 321.65 520.82 314.23 519.00
  Q 309.39 517.81 305.08 520.55
  C 299.83 523.89 291.63 523.46 285.79 522.21
  Q 285.32 522.11 285.16 521.65
  C 284.28 518.98 281.75 518.64 279.91 516.67
  A 0.41 0.41 0.0 0 1 280.21 515.98
  Q 295.96 516.05 311.69 515.95
  Q 315.57 515.93 320.19 513.46
  A 1.33 1.31 87.1 0 0 320.81 512.76
  Q 322.46 508.40 322.80 503.82
  C 323.16 498.75 320.83 489.62 318.30 485.73
  C 308.28 470.32 288.20 468.48 272.63 475.49
  C 270.20 476.59 266.42 480.57 264.91 482.76
  A 0.61 0.61 0.0 0 1 263.80 482.34
  C 265.40 468.79 247.75 471.08 240.60 474.66
  C 239.63 475.15 238.94 475.01 237.91 475.00
  A 1.81 1.71 -26.8 0 1 237.00 474.73
  C 229.54 469.98 218.89 472.26 218.96 482.75
  Q 219.11 505.56 219.25 528.37
  Q 219.28 533.94 220.65 536.76
  C 224.12 543.94 233.36 543.82 237.98 537.96
  Q 240.91 534.25 240.93 529.01
  Q 240.97 515.31 241.02 501.62
  C 241.04 494.66 244.66 492.93 251.24 492.16
  Q 255.42 491.67 259.45 490.39
  Q 260.06 490.19 259.89 490.81
  Z
  M 469.74 493.83
  C 470.92 489.26 486.60 492.30 490.20 492.70
  C 497.94 493.57 503.80 489.16 502.11 481.20
  C 499.79 470.27 475.30 471.34 466.94 472.74
  C 450.62 475.47 445.54 492.23 452.13 505.97
  C 453.23 508.27 458.90 512.67 461.32 513.40
  Q 467.72 515.35 474.26 516.84
  C 477.24 517.52 479.57 519.24 482.48 520.13
  A 1.16 1.16 0.0 0 1 482.42 522.36
  Q 472.97 524.70 465.01 520.83
  C 461.82 519.28 458.18 518.23 455.31 519.09
  C 448.99 520.98 446.96 532.26 452.95 535.98
  C 466.66 544.52 483.47 546.32 496.99 536.50
  C 506.92 529.28 506.33 511.08 496.23 504.24
  C 488.36 498.90 479.71 497.46 470.65 495.34
  A 1.23 1.23 0.0 0 1 469.74 493.83
  Z
  M 422.79 549.95
  C 418.12 550.18 411.68 549.87 409.13 554.53
  C 405.98 560.28 409.42 566.53 415.77 568.20
  Q 426.06 570.90 434.87 566.45
  C 442.14 562.78 443.74 556.61 443.75 549.00
  Q 443.76 519.34 443.74 489.68
  C 443.74 483.44 445.46 477.99 439.21 474.17
  C 433.65 470.78 427.45 472.93 423.58 477.76
  A 1.50 1.47 -26.0 0 0 423.25 478.69
  L 423.25 549.47
  Q 423.25 549.93 422.79 549.95
  Z
  M 391.53 534.27
  C 392.91 536.08 395.44 539.80 396.69 540.58
  C 405.24 545.86 415.93 539.05 415.54 529.25
  C 415.13 518.96 400.85 513.66 394.11 522.31
  C 391.08 526.21 387.81 529.38 391.53 534.27
  Z"
/>
<path fill="#ffffff" d="
  M 238.54 387.23
  C 231.20 395.34 223.61 401.99 214.56 409.81
  C 208.75 414.84 201.68 409.72 200.49 403.49
  Q 199.21 396.82 198.10 392.65
  C 196.00 384.74 194.23 376.87 192.55 368.85
  C 191.68 364.73 189.77 361.12 188.95 357.01
  C 186.88 346.63 184.89 337.75 181.77 326.20
  Q 178.95 315.78 176.81 305.19
  C 176.21 302.18 174.77 299.39 174.20 296.63
  Q 172.54 288.45 170.68 280.32
  C 169.64 275.79 167.69 271.42 166.84 267.11
  C 165.04 258.07 163.46 251.38 160.52 240.43
  Q 158.37 232.39 156.02 220.74
  C 155.48 218.09 153.57 214.40 152.87 211.08
  C 151.15 202.98 149.56 195.06 147.14 187.11
  C 145.52 181.81 144.53 176.16 143.42 170.72
  C 141.23 160.01 137.09 147.26 135.48 139.00
  C 134.19 132.35 131.75 124.99 130.72 120.54
  Q 128.94 112.91 127.39 105.22
  C 126.61 101.41 124.78 98.12 124.04 94.34
  Q 122.12 84.70 120.19 75.06
  C 119.61 72.19 117.70 69.17 117.01 65.87
  Q 114.67 54.83 112.42 43.79
  C 110.88 36.24 116.02 30.75 123.50 32.82
  C 130.79 34.85 138.36 36.58 145.35 38.68
  Q 169.20 45.85 193.25 52.24
  C 195.88 52.94 198.26 54.31 200.75 54.92
  Q 209.30 57.02 217.82 59.26
  C 220.09 59.86 222.22 61.36 224.32 61.90
  C 241.92 66.40 256.24 71.24 270.70 74.44
  C 272.98 74.95 274.33 76.49 276.36 76.94
  Q 286.78 79.24 297.00 82.25
  C 335.28 93.49 373.75 105.11 412.02 115.48
  C 421.91 118.15 431.87 121.59 442.03 123.85
  C 445.17 124.55 447.75 126.25 450.81 126.99
  Q 459.75 129.17 468.66 131.50
  C 470.72 132.04 473.21 134.01 474.75 134.25
  C 479.89 135.05 484.74 135.53 487.03 140.65
  C 489.76 146.75 484.34 151.37 479.46 155.96
  Q 462.26 172.15 445.54 188.82
  C 443.63 190.72 440.90 192.22 439.20 194.62
  Q 438.72 195.30 437.43 196.18
  C 434.00 198.51 430.76 202.53 427.01 205.69
  C 425.03 207.36 423.42 209.65 421.77 211.22
  Q 417.31 215.44 412.89 219.71
  C 407.99 224.43 400.35 231.03 394.57 237.26
  C 389.37 242.85 383.40 248.69 377.66 253.81
  C 369.15 261.39 361.55 269.86 353.14 277.45
  C 351.55 278.88 350.35 280.74 348.78 282.02
  C 345.71 284.52 343.15 287.51 340.15 290.02
  Q 338.71 291.22 337.30 292.45
  Q 336.61 293.05 334.77 295.50
  C 333.62 297.02 331.85 297.94 330.66 299.09
  Q 318.92 310.47 306.93 321.60
  Q 306.49 322.01 305.07 323.85
  C 304.24 324.93 302.95 325.62 302.09 326.49
  C 288.75 340.06 275.72 351.55 258.69 368.69
  C 257.27 370.13 255.22 371.31 253.64 373.00
  C 250.63 376.24 246.73 378.59 244.13 382.06
  C 242.50 384.25 240.15 385.44 238.54 387.23
  Z
  M 149.08 113.49
  L 192.24 72.00
  A 1.00 1.00 0.0 0 0 191.76 70.31
  Q 186.60 69.15 181.34 67.73
  C 174.30 65.84 165.88 62.76 157.89 60.82
  C 149.78 58.84 141.58 55.65 133.10 53.90
  Q 132.05 53.68 132.81 54.44
  L 133.16 54.78
  Q 133.55 55.17 133.63 55.71
  C 134.97 64.53 138.25 73.76 139.93 81.34
  Q 143.53 97.58 148.01 113.20
  A 0.65 0.64 -29.8 0 0 149.08 113.49
  Z
  M 246.49 130.79
  C 258.23 120.27 269.75 109.07 280.55 97.58
  A 0.60 0.59 29.4 0 0 280.27 96.61
  C 275.39 95.25 270.87 92.94 266.14 91.84
  C 252.65 88.70 241.39 84.35 228.78 81.35
  Q 225.63 80.60 223.11 78.50
  A 0.35 0.35 0.0 0 0 222.55 78.88
  C 223.78 82.77 225.29 86.47 226.14 90.47
  C 229.37 105.51 234.32 121.81 237.21 138.99
  Q 237.30 139.55 237.76 139.21
  C 241.07 136.78 243.82 133.19 246.49 130.79
  Z
  M 204.95 84.81
  C 193.97 94.73 185.00 104.90 174.09 114.03
  Q 166.96 120.01 164.88 122.88
  Q 162.47 126.22 159.63 127.00
  A 0.25 0.25 0.0 0 0 159.64 127.48
  Q 160.17 127.62 160.53 127.35
  A 1.13 1.13 0.0 0 1 161.43 127.17
  C 174.36 130.18 186.81 134.43 199.66 137.65
  C 205.45 139.10 211.94 141.77 218.51 143.12
  A 1.24 1.23 -83.1 0 0 219.99 141.95
  C 220.14 137.70 217.64 133.62 216.72 129.41
  C 214.96 121.28 213.48 113.94 210.96 105.31
  Q 208.09 95.50 206.35 85.30
  Q 206.09 83.78 204.95 84.81
  Z
  M 327.80 164.44
  C 339.41 152.44 351.61 141.26 363.60 129.75
  C 365.27 128.15 367.72 125.04 370.43 123.11
  A 0.63 0.63 0.0 0 0 370.24 122.00
  L 314.11 105.52
  A 1.00 0.99 -85.4 0 0 312.85 106.60
  C 314.13 117.21 317.81 126.87 319.90 137.14
  Q 322.72 150.95 327.21 164.31
  Q 327.39 164.85 327.80 164.44
  Z
  M 253.04 152.38
  Q 265.72 157.05 278.90 160.04
  C 281.52 160.64 283.88 162.22 286.76 162.96
  C 295.33 165.16 303.89 166.42 307.97 168.80
  A 0.77 0.77 0.0 0 0 309.12 167.97
  C 307.38 159.99 304.59 152.03 303.11 144.91
  Q 301.38 136.58 299.50 128.27
  C 298.32 123.06 295.84 116.67 294.81 110.54
  Q 294.72 110.00 294.31 110.36
  C 287.56 116.38 280.98 122.56 274.31 128.73
  C 270.24 132.49 266.56 136.89 262.47 140.58
  C 258.12 144.49 255.14 148.79 249.84 151.91
  A 0.22 0.19 -65.1 0 0 249.96 152.30
  C 251.26 151.94 251.75 151.90 253.04 152.38
  Z
  M 415.74 192.65
  Q 415.38 193.24 415.59 193.90
  Q 415.81 194.56 416.00 193.89
  L 416.93 190.70
  Q 417.09 190.15 417.56 189.84
  Q 419.81 188.35 421.69 186.45
  C 433.73 174.27 448.09 161.68 460.68 148.64
  Q 461.12 148.19 460.50 148.05
  Q 453.51 146.50 446.83 143.99
  C 439.09 141.09 431.41 139.78 422.96 136.95
  Q 412.37 133.39 401.29 131.65
  Q 400.82 131.57 400.94 132.03
  C 402.08 136.69 404.22 141.11 405.14 145.48
  Q 406.53 152.07 407.92 158.64
  Q 408.93 163.38 411.38 171.64
  Q 414.31 181.49 415.93 191.70
  Q 416.01 192.21 415.74 192.65
  Z
  M 397.60 194.84
  A 0.26 0.26 0.0 0 0 397.91 194.53
  Q 395.60 183.59 393.25 172.50
  C 392.50 168.99 390.74 165.32 389.97 161.73
  C 388.31 153.91 387.14 143.63 383.80 136.49
  A 0.82 0.82 0.0 0 0 382.32 136.47
  C 381.25 138.64 378.84 139.76 377.48 141.09
  C 365.14 153.20 352.94 165.71 339.93 177.06
  A 0.96 0.96 0.0 0 0 340.44 178.74
  C 348.65 179.87 356.70 183.38 363.57 185.16
  C 371.34 187.17 377.99 188.80 386.46 191.72
  Q 391.91 193.60 397.60 194.84
  Z
  M 212.06 160.19
  C 207.74 157.88 202.25 156.86 198.72 155.82
  C 194.72 154.64 190.55 153.79 186.74 152.61
  Q 174.36 148.77 161.74 145.76
  C 159.29 145.18 157.26 144.02 155.17 142.72
  Q 154.52 142.32 154.71 143.06
  L 170.04 203.29
  Q 170.18 203.83 170.65 203.53
  C 174.27 201.25 177.13 197.61 179.44 195.39
  Q 188.29 186.88 197.45 178.68
  C 198.93 177.35 200.12 175.48 201.81 174.08
  C 205.84 170.75 209.16 166.74 213.14 163.33
  Q 214.35 162.30 213.31 161.09
  Q 212.51 160.15 212.06 160.19
  Z
  M 255.55 171.98
  Q 251.27 170.49 247.01 169.89
  A 0.60 0.59 88.9 0 0 246.34 170.59
  Q 248.73 183.91 252.35 197.10
  Q 254.60 205.31 255.77 210.89
  C 256.94 216.49 257.62 223.72 260.01 228.85
  Q 260.27 229.39 260.65 228.94
  C 263.88 225.16 268.19 221.79 271.17 218.76
  Q 280.58 209.20 290.27 199.93
  C 291.36 198.89 292.34 197.29 293.45 196.45
  Q 297.66 193.26 301.24 189.36
  C 302.18 188.34 303.46 187.91 304.36 187.01
  Q 305.18 186.18 304.04 185.93
  Q 294.47 183.81 285.34 180.83
  C 275.39 177.57 265.38 175.38 255.55 171.98
  Z
  M 184.70 217.82
  Q 188.70 219.67 192.99 220.81
  Q 215.04 226.68 236.91 233.19
  C 238.54 233.67 240.18 234.71 241.94 235.09
  A 0.96 0.96 0.0 0 0 243.09 233.98
  C 242.02 228.15 239.62 222.05 238.50 217.28
  C 236.70 209.60 235.36 202.67 232.92 194.45
  Q 230.18 185.25 229.09 176.02
  A 1.09 1.08 71.9 0 0 227.48 175.20
  C 223.98 177.18 221.67 180.55 219.17 182.60
  Q 211.57 188.88 204.61 195.87
  C 198.09 202.42 191.57 209.76 184.42 215.54
  A 1.35 1.35 0.0 0 0 184.70 217.82
  Z
  M 349.91 255.19
  A 0.75 0.74 68.7 0 1 350.25 254.40
  Q 354.61 251.69 357.94 247.97
  C 359.71 245.99 361.83 244.53 363.65 242.54
  Q 365.83 240.15 367.79 238.39
  C 370.20 236.25 372.16 233.53 374.40 231.54
  Q 384.40 222.64 393.87 213.54
  A 0.82 0.82 0.0 0 0 393.45 212.14
  C 387.05 210.97 380.62 208.06 375.03 206.65
  C 363.20 203.67 350.57 199.22 339.97 196.80
  C 338.05 196.37 336.23 195.38 334.23 194.79
  A 0.38 0.37 79.5 0 0 333.83 195.38
  Q 334.24 195.91 334.51 196.55
  Q 334.68 196.96 334.75 197.39
  C 336.31 206.15 339.53 215.43 341.19 223.06
  Q 342.81 230.52 344.52 237.96
  C 345.76 243.34 348.55 249.56 349.14 256.16
  A 0.32 0.32 0.0 0 0 349.76 256.26
  Q 350.01 255.67 349.91 255.19
  Z
  M 315.35 200.46
  Q 314.45 201.26 313.93 202.39
  Q 313.72 202.85 313.29 203.13
  Q 309.83 205.44 307.19 208.61
  C 304.50 211.82 299.98 216.06 297.26 218.52
  Q 284.54 230.02 271.88 242.76
  A 0.56 0.55 -60.8 0 0 272.14 243.69
  C 277.36 244.92 282.26 245.97 287.57 247.79
  Q 297.15 251.07 307.10 253.03
  C 309.82 253.57 312.02 255.27 314.70 255.93
  Q 322.51 257.88 329.34 259.77
  Q 331.55 260.38 331.08 258.13
  Q 329.64 251.37 328.48 245.20
  C 327.89 242.08 325.97 239.04 325.47 236.55
  Q 323.41 226.43 321.24 216.32
  C 320.03 210.71 317.26 205.74 316.98 199.34
  Q 316.96 198.84 316.52 199.08
  Q 316.07 199.33 315.83 199.84
  Q 315.65 200.20 315.35 200.46
  Z
  M 196.40 290.18
  C 206.28 282.10 215.11 272.16 224.32 263.27
  C 227.17 260.52 232.82 256.00 236.55 251.69
  Q 236.93 251.25 236.36 251.11
  Q 227.02 248.93 217.78 246.39
  C 215.70 245.82 213.71 244.76 211.79 244.25
  Q 204.61 242.33 197.45 240.33
  C 192.56 238.97 185.23 236.27 178.76 234.74
  Q 177.94 234.54 177.97 235.38
  Q 178.07 238.81 179.20 242.52
  Q 183.11 255.28 185.82 268.35
  C 187.49 276.38 190.60 284.64 191.97 293.22
  Q 192.05 293.72 192.52 293.54
  C 194.34 292.88 195.42 290.98 196.40 290.18
  Z
  M 326.45 277.77
  C 319.96 276.44 313.31 273.21 307.30 271.68
  C 301.47 270.20 296.06 268.98 290.05 266.95
  Q 280.74 263.80 271.06 261.95
  C 267.82 261.34 269.19 264.09 269.46 265.58
  C 271.56 277.14 275.22 288.43 277.54 299.62
  C 278.36 303.60 280.30 315.99 282.88 318.56
  Q 283.29 318.97 283.72 318.59
  C 296.72 307.18 308.70 294.66 321.34 282.84
  Q 323.69 280.65 326.63 278.66
  A 0.49 0.49 0.0 0 0 326.45 277.77
  Z
  M 250.27 264.49
  A 0.33 0.33 0.0 0 0 249.72 264.34
  L 206.43 305.99
  A 0.33 0.33 0.0 0 0 206.57 306.54
  L 264.59 323.51
  A 0.33 0.33 0.0 0 0 265.00 323.12
  L 250.27 264.49
  Z
  M 225.57 374.77
  C 237.37 364.53 247.62 352.29 259.65 342.49
  A 0.82 0.82 0.0 0 0 259.43 341.09
  C 248.06 336.66 236.36 334.11 224.67 330.37
  C 216.26 327.69 207.49 326.57 199.49 322.78
  Q 198.64 322.38 198.92 323.27
  Q 203.88 339.11 207.04 354.29
  C 209.07 364.00 212.62 373.27 213.91 383.51
  Q 213.98 384.06 214.53 383.98
  C 217.99 383.45 222.95 377.05 225.57 374.77
  Z"
/>
<path fill="#000000" d="
  M 192.24 72.00
  L 149.08 113.49
  A 0.65 0.64 -29.8 0 1 148.01 113.20
  Q 143.53 97.58 139.93 81.34
  C 138.25 73.76 134.97 64.53 133.63 55.71
  Q 133.55 55.17 133.16 54.78
  L 132.81 54.44
  Q 132.05 53.68 133.10 53.90
  C 141.58 55.65 149.78 58.84 157.89 60.82
  C 165.88 62.76 174.30 65.84 181.34 67.73
  Q 186.60 69.15 191.76 70.31
  A 1.00 1.00 0.0 0 1 192.24 72.00
  Z"
/>
<path fill="#000000" d="
  M 280.55 97.58
  C 269.75 109.07 258.23 120.27 246.49 130.79
  C 243.82 133.19 241.07 136.78 237.76 139.21
  Q 237.30 139.55 237.21 138.99
  C 234.32 121.81 229.37 105.51 226.14 90.47
  C 225.29 86.47 223.78 82.77 222.55 78.88
  A 0.35 0.35 0.0 0 1 223.11 78.50
  Q 225.63 80.60 228.78 81.35
  C 241.39 84.35 252.65 88.70 266.14 91.84
  C 270.87 92.94 275.39 95.25 280.27 96.61
  A 0.60 0.59 29.4 0 1 280.55 97.58
  Z"
/>
<path fill="#000000" d="
  M 174.09 114.03
  C 185.00 104.90 193.97 94.73 204.95 84.81
  Q 206.09 83.78 206.35 85.30
  Q 208.09 95.50 210.96 105.31
  C 213.48 113.94 214.96 121.28 216.72 129.41
  C 217.64 133.62 220.14 137.70 219.99 141.95
  A 1.24 1.23 -83.1 0 1 218.51 143.12
  C 211.94 141.77 205.45 139.10 199.66 137.65
  C 186.81 134.43 174.36 130.18 161.43 127.17
  A 1.13 1.13 0.0 0 0 160.53 127.35
  Q 160.17 127.62 159.64 127.48
  A 0.25 0.25 0.0 0 1 159.63 127.00
  Q 162.47 126.22 164.88 122.88
  Q 166.96 120.01 174.09 114.03
  Z"
/>
<path fill="#000000" d="
  M 363.60 129.75
  C 351.61 141.26 339.41 152.44 327.80 164.44
  Q 327.39 164.85 327.21 164.31
  Q 322.72 150.95 319.90 137.14
  C 317.81 126.87 314.13 117.21 312.85 106.60
  A 1.00 0.99 -85.4 0 1 314.11 105.52
  L 370.24 122.00
  A 0.63 0.63 0.0 0 1 370.43 123.11
  C 367.72 125.04 365.27 128.15 363.60 129.75
  Z"
/>
<path fill="#000000" d="
  M 253.04 152.38
  C 251.75 151.90 251.26 151.94 249.96 152.30
  A 0.22 0.19 -65.1 0 1 249.84 151.91
  C 255.14 148.79 258.12 144.49 262.47 140.58
  C 266.56 136.89 270.24 132.49 274.31 128.73
  C 280.98 122.56 287.56 116.38 294.31 110.36
  Q 294.72 110.00 294.81 110.54
  C 295.84 116.67 298.32 123.06 299.50 128.27
  Q 301.38 136.58 303.11 144.91
  C 304.59 152.03 307.38 159.99 309.12 167.97
  A 0.77 0.77 0.0 0 1 307.97 168.80
  C 303.89 166.42 295.33 165.16 286.76 162.96
  C 283.88 162.22 281.52 160.64 278.90 160.04
  Q 265.72 157.05 253.04 152.38
  Z"
/>
<path fill="#000000" d="
  M 415.93 191.70
  Q 414.31 181.49 411.38 171.64
  Q 408.93 163.38 407.92 158.64
  Q 406.53 152.07 405.14 145.48
  C 404.22 141.11 402.08 136.69 400.94 132.03
  Q 400.82 131.57 401.29 131.65
  Q 412.37 133.39 422.96 136.95
  C 431.41 139.78 439.09 141.09 446.83 143.99
  Q 453.51 146.50 460.50 148.05
  Q 461.12 148.19 460.68 148.64
  C 448.09 161.68 433.73 174.27 421.69 186.45
  Q 419.81 188.35 417.56 189.84
  Q 417.09 190.15 416.93 190.70
  L 416.00 193.89
  Q 415.81 194.56 415.59 193.90
  Q 415.38 193.24 415.74 192.65
  Q 416.01 192.21 415.93 191.70
  Z"
/>
<path fill="#000000" d="
  M 397.60 194.84
  Q 391.91 193.60 386.46 191.72
  C 377.99 188.80 371.34 187.17 363.57 185.16
  C 356.70 183.38 348.65 179.87 340.44 178.74
  A 0.96 0.96 0.0 0 1 339.93 177.06
  C 352.94 165.71 365.14 153.20 377.48 141.09
  C 378.84 139.76 381.25 138.64 382.32 136.47
  A 0.82 0.82 0.0 0 1 383.80 136.49
  C 387.14 143.63 388.31 153.91 389.97 161.73
  C 390.74 165.32 392.50 168.99 393.25 172.50
  Q 395.60 183.59 397.91 194.53
  A 0.26 0.26 0.0 0 1 397.60 194.84
  Z"
/>
<path fill="#000000" d="
  M 212.06 160.19
  Q 212.51 160.15 213.31 161.09
  Q 214.35 162.30 213.14 163.33
  C 209.16 166.74 205.84 170.75 201.81 174.08
  C 200.12 175.48 198.93 177.35 197.45 178.68
  Q 188.29 186.88 179.44 195.39
  C 177.13 197.61 174.27 201.25 170.65 203.53
  Q 170.18 203.83 170.04 203.29
  L 154.71 143.06
  Q 154.52 142.32 155.17 142.72
  C 157.26 144.02 159.29 145.18 161.74 145.76
  Q 174.36 148.77 186.74 152.61
  C 190.55 153.79 194.72 154.64 198.72 155.82
  C 202.25 156.86 207.74 157.88 212.06 160.19
  Z"
/>
<path fill="#000000" d="
  M 255.55 171.98
  C 265.38 175.38 275.39 177.57 285.34 180.83
  Q 294.47 183.81 304.04 185.93
  Q 305.18 186.18 304.36 187.01
  C 303.46 187.91 302.18 188.34 301.24 189.36
  Q 297.66 193.26 293.45 196.45
  C 292.34 197.29 291.36 198.89 290.27 199.93
  Q 280.58 209.20 271.17 218.76
  C 268.19 221.79 263.88 225.16 260.65 228.94
  Q 260.27 229.39 260.01 228.85
  C 257.62 223.72 256.94 216.49 255.77 210.89
  Q 254.60 205.31 252.35 197.10
  Q 248.73 183.91 246.34 170.59
  A 0.60 0.59 88.9 0 1 247.01 169.89
  Q 251.27 170.49 255.55 171.98
  Z"
/>
<path fill="#000000" d="
  M 184.70 217.82
  A 1.35 1.35 0.0 0 1 184.42 215.54
  C 191.57 209.76 198.09 202.42 204.61 195.87
  Q 211.57 188.88 219.17 182.60
  C 221.67 180.55 223.98 177.18 227.48 175.20
  A 1.09 1.08 71.9 0 1 229.09 176.02
  Q 230.18 185.25 232.92 194.45
  C 235.36 202.67 236.70 209.60 238.50 217.28
  C 239.62 222.05 242.02 228.15 243.09 233.98
  A 0.96 0.96 0.0 0 1 241.94 235.09
  C 240.18 234.71 238.54 233.67 236.91 233.19
  Q 215.04 226.68 192.99 220.81
  Q 188.70 219.67 184.70 217.82
  Z"
/>
<path fill="#000000" d="
  M 349.91 255.19
  Q 350.01 255.67 349.76 256.26
  A 0.32 0.32 0.0 0 1 349.14 256.16
  C 348.55 249.56 345.76 243.34 344.52 237.96
  Q 342.81 230.52 341.19 223.06
  C 339.53 215.43 336.31 206.15 334.75 197.39
  Q 334.68 196.96 334.51 196.55
  Q 334.24 195.91 333.83 195.38
  A 0.38 0.37 79.5 0 1 334.23 194.79
  C 336.23 195.38 338.05 196.37 339.97 196.80
  C 350.57 199.22 363.20 203.67 375.03 206.65
  C 380.62 208.06 387.05 210.97 393.45 212.14
  A 0.82 0.82 0.0 0 1 393.87 213.54
  Q 384.40 222.64 374.40 231.54
  C 372.16 233.53 370.20 236.25 367.79 238.39
  Q 365.83 240.15 363.65 242.54
  C 361.83 244.53 359.71 245.99 357.94 247.97
  Q 354.61 251.69 350.25 254.40
  A 0.75 0.74 68.7 0 0 349.91 255.19
  Z"
/>
<path fill="#000000" d="
  M 315.83 199.84
  Q 316.07 199.33 316.52 199.08
  Q 316.96 198.84 316.98 199.34
  C 317.26 205.74 320.03 210.71 321.24 216.32
  Q 323.41 226.43 325.47 236.55
  C 325.97 239.04 327.89 242.08 328.48 245.20
  Q 329.64 251.37 331.08 258.13
  Q 331.55 260.38 329.34 259.77
  Q 322.51 257.88 314.70 255.93
  C 312.02 255.27 309.82 253.57 307.10 253.03
  Q 297.15 251.07 287.57 247.79
  C 282.26 245.97 277.36 244.92 272.14 243.69
  A 0.56 0.55 -60.8 0 1 271.88 242.76
  Q 284.54 230.02 297.26 218.52
  C 299.98 216.06 304.50 211.82 307.19 208.61
  Q 309.83 205.44 313.29 203.13
  Q 313.72 202.85 313.93 202.39
  Q 314.45 201.26 315.35 200.46
  Q 315.65 200.20 315.83 199.84
  Z"
/>
<path fill="#000000" d="
  M 196.40 290.18
  C 195.42 290.98 194.34 292.88 192.52 293.54
  Q 192.05 293.72 191.97 293.22
  C 190.60 284.64 187.49 276.38 185.82 268.35
  Q 183.11 255.28 179.20 242.52
  Q 178.07 238.81 177.97 235.38
  Q 177.94 234.54 178.76 234.74
  C 185.23 236.27 192.56 238.97 197.45 240.33
  Q 204.61 242.33 211.79 244.25
  C 213.71 244.76 215.70 245.82 217.78 246.39
  Q 227.02 248.93 236.36 251.11
  Q 236.93 251.25 236.55 251.69
  C 232.82 256.00 227.17 260.52 224.32 263.27
  C 215.11 272.16 206.28 282.10 196.40 290.18
  Z"
/>
<path fill="#000000" d="
  M 307.30 271.68
  C 313.31 273.21 319.96 276.44 326.45 277.77
  A 0.49 0.49 0.0 0 1 326.63 278.66
  Q 323.69 280.65 321.34 282.84
  C 308.70 294.66 296.72 307.18 283.72 318.59
  Q 283.29 318.97 282.88 318.56
  C 280.30 315.99 278.36 303.60 277.54 299.62
  C 275.22 288.43 271.56 277.14 269.46 265.58
  C 269.19 264.09 267.82 261.34 271.06 261.95
  Q 280.74 263.80 290.05 266.95
  C 296.06 268.98 301.47 270.20 307.30 271.68
  Z"
/>
<path fill="#000000" d="
  M 250.27 264.49
  L 265.00 323.12
  A 0.33 0.33 0.0 0 1 264.59 323.51
  L 206.57 306.54
  A 0.33 0.33 0.0 0 1 206.43 305.99
  L 249.72 264.34
  A 0.33 0.33 0.0 0 1 250.27 264.49
  Z"
/>
<path fill="#000000" d="
  M 259.65 342.49
  C 247.62 352.29 237.37 364.53 225.57 374.77
  C 222.95 377.05 217.99 383.45 214.53 383.98
  Q 213.98 384.06 213.91 383.51
  C 212.62 373.27 209.07 364.00 207.04 354.29
  Q 203.88 339.11 198.92 323.27
  Q 198.64 322.38 199.49 322.78
  C 207.49 326.57 216.26 327.69 224.67 330.37
  C 236.36 334.11 248.06 336.66 259.43 341.09
  A 0.82 0.82 0.0 0 1 259.65 342.49
  Z"
/>
<path fill="#ffffff" d="
  M 169.93 476.07
  Q 173.56 473.14 178.25 472.49
  C 189.45 470.93 200.59 472.01 207.08 482.89
  C 210.24 488.18 212.00 491.79 212.00 497.85
  Q 212.00 514.42 212.00 531.00
  C 212.00 545.04 191.30 546.03 191.27 533.94
  Q 191.24 519.59 191.25 505.25
  Q 191.25 499.69 188.54 493.00
  Q 188.36 492.55 187.89 492.44
  C 182.69 491.14 173.91 491.42 171.02 496.94
  Q 169.97 498.96 169.99 504.18
  Q 170.04 515.48 169.97 526.74
  Q 169.93 532.90 167.93 537.12
  Q 167.70 537.62 167.22 537.89
  Q 165.57 538.81 164.56 540.42
  A 1.74 1.74 0.0 0 1 163.68 541.12
  Q 151.82 545.31 148.41 533.51
  A 0.78 0.78 0.0 0 0 146.88 533.82
  C 148.08 544.62 108.45 550.39 107.51 524.74
  Q 106.92 508.69 106.96 492.62
  A 0.55 0.54 -0.5 0 0 106.40 492.08
  Q 99.26 492.20 97.53 486.17
  C 96.65 483.09 98.38 480.51 99.90 477.91
  C 100.91 476.17 102.75 475.72 103.88 474.52
  Q 106.49 471.75 108.78 468.67
  A 1.98 1.88 -82.0 0 1 109.55 468.06
  C 115.30 465.55 113.15 460.23 122.23 461.10
  C 129.61 461.81 127.67 467.67 127.76 472.72
  Q 127.77 473.24 128.29 473.24
  C 135.35 473.26 142.64 471.00 146.12 479.18
  C 147.91 483.38 145.54 485.53 143.26 488.57
  C 140.36 492.43 132.57 492.53 128.30 491.77
  Q 127.76 491.68 127.76 492.22
  Q 127.72 504.30 127.75 516.24
  Q 127.76 519.41 128.73 522.40
  Q 128.89 522.89 129.41 522.92
  C 135.09 523.27 147.21 521.13 146.81 530.47
  Q 146.79 531.05 147.35 531.16
  L 147.86 531.26
  Q 148.35 531.36 148.33 530.86
  C 147.47 506.51 148.42 486.52 147.91 457.75
  Q 147.86 454.64 149.74 451.30
  C 154.25 443.30 167.35 445.03 168.93 454.36
  Q 170.76 465.11 169.78 475.98
  Q 169.76 476.21 169.93 476.07
  Z"
/>
<rect fill="#ffffff" x="-11.27" y="-10.93" transform="translate(433.42,459.69) rotate(0.8)" width="22.54" height="21.86" rx="9.92"/>
<path fill="#ffffff" d="
  M 345.83 516.41
  Q 346.75 517.76 348.35 518.12
  Q 348.89 518.24 349.26 518.67
  C 354.48 524.84 364.50 524.10 371.46 520.35
  C 382.52 514.38 391.03 524.95 384.97 535.06
  Q 384.71 535.49 384.25 535.70
  C 378.92 538.19 373.37 541.16 367.92 542.30
  C 355.83 544.84 342.50 542.36 333.22 533.86
  C 327.27 528.40 322.59 516.41 323.07 508.77
  C 323.77 497.58 324.91 490.19 331.20 482.01
  C 332.55 480.24 334.45 479.23 336.14 477.56
  Q 337.23 476.48 338.26 475.97
  Q 358.23 466.14 377.42 477.82
  C 385.56 482.77 395.35 508.91 383.77 514.47
  Q 381.08 515.76 379.50 515.78
  Q 362.78 516.08 346.06 516.00
  Q 345.55 515.99 345.83 516.41
  Z
  M 362.68 497.29
  Q 364.83 497.37 367.07 496.89
  Q 367.32 496.84 367.15 496.65
  C 362.81 491.64 358.36 489.36 352.03 491.65
  C 350.30 492.27 348.43 493.87 346.37 494.74
  A 1.16 1.16 0.0 0 0 346.82 496.96
  Q 354.34 496.99 362.68 497.29
  Z"
/>
<path fill="#ffffff" d="
  M 259.45 490.39
  Q 255.42 491.67 251.24 492.16
  C 244.66 492.93 241.04 494.66 241.02 501.62
  Q 240.97 515.31 240.93 529.01
  Q 240.91 534.25 237.98 537.96
  C 233.36 543.82 224.12 543.94 220.65 536.76
  Q 219.28 533.94 219.25 528.37
  Q 219.11 505.56 218.96 482.75
  C 218.89 472.26 229.54 469.98 237.00 474.73
  A 1.81 1.71 -26.8 0 0 237.91 475.00
  C 238.94 475.01 239.63 475.15 240.60 474.66
  C 247.75 471.08 265.40 468.79 263.80 482.34
  A 0.61 0.61 0.0 0 0 264.91 482.76
  C 266.42 480.57 270.20 476.59 272.63 475.49
  C 288.20 468.48 308.28 470.32 318.30 485.73
  C 320.83 489.62 323.16 498.75 322.80 503.82
  Q 322.46 508.40 320.81 512.76
  A 1.33 1.31 87.1 0 1 320.19 513.46
  Q 315.57 515.93 311.69 515.95
  Q 295.96 516.05 280.21 515.98
  A 0.41 0.41 0.0 0 0 279.91 516.67
  C 281.75 518.64 284.28 518.98 285.16 521.65
  Q 285.32 522.11 285.79 522.21
  C 291.63 523.46 299.83 523.89 305.08 520.55
  Q 309.39 517.81 314.23 519.00
  C 321.65 520.82 322.48 529.45 318.94 535.21
  Q 318.68 535.64 318.22 535.83
  C 313.50 537.83 308.83 540.50 304.24 541.71
  Q 284.48 546.94 268.31 534.94
  C 265.47 532.83 261.36 527.26 260.06 523.83
  C 255.86 512.70 256.75 502.18 259.89 490.81
  Q 260.06 490.19 259.45 490.39
  Z
  M 301.70 497.03
  A 0.07 0.07 0.0 0 0 301.74 496.90
  C 299.59 495.52 298.90 493.41 296.77 492.39
  C 291.23 489.75 283.97 490.19 280.00 495.56
  A 0.90 0.89 -71.5 0 0 280.71 496.99
  L 301.70 497.03
  Z"
/>
<path fill="#ffffff" d="
  M 469.74 493.83
  A 1.23 1.23 0.0 0 0 470.65 495.34
  C 479.71 497.46 488.36 498.90 496.23 504.24
  C 506.33 511.08 506.92 529.28 496.99 536.50
  C 483.47 546.32 466.66 544.52 452.95 535.98
  C 446.96 532.26 448.99 520.98 455.31 519.09
  C 458.18 518.23 461.82 519.28 465.01 520.83
  Q 472.97 524.70 482.42 522.36
  A 1.16 1.16 0.0 0 0 482.48 520.13
  C 479.57 519.24 477.24 517.52 474.26 516.84
  Q 467.72 515.35 461.32 513.40
  C 458.90 512.67 453.23 508.27 452.13 505.97
  C 445.54 492.23 450.62 475.47 466.94 472.74
  C 475.30 471.34 499.79 470.27 502.11 481.20
  C 503.80 489.16 497.94 493.57 490.20 492.70
  C 486.60 492.30 470.92 489.26 469.74 493.83
  Z"
/>
<path fill="#ffffff" d="
  M 423.25 549.47
  L 423.25 478.69
  A 1.50 1.47 -26.0 0 1 423.58 477.76
  C 427.45 472.93 433.65 470.78 439.21 474.17
  C 445.46 477.99 443.74 483.44 443.74 489.68
  Q 443.76 519.34 443.75 549.00
  C 443.74 556.61 442.14 562.78 434.87 566.45
  Q 426.06 570.90 415.77 568.20
  C 409.42 566.53 405.98 560.28 409.13 554.53
  C 411.68 549.87 418.12 550.18 422.79 549.95
  Q 423.25 549.93 423.25 549.47
  Z"
/>
<path fill="#000000" d="
  M 362.68 497.29
  Q 354.34 496.99 346.82 496.96
  A 1.16 1.16 0.0 0 1 346.37 494.74
  C 348.43 493.87 350.30 492.27 352.03 491.65
  C 358.36 489.36 362.81 491.64 367.15 496.65
  Q 367.32 496.84 367.07 496.89
  Q 364.83 497.37 362.68 497.29
  Z"
/>
<path fill="#000000" d="
  M 301.70 497.03
  L 280.71 496.99
  A 0.90 0.89 -71.5 0 1 280.00 495.56
  C 283.97 490.19 291.23 489.75 296.77 492.39
  C 298.90 493.41 299.59 495.52 301.74 496.90
  A 0.07 0.07 0.0 0 1 301.70 497.03
  Z"
/>
<path fill="#ffffff" d="
  M 391.53 534.27
  C 387.81 529.38 391.08 526.21 394.11 522.31
  C 400.85 513.66 415.13 518.96 415.54 529.25
  C 415.93 539.05 405.24 545.86 396.69 540.58
  C 395.44 539.80 392.91 536.08 391.53 534.27
  Z"
/>
</svg>
