<?xml version="1.0" encoding="UTF-8" standalone="no"?>
<!DOCTYPE svg PUBLIC "-//W3C//DTD SVG 1.1//EN" "http://www.w3.org/Graphics/SVG/1.1/DTD/svg11.dtd">
<svg xmlns="http://www.w3.org/2000/svg" version="1.1" viewBox="0.00 0.00 240.00 240.00">
<g stroke-width="2.00" fill="none" stroke-linecap="butt">
<path stroke="#8cbbe9" vector-effect="non-scaling-stroke" d="
  M 113.75 126.55
  A 0.30 0.30 0.0 0 1 114.05 126.25
  L 137.20 126.25
  A 0.30 0.30 0.0 0 0 137.50 125.95
  L 137.50 110.30
  A 0.30 0.30 0.0 0 0 137.20 110.00
  L 71.52 110.00
  A 0.30 0.30 0.0 0 0 71.22 110.30
  L 71.26 125.95
  A 0.30 0.30 0.0 0 0 71.56 126.25
  L 94.70 126.25
  A 0.30 0.30 0.0 0 1 95.00 126.55
  L 95.00 199.70
  A 0.30 0.30 0.0 0 0 95.30 200.00
  L 113.45 200.00
  A 0.30 0.30 0.0 0 0 113.75 199.70
  L 113.75 126.55"
/>
<path stroke="#8cbbe9" vector-effect="non-scaling-stroke" d="
  M 176.54 181.80
  C 168.34 187.91 151.98 181.54 144.64 176.54
  A 0.57 0.57 0.0 0 0 143.75 177.01
  L 143.75 194.99
  Q 143.75 195.57 144.30 195.75
  C 162.59 201.66 197.73 204.98 199.90 176.47
  C 201.38 156.93 185.99 149.98 170.53 143.25
  C 162.60 139.81 159.94 130.18 168.91 125.99
  C 176.80 122.30 188.21 125.79 195.31 130.10
  Q 195.94 130.48 195.97 129.75
  L 196.57 113.55
  Q 196.59 112.96 196.02 112.82
  C 178.47 108.46 146.62 106.05 143.58 131.56
  C 142.53 140.34 145.27 147.70 151.75 153.69
  C 159.51 160.86 172.04 164.15 177.75 169.94
  C 181.23 173.48 180.11 179.14 176.54 181.80"
/>
</g>
<path fill="#1976d2" d="
  M 210.00 209.57
  A 0.43 0.43 0.0 0 1 209.57 210.00
  L 30.43 210.00
  A 0.43 0.43 0.0 0 1 30.00 209.57
  L 30.00 30.43
  A 0.43 0.43 0.0 0 1 30.43 30.00
  L 209.57 30.00
  A 0.43 0.43 0.0 0 1 210.00 30.43
  L 210.00 209.57
  Z
  M 113.75 126.55
  A 0.30 0.30 0.0 0 1 114.05 126.25
  L 137.20 126.25
  A 0.30 0.30 0.0 0 0 137.50 125.95
  L 137.50 110.30
  A 0.30 0.30 0.0 0 0 137.20 110.00
  L 71.52 110.00
  A 0.30 0.30 0.0 0 0 71.22 110.30
  L 71.26 125.95
  A 0.30 0.30 0.0 0 0 71.56 126.25
  L 94.70 126.25
  A 0.30 0.30 0.0 0 1 95.00 126.55
  L 95.00 199.70
  A 0.30 0.30 0.0 0 0 95.30 200.00
  L 113.45 200.00
  A 0.30 0.30 0.0 0 0 113.75 199.70
  L 113.75 126.55
  Z
  M 176.54 181.80
  C 168.34 187.91 151.98 181.54 144.64 176.54
  A 0.57 0.57 0.0 0 0 143.75 177.01
  L 143.75 194.99
  Q 143.75 195.57 144.30 195.75
  C 162.59 201.66 197.73 204.98 199.90 176.47
  C 201.38 156.93 185.99 149.98 170.53 143.25
  C 162.60 139.81 159.94 130.18 168.91 125.99
  C 176.80 122.30 188.21 125.79 195.31 130.10
  Q 195.94 130.48 195.97 129.75
  L 196.57 113.55
  Q 196.59 112.96 196.02 112.82
  C 178.47 108.46 146.62 106.05 143.58 131.56
  C 142.53 140.34 145.27 147.70 151.75 153.69
  C 159.51 160.86 172.04 164.15 177.75 169.94
  C 181.23 173.48 180.11 179.14 176.54 181.80
  Z"
/>
<path fill="#ffffff" d="
  M 113.75 126.55
  L 113.75 199.70
  A 0.30 0.30 0.0 0 1 113.45 200.00
  L 95.30 200.00
  A 0.30 0.30 0.0 0 1 95.00 199.70
  L 95.00 126.55
  A 0.30 0.30 0.0 0 0 94.70 126.25
  L 71.56 126.25
  A 0.30 0.30 0.0 0 1 71.26 125.95
  L 71.22 110.30
  A 0.30 0.30 0.0 0 1 71.52 110.00
  L 137.20 110.00
  A 0.30 0.30 0.0 0 1 137.50 110.30
  L 137.50 125.95
  A 0.30 0.30 0.0 0 1 137.20 126.25
  L 114.05 126.25
  A 0.30 0.30 0.0 0 0 113.75 126.55
  Z"
/>
<path fill="#ffffff" d="
  M 144.64 176.54
  C 151.98 181.54 168.34 187.91 176.54 181.80
  C 180.11 179.14 181.23 173.48 177.75 169.94
  C 172.04 164.15 159.51 160.86 151.75 153.69
  C 145.27 147.70 142.53 140.34 143.58 131.56
  C 146.62 106.05 178.47 108.46 196.02 112.82
  Q 196.59 112.96 196.57 113.55
  L 195.97 129.75
  Q 195.94 130.48 195.31 130.10
  C 188.21 125.79 176.80 122.30 168.91 125.99
  C 159.94 130.18 162.60 139.81 170.53 143.25
  C 185.99 149.98 201.38 156.93 199.90 176.47
  C 197.73 204.98 162.59 201.66 144.30 195.75
  Q 143.75 195.57 143.75 194.99
  L 143.75 177.01
  A 0.57 0.57 0.0 0 1 144.64 176.54
  Z"
/>
</svg>
