<?xml version="1.0" encoding="UTF-8" standalone="no"?>
<!DOCTYPE svg PUBLIC "-//W3C//DTD SVG 1.1//EN" "http://www.w3.org/Graphics/SVG/1.1/DTD/svg11.dtd">
<svg xmlns="http://www.w3.org/2000/svg" version="1.1" viewBox="0.00 0.00 1448.00 1448.00">
<g stroke-width="2.00" fill="none" stroke-linecap="butt">
<path stroke="#428576" vector-effect="non-scaling-stroke" d="
  M 615.53 398.44
  L 452.29 724.03"
/>
<path stroke="#428576" vector-effect="non-scaling-stroke" d="
  M 995.65 723.72
  Q 995.55 723.46 995.39 723.28
  Q 994.81 722.61 994.75 722.50
  L 832.76 398.52
  A 0.07 0.05 5.2 0 0 832.72 398.49
  Q 832.59 398.46 832.46 398.44"
/>
</g>
<path fill="#35495e" d="
  M 615.53 398.44
  L 452.29 724.03
  Q 452.36 723.08 451.99 722.98
  Q 316.62 452.23 181.34 181.68
  A 0.47 0.47 0.0 0 1 181.76 181.00
  L 506.25 181.00
  A 0.83 0.83 0.0 0 1 506.99 181.45
  L 615.53 398.44
  Z"
/>
<path fill="#35495e" d="
  M 995.65 723.72
  Q 995.55 723.46 995.39 723.28
  Q 994.81 722.61 994.75 722.50
  L 832.76 398.52
  A 0.07 0.05 5.2 0 0 832.72 398.49
  Q 832.59 398.46 832.46 398.44
  L 941.12 181.12
  A 0.23 0.22 12.7 0 1 941.32 181.00
  L 1266.25 181.00
  A 0.47 0.47 0.0 0 1 1266.67 181.68
  L 995.65 723.72
  Z"
/>
<path fill="#4fc08d" d="
  M 615.53 398.44
  L 723.63 614.56
  A 0.39 0.39 0.0 0 0 724.33 614.56
  L 832.46 398.44
  Q 832.59 398.46 832.72 398.49
  A 0.07 0.05 5.2 0 1 832.76 398.52
  L 994.75 722.50
  Q 994.81 722.61 995.39 723.28
  Q 995.55 723.46 995.65 723.72
  L 1266.65 1266.34
  A 0.46 0.46 0.0 0 1 1266.24 1267.00
  L 941.70 1267.00
  A 0.68 0.67 76.2 0 1 941.10 1266.63
  L 724.57 834.13
  A 0.68 0.68 0.0 0 0 723.35 834.13
  L 506.91 1266.63
  A 0.69 0.68 13.4 0 1 506.30 1267.00
  L 181.75 1267.00
  A 0.46 0.46 0.0 0 1 181.34 1266.33
  L 452.29 724.03
  L 615.53 398.44
  Z"
/>
</svg>
