<?xml version="1.0" standalone="no"?>
<!DOCTYPE svg PUBLIC "-//W3C//DTD SVG 20010904//EN"
 "http://www.w3.org/TR/2001/REC-SVG-20010904/DTD/svg10.dtd">
<svg version="1.0" xmlns="http://www.w3.org/2000/svg"
 width="446.000000pt" height="381.000000pt" viewBox="0 0 446.000000 381.000000"
 preserveAspectRatio="xMidYMid meet">

<g transform="translate(0.000000,381.000000) scale(0.100000,-0.100000)"
fill="#61dbfb" stroke="none">
<path d="M2125 3553 c-178 -103 -323 -187 -430 -249 -49 -29 -205 -118 -345
-199 -140 -81 -295 -171 -345 -200 -49 -28 -127 -74 -172 -100 l-83 -48 0
-867 0 -868 153 -88 c83 -48 265 -153 402 -232 138 -80 291 -168 340 -197 50
-28 164 -94 255 -147 91 -52 208 -120 260 -150 l94 -55 96 55 c104 60 220 127
375 217 55 32 174 101 265 153 91 52 208 120 260 150 198 115 407 235 458 264
l52 30 0 868 0 868 -52 30 c-29 16 -125 72 -213 123 -152 88 -220 127 -442
256 -137 78 -194 111 -303 175 -52 30 -171 99 -265 153 -93 53 -183 106 -200
115 l-30 18 -130 -75z m-262 -509 c88 -29 207 -101 307 -186 44 -38 82 -68 85
-68 3 0 42 31 86 68 97 83 215 156 304 188 224 81 362 4 412 -230 18 -84 12
-293 -12 -396 -8 -36 -14 -70 -15 -76 0 -7 21 -17 46 -23 75 -19 260 -106 328
-155 240 -171 246 -366 15 -541 -69 -52 -228 -132 -321 -161 -66 -20 -65 -16
-42 -129 20 -103 23 -302 5 -375 -35 -138 -95 -219 -184 -245 -64 -19 -98 -19
-172 0 -120 31 -242 102 -376 216 l-69 60 -76 -65 c-273 -233 -549 -289 -664
-133 -56 76 -73 138 -78 284 -4 119 13 293 35 348 3 9 -15 19 -51 29 -83 25
-241 100 -310 150 -251 179 -258 381 -19 557 67 50 214 122 307 151 39 12 73
23 74 24 2 1 -4 38 -14 81 -26 111 -27 386 -1 459 64 185 191 238 400 168z"/>
<path d="M1666 2960 c-40 -13 -61 -34 -88 -93 -21 -47 -23 -66 -23 -202 0
-109 5 -171 18 -226 l18 -76 57 13 c31 7 111 21 179 30 l122 17 63 81 c34 45
86 108 115 142 l53 61 -78 64 c-174 143 -344 217 -436 189z"/>
<path d="M2726 2959 c-52 -12 -180 -81 -249 -133 -61 -46 -137 -113 -137 -121
0 -3 33 -45 73 -93 40 -48 89 -110 110 -138 l37 -51 90 -12 c49 -6 130 -20
180 -30 50 -10 92 -16 94 -12 15 25 31 180 30 296 0 126 -2 146 -24 199 -14
33 -37 68 -51 79 -31 23 -98 30 -153 16z"/>
<path d="M2185 2543 c-105 -123 -111 -113 70 -113 85 0 155 3 155 6 0 8 -113
145 -138 167 -20 18 -21 17 -87 -60z"/>
<path d="M1982 2268 c-44 -59 -145 -232 -188 -321 l-28 -57 33 -68 c42 -85
155 -275 194 -324 l29 -38 238 0 238 0 65 103 c35 56 90 153 123 214 l59 113
-50 96 c-59 113 -182 316 -198 326 -7 4 -116 8 -244 8 l-232 0 -39 -52z m396
-175 c64 -39 105 -107 110 -183 5 -72 -9 -115 -54 -169 -51 -58 -104 -83 -179
-83 -263 0 -324 366 -76 459 56 21 144 10 199 -24z"/>
<path d="M1743 2280 c-56 -10 -107 -21 -112 -25 -7 -3 1 -37 20 -88 17 -45 35
-94 41 -109 5 -16 13 -28 17 -28 4 0 17 21 30 48 13 26 45 84 72 128 27 45 49
85 49 88 0 7 6 8 -117 -14z"/>
<path d="M2650 2294 c0 -3 15 -31 34 -62 19 -32 53 -90 76 -130 23 -41 46 -70
50 -65 7 6 80 207 80 218 0 1 -44 10 -97 19 -54 9 -108 19 -120 22 -13 2 -23
2 -23 -2z"/>
<path d="M1410 2196 c-131 -50 -169 -69 -246 -124 -78 -56 -134 -128 -134
-175 0 -101 148 -227 373 -316 43 -17 85 -31 95 -31 12 0 22 17 35 62 10 35
39 111 64 170 l46 108 -42 98 c-23 53 -52 128 -64 166 -13 39 -28 71 -33 72
-5 2 -47 -12 -94 -30z"/>
<path d="M2955 2101 c-26 -69 -56 -143 -67 -164 l-18 -37 65 -163 c36 -90 65
-169 65 -176 0 -14 14 -11 110 26 232 90 383 222 367 320 -17 101 -180 221
-407 298 l-67 23 -48 -127z"/>
<path d="M2751 1663 c-30 -54 -68 -117 -83 -140 -16 -24 -25 -43 -20 -43 22 0
235 40 240 45 6 6 -29 111 -62 188 l-21 48 -54 -98z"/>
<path d="M1668 1658 c-50 -130 -51 -135 -35 -141 27 -10 218 -39 224 -34 3 3
-17 43 -45 89 -28 46 -60 104 -73 131 -13 26 -26 47 -30 47 -3 0 -22 -42 -41
-92z"/>
<path d="M1581 1373 c-24 -90 -33 -181 -30 -291 4 -106 7 -123 34 -177 41 -83
80 -102 173 -87 37 6 100 28 140 47 75 37 206 131 254 182 l27 28 -40 45 c-22
25 -73 88 -114 141 l-75 96 -78 7 c-42 4 -122 16 -177 27 -55 10 -101 19 -102
19 -1 0 -7 -17 -12 -37z"/>
<path d="M2820 1394 c-36 -7 -109 -18 -162 -25 l-97 -12 -32 -46 c-18 -25 -68
-90 -112 -143 l-78 -97 42 -38 c79 -72 154 -124 246 -170 79 -40 101 -46 156
-47 81 -1 111 18 145 92 22 49 27 74 30 179 4 106 -8 249 -24 306 -6 20 -23
20 -114 1z"/>
<path d="M2109 1333 c15 -29 142 -173 151 -173 10 0 150 170 150 182 0 5 -70
8 -155 8 -145 0 -155 -1 -146 -17z"/>
</g>
</svg>
