<?xml version="1.0" encoding="UTF-8" standalone="no"?>
<!DOCTYPE svg PUBLIC "-//W3C//DTD SVG 1.1//EN" "http://www.w3.org/Graphics/SVG/1.1/DTD/svg11.dtd">
<svg xmlns="http://www.w3.org/2000/svg" version="1.1" viewBox="0.00 0.00 280.00 280.00">
<path fill="#5a29e4" d="
  M 147.21 206.90
  Q 147.07 207.21 146.74 207.34
  Q 146.25 207.54 146.25 207.01
  L 146.25 59.89
  Q 146.25 59.36 146.69 59.05
  L 161.92 48.43
  Q 162.51 48.03 162.51 48.74
  L 162.50 168.26
  Q 162.50 169.02 163.26 169.02
  L 192.74 168.97
  A 0.33 0.33 0.0 0 1 192.96 169.55
  Q 171.65 187.13 150.18 204.68
  Q 148.67 205.91 147.71 206.39
  Q 147.37 206.56 147.21 206.90
  Z"
/>
<path fill="#5a29e4" d="
  M 86.60 107.91
  L 132.46 70.62
  A 0.33 0.33 0.0 0 1 133.00 70.87
  L 133.00 218.71
  A 0.33 0.33 0.0 0 1 132.88 218.97
  L 117.29 231.38
  A 0.33 0.33 0.0 0 1 116.75 231.13
  L 116.75 108.83
  A 0.33 0.33 0.0 0 0 116.42 108.50
  L 86.81 108.50
  A 0.33 0.33 0.0 0 1 86.60 107.91
  Z"
/>
</svg>
