<?xml version="1.0" encoding="UTF-8" standalone="no"?>
<!DOCTYPE svg PUBLIC "-//W3C//DTD SVG 1.1//EN" "http://www.w3.org/Graphics/SVG/1.1/DTD/svg11.dtd">
<svg xmlns="http://www.w3.org/2000/svg" version="1.1" viewBox="0.00 0.00 240.00 240.00">
<g stroke-width="2.00" fill="none" stroke-linecap="butt">
<path stroke="#eaa077" vector-effect="non-scaling-stroke" d="
  M 119.83 65.01
  L 75.00 65.02
  Q 74.51 65.02 74.54 65.51
  L 77.98 124.49
  Q 78.01 124.98 78.49 124.98
  L 119.90 124.98"
/>
<path stroke="#f3a880" vector-effect="non-scaling-stroke" d="
  M 119.90 124.98
  L 120.53 125.04"
/>
<path stroke="#f35f00" vector-effect="non-scaling-stroke" d="
  M 120.53 125.04
  Q 120.21 125.78 120.20 126.50
  Q 120.01 139.52 120.00 152.53
  C 120.00 153.18 119.72 153.70 119.47 154.29"
/>
<path stroke="#eaa077" vector-effect="non-scaling-stroke" d="
  M 119.47 154.29
  L 100.11 147.74
  Q 99.57 147.56 99.52 147.00
  L 98.44 135.36
  A 0.39 0.38 87.5 0 0 98.06 135.00
  L 79.13 135.00
  Q 78.51 135.00 78.56 135.61
  L 80.48 161.98
  Q 80.52 162.46 80.97 162.61
  L 119.78 175.34"
/>
<path stroke="#f3a880" vector-effect="non-scaling-stroke" d="
  M 119.78 175.34
  Q 119.75 175.44 119.96 175.53"
/>
<path stroke="#f35f00" vector-effect="non-scaling-stroke" d="
  M 119.96 175.53
  L 120.00 198.73
  A 0.59 0.59 0.0 0 0 120.75 199.30
  L 175.26 183.74
  Q 175.99 183.53 176.06 182.78
  L 188.45 40.49
  Q 188.49 40.00 188.00 40.00
  L 120.56 40.00
  A 0.62 0.62 0.0 0 0 119.94 40.62
  L 119.83 65.01"
/>
<path stroke="#ffb680" vector-effect="non-scaling-stroke" d="
  M 119.96 175.53
  L 159.01 162.65
  Q 159.48 162.50 159.51 162.00
  L 162.93 105.51
  Q 162.97 104.99 162.45 104.99
  L 119.99 104.99"
/>
<path stroke="#f35f00" vector-effect="non-scaling-stroke" d="
  M 119.99 104.99
  L 120.08 85.01"
/>
<path stroke="#ffb680" vector-effect="non-scaling-stroke" d="
  M 120.08 85.01
  L 163.95 85.01
  A 0.57 0.57 0.0 0 0 164.52 84.48
  L 165.94 65.35
  A 0.33 0.32 2.4 0 0 165.61 65.00
  L 119.83 65.01"
/>
<path stroke="#f7f7f7" vector-effect="non-scaling-stroke" d="
  M 119.83 65.01
  L 119.92 85.03"
/>
<path stroke="#eaa077" vector-effect="non-scaling-stroke" d="
  M 119.92 85.03
  L 96.01 85.04
  Q 95.53 85.04 95.57 85.53
  L 96.97 104.47
  A 0.53 0.53 0.0 0 0 97.50 104.96
  L 119.78 104.98"
/>
<path stroke="#f7f7f7" vector-effect="non-scaling-stroke" d="
  M 119.78 104.98
  L 119.90 124.98"
/>
<path stroke="#f3a880" vector-effect="non-scaling-stroke" d="
  M 120.08 85.01
  Q 120.00 84.98 119.92 85.03"
/>
<path stroke="#f7f7f7" vector-effect="non-scaling-stroke" d="
  M 119.78 175.34
  L 119.85 154.56"
/>
<path stroke="#ffb680" vector-effect="non-scaling-stroke" d="
  M 119.85 154.56
  L 140.00 147.64
  Q 140.47 147.48 140.50 146.99
  L 141.94 125.53
  A 0.45 0.45 0.0 0 0 141.49 125.05
  L 120.53 125.04"
/>
<path stroke="#f3a880" vector-effect="non-scaling-stroke" d="
  M 119.99 104.99
  Q 119.89 104.98 119.78 104.98"
/>
<path stroke="#f7ae77" vector-effect="non-scaling-stroke" d="
  M 119.85 154.56
  Q 119.65 154.10 119.47 154.29"
/>
</g>
<path fill="#e65100" d="
  M 49.97 194.59
  L 35.05 25.59
  A 0.54 0.54 0.0 0 1 35.59 25.00
  L 204.40 25.00
  A 0.54 0.54 0.0 0 1 204.94 25.59
  L 190.02 194.67
  A 0.54 0.54 0.0 0 1 189.63 195.14
  L 120.27 214.96
  A 0.54 0.54 0.0 0 1 119.97 214.96
  L 50.36 195.06
  A 0.54 0.54 0.0 0 1 49.97 194.59
  Z
  M 119.83 65.01
  L 75.00 65.02
  Q 74.51 65.02 74.54 65.51
  L 77.98 124.49
  Q 78.01 124.98 78.49 124.98
  L 119.90 124.98
  L 120.53 125.04
  Q 120.21 125.78 120.20 126.50
  Q 120.01 139.52 120.00 152.53
  C 120.00 153.18 119.72 153.70 119.47 154.29
  L 100.11 147.74
  Q 99.57 147.56 99.52 147.00
  L 98.44 135.36
  A 0.39 0.38 87.5 0 0 98.06 135.00
  L 79.13 135.00
  Q 78.51 135.00 78.56 135.61
  L 80.48 161.98
  Q 80.52 162.46 80.97 162.61
  L 119.78 175.34
  Q 119.75 175.44 119.96 175.53
  L 120.00 198.73
  A 0.59 0.59 0.0 0 0 120.75 199.30
  L 175.26 183.74
  Q 175.99 183.53 176.06 182.78
  L 188.45 40.49
  Q 188.49 40.00 188.00 40.00
  L 120.56 40.00
  A 0.62 0.62 0.0 0 0 119.94 40.62
  L 119.83 65.01
  Z"
/>
<path fill="#ff6d00" d="
  M 119.96 175.53
  L 159.01 162.65
  Q 159.48 162.50 159.51 162.00
  L 162.93 105.51
  Q 162.97 104.99 162.45 104.99
  L 119.99 104.99
  L 120.08 85.01
  L 163.95 85.01
  A 0.57 0.57 0.0 0 0 164.52 84.48
  L 165.94 65.35
  A 0.33 0.32 2.4 0 0 165.61 65.00
  L 119.83 65.01
  L 119.94 40.62
  A 0.62 0.62 0.0 0 1 120.56 40.00
  L 188.00 40.00
  Q 188.49 40.00 188.45 40.49
  L 176.06 182.78
  Q 175.99 183.53 175.26 183.74
  L 120.75 199.30
  A 0.59 0.59 0.0 0 1 120.00 198.73
  L 119.96 175.53
  Z"
/>
<path fill="#eeeeee" d="
  M 119.83 65.01
  L 119.92 85.03
  L 96.01 85.04
  Q 95.53 85.04 95.57 85.53
  L 96.97 104.47
  A 0.53 0.53 0.0 0 0 97.50 104.96
  L 119.78 104.98
  L 119.90 124.98
  L 78.49 124.98
  Q 78.01 124.98 77.98 124.49
  L 74.54 65.51
  Q 74.51 65.02 75.00 65.02
  L 119.83 65.01
  Z"
/>
<path fill="#ffffff" d="
  M 119.83 65.01
  L 165.61 65.00
  A 0.33 0.32 2.4 0 1 165.94 65.35
  L 164.52 84.48
  A 0.57 0.57 0.0 0 1 163.95 85.01
  L 120.08 85.01
  Q 120.00 84.98 119.92 85.03
  L 119.83 65.01
  Z"
/>
<path fill="#e65100" d="
  M 119.92 85.03
  Q 120.00 84.98 120.08 85.01
  L 119.99 104.99
  Q 119.89 104.98 119.78 104.98
  L 97.50 104.96
  A 0.53 0.53 0.0 0 1 96.97 104.47
  L 95.57 85.53
  Q 95.53 85.04 96.01 85.04
  L 119.92 85.03
  Z"
/>
<path fill="#ffffff" d="
  M 119.78 104.98
  Q 119.89 104.98 119.99 104.99
  L 162.45 104.99
  Q 162.97 104.99 162.93 105.51
  L 159.51 162.00
  Q 159.48 162.50 159.01 162.65
  L 119.96 175.53
  Q 119.75 175.44 119.78 175.34
  L 119.85 154.56
  L 140.00 147.64
  Q 140.47 147.48 140.50 146.99
  L 141.94 125.53
  A 0.45 0.45 0.0 0 0 141.49 125.05
  L 120.53 125.04
  L 119.90 124.98
  L 119.78 104.98
  Z"
/>
<path fill="#ff6d00" d="
  M 120.53 125.04
  L 141.49 125.05
  A 0.45 0.45 0.0 0 1 141.94 125.53
  L 140.50 146.99
  Q 140.47 147.48 140.00 147.64
  L 119.85 154.56
  Q 119.65 154.10 119.47 154.29
  C 119.72 153.70 120.00 153.18 120.00 152.53
  Q 120.01 139.52 120.20 126.50
  Q 120.21 125.78 120.53 125.04
  Z"
/>
<path fill="#eeeeee" d="
  M 119.47 154.29
  Q 119.65 154.10 119.85 154.56
  L 119.78 175.34
  L 80.97 162.61
  Q 80.52 162.46 80.48 161.98
  L 78.56 135.61
  Q 78.51 135.00 79.13 135.00
  L 98.06 135.00
  A 0.39 0.38 87.5 0 1 98.44 135.36
  L 99.52 147.00
  Q 99.57 147.56 100.11 147.74
  L 119.47 154.29
  Z"
/>
</svg>
