<?xml version="1.0" encoding="UTF-8" standalone="no"?>
<!DOCTYPE svg PUBLIC "-//W3C//DTD SVG 1.1//EN" "http://www.w3.org/Graphics/SVG/1.1/DTD/svg11.dtd">
<svg xmlns="http://www.w3.org/2000/svg" version="1.1" viewBox="0.00 0.00 240.00 240.00">
<path fill="#21a366" d="
  M 118.88 212.67
  A 2.30 2.30 0.0 0 0 121.21 212.68
  L 199.61 167.42
  A 2.80 2.78 -15.2 0 0 201.00 165.01
  L 201.00 74.80
  A 2.74 2.73 15.0 0 0 199.63 72.43
  L 121.30 27.22
  A 2.40 2.40 0.0 0 0 118.92 27.22
  Q 80.37 49.44 41.41 71.89
  Q 40.40 72.47 39.56 73.29
  Q 39.25 73.59 39.25 74.03
  L 39.25 165.28
  A 2.35 2.34 15.2 0 0 40.41 167.30
  Q 50.75 173.31 61.22 179.25
  C 67.36 182.73 75.80 183.34 79.27 176.67
  Q 80.76 173.79 80.76 166.60
  Q 80.74 124.38 80.75 82.00
  A 1.76 1.76 0.0 0 1 82.51 80.25
  L 93.02 80.25
  A 2.17 2.17 0.0 0 1 95.19 82.41
  Q 95.46 128.65 94.93 174.48
  C 94.66 197.54 70.42 200.23 54.45 191.56
  Q 37.68 182.46 32.20 178.80
  C 26.11 174.74 25.02 168.93 25.02 161.35
  Q 24.98 117.93 25.00 74.50
  C 25.01 66.80 29.47 62.56 36.25 58.64
  Q 72.70 37.55 109.22 16.57
  C 117.04 12.08 122.44 11.66 130.04 16.03
  Q 167.16 37.38 204.19 58.89
  C 212.19 63.54 214.98 67.77 214.98 76.77
  Q 215.02 121.01 215.00 165.25
  C 214.99 173.26 210.27 177.46 203.23 181.54
  Q 165.50 203.43 127.69 225.19
  C 121.37 228.82 115.19 226.80 108.77 223.03
  Q 96.79 215.99 84.92 208.77
  Q 83.94 208.18 83.73 207.91
  Q 82.79 206.70 84.24 206.22
  Q 90.57 204.15 96.33 200.80
  A 2.49 2.48 -44.7 0 1 98.84 200.81
  L 118.88 212.67
  Z"
/>
<path fill="#21a366" d="
  M 137.82 150.66
  C 148.67 151.50 170.12 151.98 167.53 135.75
  C 166.45 129.01 141.10 127.13 135.03 126.46
  C 120.32 124.85 104.18 119.83 105.42 101.50
  C 106.80 81.00 129.57 76.97 145.66 77.89
  C 163.58 78.91 178.39 84.85 180.28 105.21
  C 180.63 109.01 169.86 107.76 167.54 107.72
  A 1.92 1.92 0.0 0 1 165.71 106.29
  C 163.57 98.35 160.19 93.68 151.56 92.42
  C 143.40 91.24 118.88 89.09 121.12 104.25
  C 121.89 109.41 130.02 110.41 136.04 111.25
  Q 154.85 113.91 164.25 116.25
  C 173.33 118.52 180.79 122.77 182.72 132.51
  C 185.77 147.83 176.27 159.21 161.57 162.68
  C 140.55 167.64 102.76 165.67 102.79 135.53
  A 2.03 2.03 0.0 0 1 104.82 133.50
  L 115.34 133.50
  A 2.27 2.26 -1.9 0 1 117.60 135.61
  C 118.42 147.42 127.78 149.87 137.82 150.66
  Z"
/>
</svg>
