<?xml version="1.0" encoding="UTF-8" standalone="no"?>
<!DOCTYPE svg PUBLIC "-//W3C//DTD SVG 1.1//EN" "http://www.w3.org/Graphics/SVG/1.1/DTD/svg11.dtd">
<svg xmlns="http://www.w3.org/2000/svg" version="1.1" viewBox="0.00 0.00 900.00 900.00">
<path fill="#00dc82" d="
  M 900.00 687.32
  L 900.00 693.06
  C 897.42 725.87 871.67 749.95 838.75 749.96
  Q 672.03 750.00 505.52 750.01
  A 0.36 0.36 0.0 0 1 505.21 749.47
  L 559.63 656.21
  A 0.96 0.95 -74.4 0 1 560.45 655.74
  L 778.93 655.78
  A 0.33 0.33 0.0 0 0 779.21 655.28
  Q 697.37 514.78 615.56 374.22
  Q 615.28 373.73 614.92 373.59
  Q 614.47 373.42 614.23 373.84
  Q 536.25 507.63 458.43 641.38
  C 418.44 710.09 354.76 749.96 273.75 749.98
  Q 171.12 750.01 68.50 750.01
  Q 55.12 750.01 48.58 748.71
  C 21.15 743.29 1.69 720.47 0.00 692.43
  L 0.00 687.19
  C 1.24 670.35 8.16 659.95 16.67 645.34
  Q 151.32 414.16 285.98 182.99
  Q 290.06 175.98 294.69 170.60
  C 318.48 142.94 362.65 143.48 386.08 170.95
  Q 389.98 175.52 397.03 187.64
  Q 450.81 280.03 504.52 372.31
  A 0.45 0.45 0.0 0 0 505.30 372.31
  Q 533.36 324.11 561.50 275.76
  C 585.67 234.23 643.52 233.56 667.97 275.54
  Q 780.29 468.45 892.65 661.34
  Q 899.01 672.25 900.00 687.32
  Z
  M 339.82 279.31
  L 120.80 655.27
  Q 120.53 655.73 121.07 655.73
  Q 192.05 655.81 263.03 655.72
  C 276.59 655.70 287.72 655.16 299.51 652.75
  C 333.09 645.89 358.65 623.68 375.70 594.44
  Q 412.72 530.97 449.60 467.61
  A 0.93 0.92 -45.5 0 0 449.60 466.68
  L 340.67 279.31
  Q 340.25 278.58 339.82 279.31
  Z"
/>
</svg>
