<?xml version="1.0" encoding="UTF-8" standalone="no"?>
<!DOCTYPE svg PUBLIC "-//W3C//DTD SVG 1.1//EN" "http://www.w3.org/Graphics/SVG/1.1/DTD/svg11.dtd">
<svg xmlns="http://www.w3.org/2000/svg" version="1.1" viewBox="0.00 0.00 96.00 96.00">
<path fill="#53c1de" d="
  M 96.00 46.41
  L 96.00 48.81
  C 93.86 56.72 83.50 61.52 75.96 63.52
  A 0.55 0.55 0.0 0 0 75.57 64.19
  C 78.38 74.31 78.53 95.96 60.52 88.29
  Q 53.91 85.48 48.92 80.20
  A 0.88 0.88 0.0 0 0 47.68 80.16
  C 42.93 84.58 34.61 90.51 28.30 89.95
  C 17.01 88.95 18.24 72.49 20.67 64.69
  A 0.61 0.61 0.0 0 0 20.28 63.93
  C 12.54 61.42 2.89 57.40 0.00 49.00
  L 0.00 46.93
  C 2.61 38.92 12.46 34.52 19.88 32.58
  Q 20.76 32.35 20.55 31.47
  C 18.35 22.37 16.91 1.24 33.84 7.21
  Q 41.66 9.96 47.32 15.98
  A 0.95 0.95 0.0 0 0 48.69 16.00
  C 54.15 10.46 66.84 1.37 73.50 9.02
  C 78.63 14.91 76.60 25.13 75.52 32.00
  Q 75.42 32.57 75.99 32.70
  Q 89.98 35.86 96.00 46.41
  Z
  M 71.52 30.69
  C 72.84 25.85 74.85 11.95 67.95 10.08
  C 63.49 8.87 54.26 15.88 51.39 19.02
  Q 51.05 19.38 51.36 19.77
  L 58.60 28.83
  Q 58.87 29.18 59.31 29.24
  L 70.91 31.08
  A 0.54 0.54 0.0 0 0 71.52 30.69
  Z
  M 44.46 18.61
  C 40.09 14.69 34.16 10.25 28.50 10.19
  C 20.93 10.12 23.28 26.22 24.45 30.64
  Q 24.58 31.12 25.08 31.04
  L 36.67 29.25
  Q 37.14 29.18 37.43 28.81
  L 44.56 19.89
  Q 45.12 19.20 44.46 18.61
  Z
  M 42.93 28.21
  A 0.31 0.31 0.0 0 0 43.17 28.72
  L 52.96 28.79
  A 0.31 0.31 0.0 0 0 53.20 28.28
  L 48.35 22.36
  A 0.31 0.31 0.0 0 0 47.87 22.36
  L 42.93 28.21
  Z
  M 56.16 33.02
  C 50.55 32.98 45.25 32.52 39.60 33.19
  A 1.04 1.03 11.6 0 0 38.82 33.70
  L 30.91 47.43
  Q 30.60 47.97 30.91 48.51
  L 38.91 62.47
  A 1.22 1.19 74.8 0 0 39.95 63.08
  L 56.09 63.14
  A 1.11 1.09 -74.7 0 0 57.04 62.59
  L 65.13 48.50
  A 1.17 1.16 -45.7 0 0 65.12 47.35
  L 57.01 33.52
  Q 56.73 33.03 56.16 33.02
  Z
  M 28.37 42.61
  A 0.30 0.30 0.0 0 0 28.91 42.66
  L 33.87 34.13
  A 0.30 0.30 0.0 0 0 33.56 33.69
  L 25.90 34.93
  A 0.30 0.30 0.0 0 0 25.67 35.33
  L 28.37 42.61
  Z
  M 62.57 33.74
  A 0.35 0.35 0.0 0 0 62.21 34.26
  L 67.09 42.64
  A 0.35 0.35 0.0 0 0 67.72 42.58
  L 70.32 35.46
  A 0.35 0.35 0.0 0 0 70.05 34.99
  L 62.57 33.74
  Z
  M 4.26 49.21
  C 6.20 54.70 15.96 58.51 21.15 59.88
  Q 21.64 60.01 21.82 59.53
  L 26.09 48.38
  Q 26.25 47.98 26.09 47.58
  L 21.81 36.59
  Q 21.65 36.17 21.22 36.29
  C 17.17 37.37 2.09 43.06 4.26 49.21
  Z
  M 89.06 43.44
  Q 82.11 38.21 74.87 36.36
  Q 74.38 36.23 74.19 36.71
  L 69.95 47.50
  Q 69.79 47.88 69.95 48.27
  L 74.34 59.29
  Q 74.52 59.73 74.99 59.61
  C 79.74 58.40 98.90 50.83 89.06 43.44
  Z
  M 67.72 53.24
  A 0.33 0.33 0.0 0 0 67.12 53.19
  L 62.19 61.85
  A 0.33 0.33 0.0 0 0 62.53 62.34
  L 70.30 61.04
  A 0.33 0.33 0.0 0 0 70.55 60.59
  L 67.72 53.24
  Z
  M 33.62 62.51
  A 0.31 0.31 0.0 0 0 33.94 62.05
  L 28.92 53.32
  A 0.31 0.31 0.0 0 0 28.36 53.36
  L 25.62 60.75
  A 0.31 0.31 0.0 0 0 25.86 61.16
  L 33.62 62.51
  Z
  M 51.34 77.22
  C 54.09 80.58 65.19 88.06 69.56 85.23
  C 74.48 82.04 73.13 70.43 71.73 65.47
  Q 71.59 64.98 71.08 65.06
  L 59.50 66.81
  Q 58.99 66.89 58.66 67.30
  L 51.33 76.53
  Q 51.06 76.88 51.34 77.22
  Z
  M 37.18 66.78
  Q 31.22 66.25 25.36 65.07
  A 0.86 0.85 -76.6 0 0 24.37 65.69
  C 23.09 70.64 22.34 77.97 24.00 82.30
  C 27.48 91.32 41.27 80.77 44.94 77.17
  Q 45.36 76.77 44.97 76.34
  Q 40.93 71.77 37.32 66.86
  A 0.20 0.19 -13.3 0 0 37.18 66.78
  Z
  M 44.06 67.19
  Q 43.67 66.76 43.09 67.21
  A 0.46 0.45 -38.9 0 0 43.02 67.86
  L 47.76 73.54
  Q 48.17 74.03 48.57 73.53
  L 53.25 67.78
  A 0.44 0.44 0.0 0 0 52.87 67.06
  Q 48.54 67.42 44.06 67.19
  Z"
/>
<circle fill="#53c1de" cx="47.99" cy="48.01" r="8.51"/>
</svg>
