<?xml version="1.0" encoding="UTF-8" standalone="no"?>
<!DOCTYPE svg PUBLIC "-//W3C//DTD SVG 1.1//EN" "http://www.w3.org/Graphics/SVG/1.1/DTD/svg11.dtd">
<svg xmlns="http://www.w3.org/2000/svg" version="1.1" viewBox="0.00 0.00 256.00 256.00">
<path stroke="#3b8170" stroke-width="2.00" fill="none" stroke-linecap="butt" vector-effect="non-scaling-stroke" d="
  M 50.62 17.82
  L 127.22 149.42
  Q 127.98 150.73 128.74 149.42
  L 204.71 17.84"
/>
<path fill="#41b782" d="
  M 50.62 17.82
  L 127.22 149.42
  Q 127.98 150.73 128.74 149.42
  L 204.71 17.84
  L 255.45 17.77
  Q 256.00 17.77 255.72 18.25
  L 128.30 237.84
  Q 127.99 238.38 127.68 237.84
  L 0.34 18.40
  Q -0.03 17.77 0.70 17.77
  L 50.62 17.82
  Z"
/>
<path fill="#354a5e" d="
  M 50.62 17.82
  L 97.43 17.77
  Q 97.98 17.77 98.25 18.24
  L 127.60 68.16
  A 0.45 0.44 44.8 0 0 128.37 68.16
  L 157.07 18.29
  Q 157.36 17.80 157.93 17.80
  L 204.71 17.84
  L 128.74 149.42
  Q 127.98 150.73 127.22 149.42
  L 50.62 17.82
  Z"
/>
</svg>
