<?xml version="1.0" encoding="UTF-8" standalone="no"?>
<!DOCTYPE svg PUBLIC "-//W3C//DTD SVG 1.1//EN" "http://www.w3.org/Graphics/SVG/1.1/DTD/svg11.dtd">
<svg xmlns="http://www.w3.org/2000/svg" version="1.1" viewBox="0.00 0.00 1200.00 1200.00">
<g stroke-width="2.00" fill="none" stroke-linecap="butt">
<path stroke="#c7eafd" vector-effect="non-scaling-stroke" d="
  M 614.50 321.94
  A 0.35 0.35 0.0 0 0 614.68 322.25
  L 842.37 447.42
  A 0.35 0.35 0.0 0 0 842.71 447.42
  L 967.20 375.56
  A 0.35 0.35 0.0 0 0 967.20 374.95
  L 615.02 175.79
  A 0.35 0.35 0.0 0 0 614.50 176.09
  L 614.50 321.94"
/>
<path stroke="#c7eafd" vector-effect="non-scaling-stroke" d="
  M 231.43 374.92
  A 0.38 0.38 0.0 0 0 231.43 375.58
  L 355.87 447.41
  A 0.38 0.38 0.0 0 0 356.25 447.42
  L 584.05 322.17
  A 0.38 0.38 0.0 0 0 584.25 321.84
  L 584.25 176.05
  A 0.38 0.38 0.0 0 0 583.68 175.72
  L 231.43 374.92"
/>
<path stroke="#8ebce0" vector-effect="non-scaling-stroke" d="
  M 387.21 464.94
  A 0.34 0.34 0.0 0 0 387.20 465.53
  L 599.13 587.86
  A 0.34 0.34 0.0 0 0 599.47 587.86
  L 811.40 465.53
  A 0.34 0.34 0.0 0 0 811.39 464.94
  L 599.46 348.41
  A 0.34 0.34 0.0 0 0 599.14 348.41
  L 387.21 464.94"
/>
<path stroke="#c7eafd" vector-effect="non-scaling-stroke" d="
  M 341.76 474.21
  L 217.11 402.27
  Q 216.00 401.63 216.00 402.91
  L 216.00 808.28
  A 0.51 0.51 0.0 0 0 216.77 808.72
  L 341.54 736.71
  A 1.02 1.01 74.6 0 0 342.06 735.79
  C 341.89 728.80 342.20 720.92 342.21 714.85
  Q 342.40 594.76 342.05 474.72
  Q 342.05 474.38 341.76 474.21"
/>
<path stroke="#c7eafd" vector-effect="non-scaling-stroke" d="
  M 856.50 736.19
  A 0.37 0.37 0.0 0 0 856.69 736.51
  L 981.95 808.79
  A 0.37 0.37 0.0 0 0 982.50 808.47
  L 982.50 402.34
  A 0.37 0.37 0.0 0 0 981.95 402.02
  L 856.69 474.30
  A 0.37 0.37 0.0 0 0 856.50 474.62
  L 856.50 736.19"
/>
<path stroke="#8ebce0" vector-effect="non-scaling-stroke" d="
  M 372.50 722.46
  A 0.34 0.34 0.0 0 0 372.68 722.76
  L 583.75 838.79
  A 0.34 0.34 0.0 0 0 584.25 838.50
  L 584.25 614.41
  A 0.34 0.34 0.0 0 0 584.08 614.11
  L 373.01 492.29
  A 0.34 0.34 0.0 0 0 372.50 492.59
  L 372.50 722.46"
/>
<path stroke="#8ebce0" vector-effect="non-scaling-stroke" d="
  M 614.44 837.94
  Q 614.15 838.16 614.35 838.54
  Q 614.57 838.95 614.98 838.72
  L 825.78 722.82
  Q 826.25 722.57 826.25 722.03
  L 826.25 492.62
  A 0.41 0.41 0.0 0 0 825.63 492.27
  L 615.02 613.82
  Q 614.50 614.12 614.50 614.72
  Q 614.52 726.31 614.44 837.94"
/>
<path stroke="#c7eafd" vector-effect="non-scaling-stroke" d="
  M 240.42 830.03
  A 0.51 0.51 0.0 0 0 240.43 830.92
  L 583.49 1024.92
  A 0.51 0.51 0.0 0 0 584.25 1024.48
  L 584.25 873.91
  A 0.51 0.51 0.0 0 0 583.99 873.46
  L 369.74 755.66
  A 0.51 0.51 0.0 0 0 369.24 755.66
  L 240.42 830.03"
/>
<path stroke="#c7eafd" vector-effect="non-scaling-stroke" d="
  M 958.40 830.77
  A 0.35 0.35 0.0 0 0 958.40 830.16
  L 829.26 755.63
  A 0.35 0.35 0.0 0 0 828.92 755.63
  L 614.68 873.41
  A 0.35 0.35 0.0 0 0 614.50 873.72
  L 614.50 1024.65
  A 0.35 0.35 0.0 0 0 615.02 1024.95
  L 958.40 830.77"
/>
</g>
<path fill="#ffffff" d="
  M 163.00 847.10
  L 163.00 353.63
  A 0.78 0.78 0.0 0 1 163.40 352.96
  L 599.62 106.28
  A 0.78 0.78 0.0 0 1 600.38 106.28
  L 1036.60 352.96
  A 0.78 0.78 0.0 0 1 1037.00 353.63
  L 1037.00 847.09
  A 0.78 0.78 0.0 0 1 1036.60 847.76
  L 600.37 1094.44
  A 0.78 0.78 0.0 0 1 599.61 1094.44
  L 163.40 847.77
  A 0.78 0.78 0.0 0 1 163.00 847.10
  Z
  M 614.50 321.94
  A 0.35 0.35 0.0 0 0 614.68 322.25
  L 842.37 447.42
  A 0.35 0.35 0.0 0 0 842.71 447.42
  L 967.20 375.56
  A 0.35 0.35 0.0 0 0 967.20 374.95
  L 615.02 175.79
  A 0.35 0.35 0.0 0 0 614.50 176.09
  L 614.50 321.94
  Z
  M 231.43 374.92
  A 0.38 0.38 0.0 0 0 231.43 375.58
  L 355.87 447.41
  A 0.38 0.38 0.0 0 0 356.25 447.42
  L 584.05 322.17
  A 0.38 0.38 0.0 0 0 584.25 321.84
  L 584.25 176.05
  A 0.38 0.38 0.0 0 0 583.68 175.72
  L 231.43 374.92
  Z
  M 387.21 464.94
  A 0.34 0.34 0.0 0 0 387.20 465.53
  L 599.13 587.86
  A 0.34 0.34 0.0 0 0 599.47 587.86
  L 811.40 465.53
  A 0.34 0.34 0.0 0 0 811.39 464.94
  L 599.46 348.41
  A 0.34 0.34 0.0 0 0 599.14 348.41
  L 387.21 464.94
  Z
  M 341.76 474.21
  L 217.11 402.27
  Q 216.00 401.63 216.00 402.91
  L 216.00 808.28
  A 0.51 0.51 0.0 0 0 216.77 808.72
  L 341.54 736.71
  A 1.02 1.01 74.6 0 0 342.06 735.79
  C 341.89 728.80 342.20 720.92 342.21 714.85
  Q 342.40 594.76 342.05 474.72
  Q 342.05 474.38 341.76 474.21
  Z
  M 856.50 736.19
  A 0.37 0.37 0.0 0 0 856.69 736.51
  L 981.95 808.79
  A 0.37 0.37 0.0 0 0 982.50 808.47
  L 982.50 402.34
  A 0.37 0.37 0.0 0 0 981.95 402.02
  L 856.69 474.30
  A 0.37 0.37 0.0 0 0 856.50 474.62
  L 856.50 736.19
  Z
  M 372.50 722.46
  A 0.34 0.34 0.0 0 0 372.68 722.76
  L 583.75 838.79
  A 0.34 0.34 0.0 0 0 584.25 838.50
  L 584.25 614.41
  A 0.34 0.34 0.0 0 0 584.08 614.11
  L 373.01 492.29
  A 0.34 0.34 0.0 0 0 372.50 492.59
  L 372.50 722.46
  Z
  M 614.44 837.94
  Q 614.15 838.16 614.35 838.54
  Q 614.57 838.95 614.98 838.72
  L 825.78 722.82
  Q 826.25 722.57 826.25 722.03
  L 826.25 492.62
  A 0.41 0.41 0.0 0 0 825.63 492.27
  L 615.02 613.82
  Q 614.50 614.12 614.50 614.72
  Q 614.52 726.31 614.44 837.94
  Z
  M 240.42 830.03
  A 0.51 0.51 0.0 0 0 240.43 830.92
  L 583.49 1024.92
  A 0.51 0.51 0.0 0 0 584.25 1024.48
  L 584.25 873.91
  A 0.51 0.51 0.0 0 0 583.99 873.46
  L 369.74 755.66
  A 0.51 0.51 0.0 0 0 369.24 755.66
  L 240.42 830.03
  Z
  M 958.40 830.77
  A 0.35 0.35 0.0 0 0 958.40 830.16
  L 829.26 755.63
  A 0.35 0.35 0.0 0 0 828.92 755.63
  L 614.68 873.41
  A 0.35 0.35 0.0 0 0 614.50 873.72
  L 614.50 1024.65
  A 0.35 0.35 0.0 0 0 615.02 1024.95
  L 958.40 830.77
  Z"
/>
<path fill="#8ed5fa" d="
  M 614.50 321.94
  L 614.50 176.09
  A 0.35 0.35 0.0 0 1 615.02 175.79
  L 967.20 374.95
  A 0.35 0.35 0.0 0 1 967.20 375.56
  L 842.71 447.42
  A 0.35 0.35 0.0 0 1 842.37 447.42
  L 614.68 322.25
  A 0.35 0.35 0.0 0 1 614.50 321.94
  Z"
/>
<path fill="#8ed5fa" d="
  M 231.43 374.92
  L 583.68 175.72
  A 0.38 0.38 0.0 0 1 584.25 176.05
  L 584.25 321.84
  A 0.38 0.38 0.0 0 1 584.05 322.17
  L 356.25 447.42
  A 0.38 0.38 0.0 0 1 355.87 447.41
  L 231.43 375.58
  A 0.38 0.38 0.0 0 1 231.43 374.92
  Z"
/>
<path fill="#1c78c0" d="
  M 387.21 464.94
  L 599.14 348.41
  A 0.34 0.34 0.0 0 1 599.46 348.41
  L 811.39 464.94
  A 0.34 0.34 0.0 0 1 811.40 465.53
  L 599.47 587.86
  A 0.34 0.34 0.0 0 1 599.13 587.86
  L 387.20 465.53
  A 0.34 0.34 0.0 0 1 387.21 464.94
  Z"
/>
<path fill="#8ed5fa" d="
  M 341.76 474.21
  Q 342.05 474.38 342.05 474.72
  Q 342.40 594.76 342.21 714.85
  C 342.20 720.92 341.89 728.80 342.06 735.79
  A 1.02 1.01 74.6 0 1 341.54 736.71
  L 216.77 808.72
  A 0.51 0.51 0.0 0 1 216.00 808.28
  L 216.00 402.91
  Q 216.00 401.63 217.11 402.27
  L 341.76 474.21
  Z"
/>
<path fill="#8ed5fa" d="
  M 856.50 736.19
  L 856.50 474.62
  A 0.37 0.37 0.0 0 1 856.69 474.30
  L 981.95 402.02
  A 0.37 0.37 0.0 0 1 982.50 402.34
  L 982.50 808.47
  A 0.37 0.37 0.0 0 1 981.95 808.79
  L 856.69 736.51
  A 0.37 0.37 0.0 0 1 856.50 736.19
  Z"
/>
<path fill="#1c78c0" d="
  M 372.50 722.46
  L 372.50 492.59
  A 0.34 0.34 0.0 0 1 373.01 492.29
  L 584.08 614.11
  A 0.34 0.34 0.0 0 1 584.25 614.41
  L 584.25 838.50
  A 0.34 0.34 0.0 0 1 583.75 838.79
  L 372.68 722.76
  A 0.34 0.34 0.0 0 1 372.50 722.46
  Z"
/>
<path fill="#1c78c0" d="
  M 614.44 837.94
  Q 614.52 726.31 614.50 614.72
  Q 614.50 614.12 615.02 613.82
  L 825.63 492.27
  A 0.41 0.41 0.0 0 1 826.25 492.62
  L 826.25 722.03
  Q 826.25 722.57 825.78 722.82
  L 614.98 838.72
  Q 614.57 838.95 614.35 838.54
  Q 614.15 838.16 614.44 837.94
  Z"
/>
<path fill="#8ed5fa" d="
  M 240.42 830.03
  L 369.24 755.66
  A 0.51 0.51 0.0 0 1 369.74 755.66
  L 583.99 873.46
  A 0.51 0.51 0.0 0 1 584.25 873.91
  L 584.25 1024.48
  A 0.51 0.51 0.0 0 1 583.49 1024.92
  L 240.43 830.92
  A 0.51 0.51 0.0 0 1 240.42 830.03
  Z"
/>
<path fill="#8ed5fa" d="
  M 958.40 830.77
  L 615.02 1024.95
  A 0.35 0.35 0.0 0 1 614.50 1024.65
  L 614.50 873.72
  A 0.35 0.35 0.0 0 1 614.68 873.41
  L 828.92 755.63
  A 0.35 0.35 0.0 0 1 829.26 755.63
  L 958.40 830.16
  A 0.35 0.35 0.0 0 1 958.40 830.77
  Z"
/>
</svg>
